<?xml version="1.0" encoding="UTF-8" standalone="no"?>
<!-- Created with Inkscape (http://www.inkscape.org/) -->

<svg
   width="210mm"
   height="297mm"
   viewBox="0 0 210 297"
   version="1.1"
   id="svg5"
   xml:space="preserve"
   inkscape:version="1.2 (dc2aeda, 2022-05-15)"
   sodipodi:docname="mindscape_logo.svg"
   xmlns:inkscape="http://www.inkscape.org/namespaces/inkscape"
   xmlns:sodipodi="http://sodipodi.sourceforge.net/DTD/sodipodi-0.dtd"
   xmlns="http://www.w3.org/2000/svg"
   xmlns:svg="http://www.w3.org/2000/svg"><sodipodi:namedview
     id="namedview7"
     pagecolor="#ffffff"
     bordercolor="#666666"
     borderopacity="1.0"
     inkscape:showpageshadow="2"
     inkscape:pageopacity="0.0"
     inkscape:pagecheckerboard="0"
     inkscape:deskcolor="#d1d1d1"
     inkscape:document-units="mm"
     showgrid="false"
     inkscape:zoom="1.1893044"
     inkscape:cx="414.94844"
     inkscape:cy="503.23534"
     inkscape:window-width="2560"
     inkscape:window-height="1387"
     inkscape:window-x="1680"
     inkscape:window-y="25"
     inkscape:window-maximized="1"
     inkscape:current-layer="layer1" /><defs
     id="defs2" /><g
     inkscape:label="Layer 1"
     inkscape:groupmode="layer"
     id="layer1"><g
       id="g1479"><g
         id="g1434"
         transform="translate(0.07294155,0.22246898)"><path
           style="fill:#000000;stroke:#000000;stroke-width:0.264583px;stroke-linecap:butt;stroke-linejoin:miter;stroke-opacity:1"
           d="m 51.113725,118.85656 0.111236,-5.06117 c 30.513812,-13.933429 38.961528,-13.22685 38.765218,-6.7853 2.031786,-1.72436 16.603381,-10.286974 14.071171,1.22358 -0.22494,1.02248 0.3994,0.408 1.39043,-0.11124 6.289,-3.29502 10.80516,-8.434638 16.50878,-0.0556 1.92973,2.83492 4.12773,4.63427 7.79895,4.55976 7.05736,-0.14322 16.56604,-2.02559 23.74557,-2.83563 l 0.0556,4.72746 c -12.65567,1.86112 -28.33463,4.82431 -31.9243,0.88988 -1.20753,-1.32351 -2.4939,-2.85131 -3.72618,-4.37276 -1.38176,-1.706 -2.85295,-3.18935 -7.17479,-0.13223 -0.67335,0.4763 -4.32382,3.08165 -6.80937,4.45737 -4.291606,2.37533 -9.212576,2.28363 -7.484272,-1.73213 l 1.890988,-4.39376 c 0.663148,-1.54084 -0.552188,-1.54287 -3.44827,0.50055 -2.077496,1.46584 -6.025405,4.14389 -9.371551,6.33783 -3.581506,2.34826 -7.121344,1.09841 -5.033318,-1.83285 l 2.8921,-4.06006 c 1.502471,-2.10924 -1.971781,-2.92819 -4.533609,-1.9466 z"
           id="path1151"
           sodipodi:nodetypes="cccssssccsssssssssssc" /><path
           style="fill:#000000;stroke:#000000;stroke-width:0.264583px;stroke-linecap:butt;stroke-linejoin:miter;stroke-opacity:1"
           d="m 51.113729,101.5596 0.111236,-5.061169 c 30.513812,-13.93343 38.961527,-13.22685 38.765218,-6.7853 2.031785,-1.72436 16.603377,-10.28698 14.071167,1.22358 -0.22494,1.02248 0.3994,0.408 1.39043,-0.11124 6.289,-3.29502 10.80516,-8.434644 16.50878,-0.0556 1.92973,2.83492 4.12773,4.63427 7.79895,4.55976 7.05735,-0.14322 16.56603,-2.02559 23.74556,-2.83563 l 0.0556,4.72746 c -12.65567,1.86112 -28.33462,4.824309 -31.92429,0.88988 -1.20753,-1.32351 -2.4939,-2.85131 -3.72618,-4.37276 -1.38176,-1.706 -2.85295,-3.18935 -7.17479,-0.13223 -0.67335,0.4763 -4.32382,3.08165 -6.80937,4.45737 -4.291601,2.375329 -9.212572,2.283629 -7.484268,-1.73213 l 1.890988,-4.39376 c 0.663148,-1.54084 -0.552188,-1.54287 -3.44827,0.50055 -2.077495,1.46584 -6.025405,4.14389 -9.37155,6.33783 -3.581507,2.348259 -7.121344,1.09841 -5.033318,-1.83285 l 2.8921,-4.06006 c 1.502471,-2.10924 -1.971782,-2.92819 -4.533609,-1.9466 z"
           id="path1151-2"
           sodipodi:nodetypes="cccssssccsssssssssssc" /><path
           style="fill:#000000;stroke:#000000;stroke-width:0.264583px;stroke-linecap:butt;stroke-linejoin:miter;stroke-opacity:1"
           d="m 51.11373,136.15353 0.111236,-5.06117 c 30.513812,-13.93343 38.961528,-13.22685 38.765218,-6.7853 2.031786,-1.72436 16.603376,-10.28698 14.071166,1.22358 -0.22494,1.02248 0.3994,0.408 1.39043,-0.11124 6.289,-3.29502 10.80516,-8.43465 16.50878,-0.0556 1.92973,2.83492 4.12773,4.63427 7.79895,4.55976 7.05735,-0.14322 16.56603,-2.02559 23.74556,-2.83563 l 0.0556,4.72746 c -12.65567,1.86112 -28.33462,4.82431 -31.92429,0.88988 -1.20753,-1.32351 -2.4939,-2.85131 -3.72618,-4.37276 -1.38176,-1.706 -2.85295,-3.18935 -7.17479,-0.13223 -0.67335,0.4763 -4.32382,3.08165 -6.80937,4.45737 -4.2916,2.37533 -9.21257,2.28363 -7.484266,-1.73213 l 1.890988,-4.39376 c 0.663148,-1.54084 -0.552188,-1.54287 -3.44827,0.50055 -2.077496,1.46584 -6.025405,4.14389 -9.371551,6.33783 -3.581506,2.34826 -7.121344,1.09841 -5.033318,-1.83285 l 2.8921,-4.06006 c 1.502471,-2.10924 -1.971781,-2.92819 -4.533609,-1.9466 z"
           id="path1151-2-1"
           sodipodi:nodetypes="cccssssccsssssssssssc" /></g><g
         aria-label="MINDSCAPE"
         transform="scale(0.95894166,1.0428163)"
         id="text1251"
         style="font-size:12.4179px;line-height:1.25;font-family:Arial;-inkscape-font-specification:Arial;text-align:center;letter-spacing:4.93065px;word-spacing:0px;text-anchor:middle;stroke-width:0.278677"><path
           d="m 53.560165,144.45926 h 1.962872 l 2.906429,7.53078 2.885767,-7.53078 h 1.942209 v 8.90718 h -1.301693 v -5.25699 q 0,-0.27286 0.01378,-0.90345 0.01378,-0.6306 0.01378,-1.35215 l -2.885766,7.51259 h -1.356792 l -2.906429,-7.51259 v 0.27286 q 0,0.32742 0.01378,1.00046 0.02066,0.66698 0.02066,0.98228 v 5.25699 H 53.56018 Z"
           style="font-family:Helvetica;-inkscape-font-specification:Helvetica;stroke-width:0.297006"
           id="path1444" /><path
           d="m 70.241843,144.45926 h 1.218749 v 8.90718 h -1.218749 z"
           style="font-family:Helvetica;-inkscape-font-specification:Helvetica"
           id="path1446" /><path
           d="m 77.797904,144.45926 h 1.424906 l 4.499063,7.21548 v -7.21548 h 1.145988 v 8.90718 h -1.352145 l -4.565761,-7.20942 v 7.20942 h -1.152051 z m 3.456154,0 z"
           style="font-family:Helvetica;-inkscape-font-specification:Helvetica"
           id="path1448" /><path
           d="m 95.116138,152.33566 q 0.612406,0 1.006529,-0.12733 0.703357,-0.23648 1.152051,-0.90952 0.357742,-0.53964 0.515391,-1.38246 0.09095,-0.50327 0.09095,-0.93377 0,-1.65531 -0.660914,-2.57089 -0.65485,-0.91558 -2.116136,-0.91558 h -2.14039 v 6.83955 z m -3.365203,-7.8764 h 3.60774 q 1.837218,0 2.849811,1.30364 0.903451,1.17631 0.903451,3.01352 0,1.41885 -0.533582,2.56483 -0.939831,2.02519 -3.231807,2.02519 h -3.595613 z"
           style="font-family:Helvetica;-inkscape-font-specification:Helvetica"
           id="path1450" /><path
           d="m 105.64594,150.49238 q 0.0355,0.75792 0.2993,1.23087 0.50222,0.88526 1.77044,0.88526 0.56817,0 1.03487,-0.19403 0.90297,-0.37593 0.90297,-1.34608 0,-0.72761 -0.38046,-1.03685 -0.38554,-0.30317 -1.20735,-0.52751 l -1.0095,-0.27286 q -0.98922,-0.26679 -1.40013,-0.58815 -0.7102,-0.55784 -0.7102,-1.66744 0,-1.20056 0.69499,-1.97062 0.69498,-0.77005 1.96828,-0.77005 1.17184,0 1.98858,0.6791 0.8218,0.67304 0.8218,2.15858 h -0.94863 q -0.0761,-0.71548 -0.32466,-1.09748 -0.46164,-0.69729 -1.56753,-0.69729 -0.89283,0 -1.28343,0.44869 -0.39062,0.44869 -0.39062,1.04291 0,0.65485 0.45656,0.95802 0.2993,0.19403 1.35446,0.48508 l 1.04502,0.28498 q 0.75586,0.20615 1.16676,0.5639 0.71021,0.62453 0.71021,1.81296 0,1.47948 -0.90298,2.11614 -0.8979,0.63666 -2.09003,0.63666 -1.38997,0 -2.17627,-0.84888 -0.78629,-0.84282 -0.77108,-2.28591 z m 2.0393,-6.27565 z"
           style="font-family:Helvetica;-inkscape-font-specification:Helvetica;stroke-width:0.2549"
           id="path1452" /><path
           d="m 120.35407,144.21673 q 1.6917,0 2.62547,0.89132 0.93377,0.89133 1.03684,2.02519 h -1.1763 q -0.20009,-0.86101 -0.80037,-1.36428 -0.59422,-0.50326 -1.67351,-0.50326 -1.31576,0 -2.12826,0.9277 -0.80644,0.92165 -0.80644,2.83163 0,1.56436 0.72761,2.54057 0.73368,0.97015 2.18284,0.97015 1.33395,0 2.03125,-1.02472 0.36986,-0.53964 0.55177,-1.41884 h 1.1763 q -0.15765,1.40671 -1.04291,2.35867 -1.0611,1.14599 -2.86194,1.14599 -1.55223,0 -2.60727,-0.93983 -1.38852,-1.243 -1.38852,-3.83815 0,-1.97062 1.04291,-3.23181 1.12779,-1.37033 3.11053,-1.37033 z m -0.24253,0 z"
           style="font-family:Helvetica;-inkscape-font-specification:Helvetica"
           id="path1454" /><path
           d="m 133.96746,149.71626 -1.35215,-3.93517 -1.43703,3.93517 z m -1.98274,-5.257 h 1.36427 l 3.2318,8.90718 h -1.32182 l -0.90345,-2.66791 h -3.52286 l -0.96408,2.66791 h -1.23694 z"
           style="font-family:Helvetica;-inkscape-font-specification:Helvetica"
           id="path1456" /><path
           d="m 142.72413,144.45926 h 3.65846 q 1.0848,0 1.74897,0.67304 0.66416,0.66698 0.66416,1.87967 0,1.04291 -0.59221,1.81903 -0.59221,0.77005 -1.82092,0.77005 h -2.55705 v 3.76539 h -1.10141 z m 4.95911,2.55877 q 0,-0.98227 -0.66416,-1.33395 -0.36529,-0.18797 -1.00179,-0.18797 h -2.19175 v 3.08629 h 2.19175 q 0.74166,0 1.20104,-0.34562 0.46491,-0.34562 0.46491,-1.21875 z"
           style="font-family:Helvetica;-inkscape-font-specification:Helvetica;stroke-width:0.26625"
           id="path1458" /><path
           d="m 154.83379,144.45926 h 5.12119 v 1.09142 h -4.19354 v 2.70429 h 3.87794 v 1.03078 h -3.87794 v 3.01959 h 4.26526 v 1.0611 h -5.19291 z m 2.59646,0 z"
           style="font-family:Helvetica;-inkscape-font-specification:Helvetica;stroke-width:0.247476"
           id="path1460" /></g><rect
         style="fill:#000000;stroke:none;stroke-width:5.44046;stroke-linecap:square;stroke-linejoin:round;stroke-dasharray:none"
         id="rect1355"
         width="102.5582"
         height="4.5606141"
         x="51.129574"
         y="140.15544" /><rect
         style="fill:#000000;stroke:none;stroke-width:5.44046;stroke-linecap:square;stroke-linejoin:round;stroke-dasharray:none"
         id="rect1355-8"
         width="102.5582"
         height="4.5606141"
         x="51.129574"
         y="75.695068" /></g></g></svg>
