G04 #@! TF.GenerationSoftware,KiCad,Pcbnew,8.0.9*
G04 #@! TF.CreationDate,2025-03-24T20:53:25+01:00*
G04 #@! TF.ProjectId,Mindscape_Music_Board,4d696e64-7363-4617-9065-5f4d75736963,rev?*
G04 #@! TF.SameCoordinates,Original*
G04 #@! TF.FileFunction,Copper,L2,Bot*
G04 #@! TF.FilePolarity,Positive*
%FSLAX46Y46*%
G04 Gerber Fmt 4.6, Leading zero omitted, Abs format (unit mm)*
G04 Created by KiCad (PCBNEW 8.0.9) date 2025-03-24 20:53:25*
%MOMM*%
%LPD*%
G01*
G04 APERTURE LIST*
G04 Aperture macros list*
%AMRoundRect*
0 Rectangle with rounded corners*
0 $1 Rounding radius*
0 $2 $3 $4 $5 $6 $7 $8 $9 X,Y pos of 4 corners*
0 Add a 4 corners polygon primitive as box body*
4,1,4,$2,$3,$4,$5,$6,$7,$8,$9,$2,$3,0*
0 Add four circle primitives for the rounded corners*
1,1,$1+$1,$2,$3*
1,1,$1+$1,$4,$5*
1,1,$1+$1,$6,$7*
1,1,$1+$1,$8,$9*
0 Add four rect primitives between the rounded corners*
20,1,$1+$1,$2,$3,$4,$5,0*
20,1,$1+$1,$4,$5,$6,$7,0*
20,1,$1+$1,$6,$7,$8,$9,0*
20,1,$1+$1,$8,$9,$2,$3,0*%
G04 Aperture macros list end*
%ADD10C,0.200000*%
G04 #@! TA.AperFunction,NonConductor*
%ADD11C,0.200000*%
G04 #@! TD*
%ADD12C,0.150000*%
G04 #@! TA.AperFunction,NonConductor*
%ADD13C,0.150000*%
G04 #@! TD*
G04 #@! TA.AperFunction,ComponentPad*
%ADD14C,1.600000*%
G04 #@! TD*
G04 #@! TA.AperFunction,ComponentPad*
%ADD15R,1.600000X1.600000*%
G04 #@! TD*
G04 #@! TA.AperFunction,ComponentPad*
%ADD16C,5.000000*%
G04 #@! TD*
G04 #@! TA.AperFunction,ComponentPad*
%ADD17C,4.500000*%
G04 #@! TD*
G04 #@! TA.AperFunction,ComponentPad*
%ADD18O,1.600000X1.600000*%
G04 #@! TD*
G04 #@! TA.AperFunction,SMDPad,CuDef*
%ADD19C,1.300000*%
G04 #@! TD*
G04 #@! TA.AperFunction,SMDPad,CuDef*
%ADD20RoundRect,0.065000X-0.585000X-3.235000X0.585000X-3.235000X0.585000X3.235000X-0.585000X3.235000X0*%
G04 #@! TD*
G04 #@! TA.AperFunction,ComponentPad*
%ADD21C,3.200000*%
G04 #@! TD*
G04 #@! TA.AperFunction,ComponentPad*
%ADD22C,1.700000*%
G04 #@! TD*
G04 #@! TA.AperFunction,ComponentPad*
%ADD23C,3.000000*%
G04 #@! TD*
G04 #@! TA.AperFunction,ViaPad*
%ADD24C,1.500000*%
G04 #@! TD*
G04 #@! TA.AperFunction,Conductor*
%ADD25C,0.300000*%
G04 #@! TD*
G04 #@! TA.AperFunction,Conductor*
%ADD26C,1.000000*%
G04 #@! TD*
G04 #@! TA.AperFunction,Conductor*
%ADD27C,1.300000*%
G04 #@! TD*
G04 #@! TA.AperFunction,Conductor*
%ADD28C,1.600000*%
G04 #@! TD*
G04 APERTURE END LIST*
D10*
D11*
X165962856Y-40226504D02*
X165391428Y-40226504D01*
X166077142Y-40512219D02*
X165677142Y-39512219D01*
X165677142Y-39512219D02*
X165277142Y-40512219D01*
X164191428Y-40416980D02*
X164248571Y-40464600D01*
X164248571Y-40464600D02*
X164419999Y-40512219D01*
X164419999Y-40512219D02*
X164534285Y-40512219D01*
X164534285Y-40512219D02*
X164705714Y-40464600D01*
X164705714Y-40464600D02*
X164819999Y-40369361D01*
X164819999Y-40369361D02*
X164877142Y-40274123D01*
X164877142Y-40274123D02*
X164934285Y-40083647D01*
X164934285Y-40083647D02*
X164934285Y-39940790D01*
X164934285Y-39940790D02*
X164877142Y-39750314D01*
X164877142Y-39750314D02*
X164819999Y-39655076D01*
X164819999Y-39655076D02*
X164705714Y-39559838D01*
X164705714Y-39559838D02*
X164534285Y-39512219D01*
X164534285Y-39512219D02*
X164419999Y-39512219D01*
X164419999Y-39512219D02*
X164248571Y-39559838D01*
X164248571Y-39559838D02*
X164191428Y-39607457D01*
X162819999Y-39464600D02*
X163848571Y-40750314D01*
X162477142Y-40226504D02*
X161905714Y-40226504D01*
X162591428Y-40512219D02*
X162191428Y-39512219D01*
X162191428Y-39512219D02*
X161791428Y-40512219D01*
X159962857Y-39845552D02*
X159962857Y-40512219D01*
X160248571Y-39464600D02*
X160534285Y-40178885D01*
X160534285Y-40178885D02*
X159791428Y-40178885D01*
X159391428Y-39607457D02*
X159334285Y-39559838D01*
X159334285Y-39559838D02*
X159220000Y-39512219D01*
X159220000Y-39512219D02*
X158934285Y-39512219D01*
X158934285Y-39512219D02*
X158820000Y-39559838D01*
X158820000Y-39559838D02*
X158762857Y-39607457D01*
X158762857Y-39607457D02*
X158705714Y-39702695D01*
X158705714Y-39702695D02*
X158705714Y-39797933D01*
X158705714Y-39797933D02*
X158762857Y-39940790D01*
X158762857Y-39940790D02*
X159448571Y-40512219D01*
X159448571Y-40512219D02*
X158705714Y-40512219D01*
X157334285Y-39464600D02*
X158362857Y-40750314D01*
X156762857Y-39940790D02*
X156877142Y-39893171D01*
X156877142Y-39893171D02*
X156934285Y-39845552D01*
X156934285Y-39845552D02*
X156991428Y-39750314D01*
X156991428Y-39750314D02*
X156991428Y-39702695D01*
X156991428Y-39702695D02*
X156934285Y-39607457D01*
X156934285Y-39607457D02*
X156877142Y-39559838D01*
X156877142Y-39559838D02*
X156762857Y-39512219D01*
X156762857Y-39512219D02*
X156534285Y-39512219D01*
X156534285Y-39512219D02*
X156420000Y-39559838D01*
X156420000Y-39559838D02*
X156362857Y-39607457D01*
X156362857Y-39607457D02*
X156305714Y-39702695D01*
X156305714Y-39702695D02*
X156305714Y-39750314D01*
X156305714Y-39750314D02*
X156362857Y-39845552D01*
X156362857Y-39845552D02*
X156420000Y-39893171D01*
X156420000Y-39893171D02*
X156534285Y-39940790D01*
X156534285Y-39940790D02*
X156762857Y-39940790D01*
X156762857Y-39940790D02*
X156877142Y-39988409D01*
X156877142Y-39988409D02*
X156934285Y-40036028D01*
X156934285Y-40036028D02*
X156991428Y-40131266D01*
X156991428Y-40131266D02*
X156991428Y-40321742D01*
X156991428Y-40321742D02*
X156934285Y-40416980D01*
X156934285Y-40416980D02*
X156877142Y-40464600D01*
X156877142Y-40464600D02*
X156762857Y-40512219D01*
X156762857Y-40512219D02*
X156534285Y-40512219D01*
X156534285Y-40512219D02*
X156420000Y-40464600D01*
X156420000Y-40464600D02*
X156362857Y-40416980D01*
X156362857Y-40416980D02*
X156305714Y-40321742D01*
X156305714Y-40321742D02*
X156305714Y-40131266D01*
X156305714Y-40131266D02*
X156362857Y-40036028D01*
X156362857Y-40036028D02*
X156420000Y-39988409D01*
X156420000Y-39988409D02*
X156534285Y-39940790D01*
X155277143Y-39512219D02*
X155505714Y-39512219D01*
X155505714Y-39512219D02*
X155620000Y-39559838D01*
X155620000Y-39559838D02*
X155677143Y-39607457D01*
X155677143Y-39607457D02*
X155791428Y-39750314D01*
X155791428Y-39750314D02*
X155848571Y-39940790D01*
X155848571Y-39940790D02*
X155848571Y-40321742D01*
X155848571Y-40321742D02*
X155791428Y-40416980D01*
X155791428Y-40416980D02*
X155734285Y-40464600D01*
X155734285Y-40464600D02*
X155620000Y-40512219D01*
X155620000Y-40512219D02*
X155391428Y-40512219D01*
X155391428Y-40512219D02*
X155277143Y-40464600D01*
X155277143Y-40464600D02*
X155220000Y-40416980D01*
X155220000Y-40416980D02*
X155162857Y-40321742D01*
X155162857Y-40321742D02*
X155162857Y-40083647D01*
X155162857Y-40083647D02*
X155220000Y-39988409D01*
X155220000Y-39988409D02*
X155277143Y-39940790D01*
X155277143Y-39940790D02*
X155391428Y-39893171D01*
X155391428Y-39893171D02*
X155620000Y-39893171D01*
X155620000Y-39893171D02*
X155734285Y-39940790D01*
X155734285Y-39940790D02*
X155791428Y-39988409D01*
X155791428Y-39988409D02*
X155848571Y-40083647D01*
X153677142Y-40512219D02*
X153448571Y-40512219D01*
X153448571Y-40512219D02*
X153334285Y-40464600D01*
X153334285Y-40464600D02*
X153277142Y-40416980D01*
X153277142Y-40416980D02*
X153162857Y-40274123D01*
X153162857Y-40274123D02*
X153105714Y-40083647D01*
X153105714Y-40083647D02*
X153105714Y-39702695D01*
X153105714Y-39702695D02*
X153162857Y-39607457D01*
X153162857Y-39607457D02*
X153220000Y-39559838D01*
X153220000Y-39559838D02*
X153334285Y-39512219D01*
X153334285Y-39512219D02*
X153562857Y-39512219D01*
X153562857Y-39512219D02*
X153677142Y-39559838D01*
X153677142Y-39559838D02*
X153734285Y-39607457D01*
X153734285Y-39607457D02*
X153791428Y-39702695D01*
X153791428Y-39702695D02*
X153791428Y-39940790D01*
X153791428Y-39940790D02*
X153734285Y-40036028D01*
X153734285Y-40036028D02*
X153677142Y-40083647D01*
X153677142Y-40083647D02*
X153562857Y-40131266D01*
X153562857Y-40131266D02*
X153334285Y-40131266D01*
X153334285Y-40131266D02*
X153220000Y-40083647D01*
X153220000Y-40083647D02*
X153162857Y-40036028D01*
X153162857Y-40036028D02*
X153105714Y-39940790D01*
X152077143Y-39845552D02*
X152077143Y-40512219D01*
X152362857Y-39464600D02*
X152648571Y-40178885D01*
X152648571Y-40178885D02*
X151905714Y-40178885D01*
X151620000Y-39512219D02*
X151220000Y-40512219D01*
X151220000Y-40512219D02*
X150820000Y-39512219D01*
X150191429Y-39512219D02*
X149962857Y-39512219D01*
X149962857Y-39512219D02*
X149848572Y-39559838D01*
X149848572Y-39559838D02*
X149734286Y-39655076D01*
X149734286Y-39655076D02*
X149677143Y-39845552D01*
X149677143Y-39845552D02*
X149677143Y-40178885D01*
X149677143Y-40178885D02*
X149734286Y-40369361D01*
X149734286Y-40369361D02*
X149848572Y-40464600D01*
X149848572Y-40464600D02*
X149962857Y-40512219D01*
X149962857Y-40512219D02*
X150191429Y-40512219D01*
X150191429Y-40512219D02*
X150305715Y-40464600D01*
X150305715Y-40464600D02*
X150420000Y-40369361D01*
X150420000Y-40369361D02*
X150477143Y-40178885D01*
X150477143Y-40178885D02*
X150477143Y-39845552D01*
X150477143Y-39845552D02*
X150420000Y-39655076D01*
X150420000Y-39655076D02*
X150305715Y-39559838D01*
X150305715Y-39559838D02*
X150191429Y-39512219D01*
D12*
D13*
X75885601Y-133636771D02*
X75714173Y-133693914D01*
X75714173Y-133693914D02*
X75657030Y-133751057D01*
X75657030Y-133751057D02*
X75599887Y-133865342D01*
X75599887Y-133865342D02*
X75599887Y-134036771D01*
X75599887Y-134036771D02*
X75657030Y-134151057D01*
X75657030Y-134151057D02*
X75714173Y-134208200D01*
X75714173Y-134208200D02*
X75828458Y-134265342D01*
X75828458Y-134265342D02*
X76285601Y-134265342D01*
X76285601Y-134265342D02*
X76285601Y-133065342D01*
X76285601Y-133065342D02*
X75885601Y-133065342D01*
X75885601Y-133065342D02*
X75771316Y-133122485D01*
X75771316Y-133122485D02*
X75714173Y-133179628D01*
X75714173Y-133179628D02*
X75657030Y-133293914D01*
X75657030Y-133293914D02*
X75657030Y-133408200D01*
X75657030Y-133408200D02*
X75714173Y-133522485D01*
X75714173Y-133522485D02*
X75771316Y-133579628D01*
X75771316Y-133579628D02*
X75885601Y-133636771D01*
X75885601Y-133636771D02*
X76285601Y-133636771D01*
X75199887Y-133065342D02*
X74457030Y-133065342D01*
X74457030Y-133065342D02*
X74857030Y-133522485D01*
X74857030Y-133522485D02*
X74685601Y-133522485D01*
X74685601Y-133522485D02*
X74571316Y-133579628D01*
X74571316Y-133579628D02*
X74514173Y-133636771D01*
X74514173Y-133636771D02*
X74457030Y-133751057D01*
X74457030Y-133751057D02*
X74457030Y-134036771D01*
X74457030Y-134036771D02*
X74514173Y-134151057D01*
X74514173Y-134151057D02*
X74571316Y-134208200D01*
X74571316Y-134208200D02*
X74685601Y-134265342D01*
X74685601Y-134265342D02*
X75028458Y-134265342D01*
X75028458Y-134265342D02*
X75142744Y-134208200D01*
X75142744Y-134208200D02*
X75199887Y-134151057D01*
X73314173Y-134265342D02*
X73999887Y-134265342D01*
X73657030Y-134265342D02*
X73657030Y-133065342D01*
X73657030Y-133065342D02*
X73771316Y-133236771D01*
X73771316Y-133236771D02*
X73885601Y-133351057D01*
X73885601Y-133351057D02*
X73999887Y-133408200D01*
D12*
D13*
X158995601Y-133756771D02*
X158824173Y-133813914D01*
X158824173Y-133813914D02*
X158767030Y-133871057D01*
X158767030Y-133871057D02*
X158709887Y-133985342D01*
X158709887Y-133985342D02*
X158709887Y-134156771D01*
X158709887Y-134156771D02*
X158767030Y-134271057D01*
X158767030Y-134271057D02*
X158824173Y-134328200D01*
X158824173Y-134328200D02*
X158938458Y-134385342D01*
X158938458Y-134385342D02*
X159395601Y-134385342D01*
X159395601Y-134385342D02*
X159395601Y-133185342D01*
X159395601Y-133185342D02*
X158995601Y-133185342D01*
X158995601Y-133185342D02*
X158881316Y-133242485D01*
X158881316Y-133242485D02*
X158824173Y-133299628D01*
X158824173Y-133299628D02*
X158767030Y-133413914D01*
X158767030Y-133413914D02*
X158767030Y-133528200D01*
X158767030Y-133528200D02*
X158824173Y-133642485D01*
X158824173Y-133642485D02*
X158881316Y-133699628D01*
X158881316Y-133699628D02*
X158995601Y-133756771D01*
X158995601Y-133756771D02*
X159395601Y-133756771D01*
X157567030Y-134385342D02*
X158252744Y-134385342D01*
X157909887Y-134385342D02*
X157909887Y-133185342D01*
X157909887Y-133185342D02*
X158024173Y-133356771D01*
X158024173Y-133356771D02*
X158138458Y-133471057D01*
X158138458Y-133471057D02*
X158252744Y-133528200D01*
D14*
X146770000Y-67220000D03*
X149270000Y-67220000D03*
X157140000Y-102860000D03*
X157140000Y-100360000D03*
X141615113Y-54150000D03*
X139115113Y-54150000D03*
X147000000Y-62160000D03*
X149500000Y-62160000D03*
D15*
X149330000Y-131050000D03*
D14*
X154330000Y-131050000D03*
D15*
X134090000Y-131050000D03*
D14*
X139090000Y-131050000D03*
D16*
X166020000Y-64195000D03*
X166020000Y-85785000D03*
D17*
X160305000Y-69275000D03*
X159035000Y-74990000D03*
X160305000Y-80705000D03*
D15*
X135430000Y-94980000D03*
D18*
X135430000Y-97520000D03*
X135430000Y-100060000D03*
X135430000Y-102600000D03*
X135430000Y-105140000D03*
X135430000Y-107680000D03*
X135430000Y-110220000D03*
X135430000Y-112760000D03*
X135430000Y-115300000D03*
X135430000Y-117840000D03*
X135430000Y-120380000D03*
X135430000Y-122920000D03*
X150670000Y-122920000D03*
X150670000Y-120380000D03*
X150670000Y-117840000D03*
X150670000Y-115300000D03*
X150670000Y-112760000D03*
X150670000Y-110220000D03*
X150670000Y-107680000D03*
X150670000Y-105140000D03*
X150670000Y-102600000D03*
X150670000Y-100060000D03*
X150670000Y-97520000D03*
X150670000Y-94980000D03*
D15*
X115040000Y-94980000D03*
D18*
X115040000Y-97520000D03*
X115040000Y-100060000D03*
X115040000Y-102600000D03*
X115040000Y-105140000D03*
X115040000Y-107680000D03*
X115040000Y-110220000D03*
X115040000Y-112760000D03*
X115040000Y-115300000D03*
X115040000Y-117840000D03*
X115040000Y-120380000D03*
X115040000Y-122920000D03*
X130280000Y-122920000D03*
X130280000Y-120380000D03*
X130280000Y-117840000D03*
X130280000Y-115300000D03*
X130280000Y-112760000D03*
X130280000Y-110220000D03*
X130280000Y-107680000D03*
X130280000Y-105140000D03*
X130280000Y-102600000D03*
X130280000Y-100060000D03*
X130280000Y-97520000D03*
X130280000Y-94980000D03*
D19*
X154370000Y-136145000D03*
D20*
X154370000Y-139420000D03*
D19*
X151830000Y-136145000D03*
D20*
X151830000Y-139420000D03*
D19*
X149290000Y-136145000D03*
D20*
X149290000Y-139420000D03*
D19*
X146750000Y-136145000D03*
D20*
X146750000Y-139420000D03*
D19*
X144210000Y-136145000D03*
D20*
X144210000Y-139420000D03*
D19*
X141670000Y-136145000D03*
D20*
X141670000Y-139420000D03*
D19*
X139130000Y-136145000D03*
D20*
X139130000Y-139420000D03*
D19*
X136590000Y-136145000D03*
D20*
X136590000Y-139420000D03*
D19*
X134050000Y-136145000D03*
D20*
X134050000Y-139420000D03*
D19*
X131510000Y-136145000D03*
D20*
X131510000Y-139420000D03*
D19*
X128970000Y-136145000D03*
D20*
X128970000Y-139420000D03*
D19*
X126430000Y-136145000D03*
D20*
X126430000Y-139420000D03*
D19*
X123890000Y-136145000D03*
D20*
X123890000Y-139420000D03*
D19*
X121350000Y-136145000D03*
D20*
X121350000Y-139420000D03*
D19*
X118810000Y-136145000D03*
D20*
X118810000Y-139420000D03*
D19*
X116270000Y-136145000D03*
D20*
X116270000Y-139420000D03*
D19*
X113730000Y-136145000D03*
D20*
X113730000Y-139420000D03*
D19*
X111190000Y-136145000D03*
D20*
X111190000Y-139420000D03*
D19*
X108650000Y-136145000D03*
D20*
X108650000Y-139420000D03*
D19*
X106110000Y-136145000D03*
D20*
X106110000Y-139420000D03*
D19*
X103570000Y-136145000D03*
D20*
X103570000Y-139420000D03*
D19*
X101030000Y-136145000D03*
D20*
X101030000Y-139420000D03*
D19*
X98490000Y-136145000D03*
D20*
X98490000Y-139420000D03*
D19*
X95950000Y-136145000D03*
D20*
X95950000Y-139420000D03*
D19*
X93410000Y-136145000D03*
D20*
X93410000Y-139420000D03*
D19*
X90870000Y-136145000D03*
D20*
X90870000Y-139420000D03*
D19*
X88330000Y-136145000D03*
D20*
X88330000Y-139420000D03*
D19*
X85790000Y-136145000D03*
D20*
X85790000Y-139420000D03*
D19*
X83250000Y-136145000D03*
D20*
X83250000Y-139420000D03*
D19*
X80710000Y-136145000D03*
D20*
X80710000Y-139420000D03*
D19*
X78170000Y-136145000D03*
D20*
X78170000Y-139420000D03*
D21*
X164010000Y-117860000D03*
X164010000Y-107700000D03*
D15*
X81790000Y-105140000D03*
D18*
X81790000Y-107680000D03*
X81790000Y-110220000D03*
X81790000Y-112760000D03*
X81790000Y-115300000D03*
X81790000Y-117840000D03*
X81790000Y-120380000D03*
X81790000Y-122920000D03*
X89410000Y-122920000D03*
X89410000Y-120380000D03*
X89410000Y-117840000D03*
X89410000Y-115300000D03*
X89410000Y-112760000D03*
X89410000Y-110220000D03*
X89410000Y-107680000D03*
X89410000Y-105140000D03*
D22*
X89400000Y-76760000D03*
X81900000Y-76760000D03*
D14*
X139140000Y-79890000D03*
D18*
X126440000Y-79890000D03*
D22*
X72930000Y-102100000D03*
X65430000Y-102100000D03*
D15*
X134030000Y-62140000D03*
D18*
X134030000Y-64680000D03*
X134030000Y-67220000D03*
X134030000Y-69760000D03*
X141650000Y-69760000D03*
X141650000Y-67220000D03*
X141650000Y-64680000D03*
X141650000Y-62140000D03*
D23*
X132200000Y-86160000D03*
X157200000Y-86160000D03*
D15*
X65380000Y-105140000D03*
D18*
X65380000Y-107680000D03*
X65380000Y-110220000D03*
X65380000Y-112760000D03*
X65380000Y-115300000D03*
X65380000Y-117840000D03*
X65380000Y-120380000D03*
X65380000Y-122920000D03*
X73000000Y-122920000D03*
X73000000Y-120380000D03*
X73000000Y-117840000D03*
X73000000Y-115300000D03*
X73000000Y-112760000D03*
X73000000Y-110220000D03*
X73000000Y-107680000D03*
X73000000Y-105140000D03*
D22*
X151760000Y-73560000D03*
X144260000Y-73560000D03*
D15*
X98480000Y-57065000D03*
D18*
X98480000Y-59605000D03*
X98480000Y-62145000D03*
X98480000Y-64685000D03*
X98480000Y-67225000D03*
X98480000Y-69765000D03*
X98480000Y-72305000D03*
X106100000Y-72305000D03*
X106100000Y-69765000D03*
X106100000Y-67225000D03*
X106100000Y-64685000D03*
X106100000Y-62145000D03*
X106100000Y-59605000D03*
X106100000Y-57065000D03*
D22*
X126440000Y-77540000D03*
X133940000Y-77540000D03*
X106030000Y-102030000D03*
X98530000Y-102030000D03*
D15*
X98480000Y-105140000D03*
D18*
X98480000Y-107680000D03*
X98480000Y-110220000D03*
X98480000Y-112760000D03*
X98480000Y-115300000D03*
X98480000Y-117840000D03*
X98480000Y-120380000D03*
X98480000Y-122920000D03*
X106100000Y-122920000D03*
X106100000Y-120380000D03*
X106100000Y-117840000D03*
X106100000Y-115300000D03*
X106100000Y-112760000D03*
X106100000Y-110220000D03*
X106100000Y-107680000D03*
X106100000Y-105140000D03*
D15*
X93230000Y-100060000D03*
D18*
X93230000Y-102600000D03*
X93230000Y-105140000D03*
X93230000Y-107680000D03*
X93230000Y-110220000D03*
X93230000Y-112760000D03*
X93230000Y-115300000D03*
X93230000Y-117840000D03*
X93230000Y-120380000D03*
X93230000Y-122920000D03*
D14*
X154430000Y-77190000D03*
D18*
X141730000Y-77190000D03*
D15*
X115040000Y-72290000D03*
D18*
X115040000Y-74830000D03*
X115040000Y-77370000D03*
X115040000Y-79910000D03*
X115040000Y-82450000D03*
X115040000Y-84990000D03*
X115040000Y-87530000D03*
X122660000Y-87530000D03*
X122660000Y-84990000D03*
X122660000Y-82450000D03*
X122660000Y-79910000D03*
X122660000Y-77370000D03*
X122660000Y-74830000D03*
X122660000Y-72290000D03*
D15*
X98480000Y-79855000D03*
D18*
X98480000Y-82395000D03*
X98480000Y-84935000D03*
X98480000Y-87475000D03*
X98480000Y-90015000D03*
X98480000Y-92555000D03*
X98480000Y-95095000D03*
X106100000Y-95095000D03*
X106100000Y-92555000D03*
X106100000Y-90015000D03*
X106100000Y-87475000D03*
X106100000Y-84935000D03*
X106100000Y-82395000D03*
X106100000Y-79855000D03*
D22*
X122590000Y-69300000D03*
X115090000Y-69300000D03*
D14*
X154425000Y-79890000D03*
D18*
X141725000Y-79890000D03*
D15*
X81850000Y-79855000D03*
D18*
X81850000Y-82395000D03*
X81850000Y-84935000D03*
X81850000Y-87475000D03*
X81850000Y-90015000D03*
X81850000Y-92555000D03*
X81850000Y-95095000D03*
X89470000Y-95095000D03*
X89470000Y-92555000D03*
X89470000Y-90015000D03*
X89470000Y-87475000D03*
X89470000Y-84935000D03*
X89470000Y-82395000D03*
X89470000Y-79855000D03*
D22*
X106030000Y-76760000D03*
X98530000Y-76760000D03*
X106030000Y-53980000D03*
X98530000Y-53980000D03*
D24*
X112990000Y-106460000D03*
X104100000Y-111520000D03*
X86880000Y-110350000D03*
X86240000Y-106530000D03*
X102720000Y-114120000D03*
X122680000Y-134300000D03*
X121310000Y-59610000D03*
X125270000Y-88310000D03*
X125270000Y-134310000D03*
X107380000Y-134360000D03*
X127090000Y-90070000D03*
X88020000Y-64680000D03*
X71520000Y-91310000D03*
X70890000Y-83680000D03*
X137300000Y-91370000D03*
X118090000Y-90160000D03*
X117500000Y-83670000D03*
X138490000Y-88160000D03*
X67810000Y-109100000D03*
X69060000Y-104000000D03*
X83540000Y-62140000D03*
X81660000Y-63420000D03*
X85540000Y-60880000D03*
X66610000Y-92560000D03*
X89290000Y-57050000D03*
X86740000Y-68510000D03*
D25*
X131990000Y-103930000D02*
X119360000Y-103930000D01*
X133200000Y-105140000D02*
X131990000Y-103930000D01*
X119360000Y-103930000D02*
X118150000Y-105140000D01*
X118150000Y-105140000D02*
X115040000Y-105140000D01*
X135430000Y-105140000D02*
X133200000Y-105140000D01*
X119620000Y-101350000D02*
X131830000Y-101350000D01*
X133080000Y-102600000D02*
X135430000Y-102600000D01*
X115040000Y-102600000D02*
X118370000Y-102600000D01*
X131830000Y-101350000D02*
X133080000Y-102600000D01*
X118370000Y-102600000D02*
X119620000Y-101350000D01*
X119670000Y-116580000D02*
X118410000Y-117840000D01*
X132780000Y-117840000D02*
X131520000Y-116580000D01*
X135430000Y-117840000D02*
X132780000Y-117840000D01*
X118410000Y-117840000D02*
X115040000Y-117840000D01*
X131520000Y-116580000D02*
X119670000Y-116580000D01*
X131930000Y-111500000D02*
X119580000Y-111500000D01*
X133190000Y-112760000D02*
X131930000Y-111500000D01*
X118320000Y-112760000D02*
X115040000Y-112760000D01*
X119580000Y-111500000D02*
X118320000Y-112760000D01*
X135430000Y-112760000D02*
X133190000Y-112760000D01*
X133120000Y-110220000D02*
X135430000Y-110220000D01*
X115040000Y-110220000D02*
X118400000Y-110220000D01*
X131910000Y-109010000D02*
X133120000Y-110220000D01*
X118400000Y-110220000D02*
X119610000Y-109010000D01*
X119610000Y-109010000D02*
X131910000Y-109010000D01*
X119530000Y-114060000D02*
X131630000Y-114060000D01*
X132870000Y-115300000D02*
X135430000Y-115300000D01*
X118290000Y-115300000D02*
X119530000Y-114060000D01*
X131630000Y-114060000D02*
X132870000Y-115300000D01*
X115040000Y-115300000D02*
X118290000Y-115300000D01*
X129773654Y-106560000D02*
X129803654Y-106530000D01*
X119640000Y-106560000D02*
X129773654Y-106560000D01*
X115040000Y-107680000D02*
X118520000Y-107680000D01*
X132070000Y-106530000D02*
X133220000Y-107680000D01*
X133220000Y-107680000D02*
X135430000Y-107680000D01*
X129803654Y-106530000D02*
X132070000Y-106530000D01*
X118520000Y-107680000D02*
X119640000Y-106560000D01*
X131590000Y-119120000D02*
X132850000Y-120380000D01*
X115040000Y-120380000D02*
X118380000Y-120380000D01*
X118380000Y-120380000D02*
X119640000Y-119120000D01*
X132850000Y-120380000D02*
X135430000Y-120380000D01*
X119640000Y-119120000D02*
X131590000Y-119120000D01*
X144760000Y-102600000D02*
X150670000Y-102600000D01*
X150930000Y-102860000D02*
X157140000Y-102860000D01*
X130280000Y-102600000D02*
X131750000Y-102600000D01*
X150670000Y-102600000D02*
X150930000Y-102860000D01*
X143480000Y-103880000D02*
X144760000Y-102600000D01*
X131750000Y-102600000D02*
X133030000Y-103880000D01*
X133030000Y-103880000D02*
X143480000Y-103880000D01*
X133350000Y-106420000D02*
X132070000Y-105140000D01*
X118460000Y-106460000D02*
X112990000Y-106460000D01*
X132070000Y-105140000D02*
X130280000Y-105140000D01*
X118760000Y-106160000D02*
X118460000Y-106460000D01*
X119780000Y-105140000D02*
X118760000Y-106160000D01*
X130280000Y-105140000D02*
X119780000Y-105140000D01*
X150670000Y-105140000D02*
X145020000Y-105140000D01*
X143740000Y-106420000D02*
X133350000Y-106420000D01*
X145020000Y-105140000D02*
X143740000Y-106420000D01*
D26*
X131170000Y-73460000D02*
X131170000Y-74560000D01*
X110480000Y-94980000D02*
X108380000Y-97080000D01*
X144900000Y-92140000D02*
X142550000Y-92140000D01*
X144030000Y-126240000D02*
X154430000Y-126240000D01*
D27*
X154430000Y-110900000D02*
X151210000Y-107680000D01*
D26*
X139080000Y-127890000D02*
X142380000Y-127890000D01*
X123510000Y-64680000D02*
X131170000Y-64680000D01*
X104180000Y-74390000D02*
X106870000Y-74390000D01*
X106870000Y-74390000D02*
X112110000Y-69150000D01*
X131170000Y-69760000D02*
X134030000Y-69760000D01*
D27*
X144900000Y-82720000D02*
X144900000Y-92140000D01*
D26*
X139710000Y-94980000D02*
X135430000Y-94980000D01*
X68435000Y-95095000D02*
X67490000Y-96040000D01*
X131170000Y-69760000D02*
X131170000Y-73460000D01*
X109660000Y-127890000D02*
X139080000Y-127890000D01*
X65290000Y-98240000D02*
X65290000Y-102150000D01*
X154540000Y-100360000D02*
X153840000Y-99660000D01*
X81780000Y-125790000D02*
X81780000Y-124670000D01*
X154330000Y-126340000D02*
X154430000Y-126240000D01*
X153840000Y-99660000D02*
X153840000Y-94960000D01*
D27*
X144900000Y-82720000D02*
X160300000Y-82720000D01*
D26*
X154430000Y-126240000D02*
X154430000Y-117860000D01*
X65380000Y-122920000D02*
X65380000Y-125080000D01*
X81780000Y-125790000D02*
X98480000Y-125790000D01*
X112110000Y-69150000D02*
X119040000Y-69150000D01*
X108380000Y-97080000D02*
X103650000Y-97080000D01*
X119040000Y-69150000D02*
X123510000Y-64680000D01*
X84565000Y-95095000D02*
X86720000Y-97250000D01*
D27*
X157140000Y-100360000D02*
X154540000Y-100360000D01*
D26*
X154330000Y-131050000D02*
X154330000Y-126340000D01*
X93345000Y-95095000D02*
X98480000Y-95095000D01*
X66090000Y-125790000D02*
X81780000Y-125790000D01*
X67490000Y-96040000D02*
X65290000Y-98240000D01*
X98480000Y-72305000D02*
X102095000Y-72305000D01*
X98480000Y-125790000D02*
X98480000Y-122920000D01*
X131170000Y-74560000D02*
X133950000Y-77340000D01*
X91190000Y-97250000D02*
X93345000Y-95095000D01*
D27*
X144900000Y-79850000D02*
X144900000Y-82720000D01*
D26*
X139115113Y-56264887D02*
X139115113Y-54150000D01*
X139090000Y-127900000D02*
X139080000Y-127890000D01*
D27*
X160305000Y-82715000D02*
X160305000Y-80705000D01*
D26*
X115040000Y-94980000D02*
X110480000Y-94980000D01*
D27*
X141680000Y-79880000D02*
X141710000Y-79850000D01*
D26*
X103650000Y-97080000D02*
X101665000Y-95095000D01*
X133770000Y-56610000D02*
X138770000Y-56610000D01*
X142380000Y-127890000D02*
X144030000Y-126240000D01*
X135430000Y-94980000D02*
X133940000Y-94980000D01*
D27*
X164010000Y-117860000D02*
X154430000Y-117860000D01*
X159340000Y-100360000D02*
X157140000Y-100360000D01*
D26*
X107560000Y-125790000D02*
X109660000Y-127890000D01*
X131990000Y-93030000D02*
X126160000Y-93030000D01*
D27*
X159340000Y-104570000D02*
X159340000Y-100360000D01*
D26*
X131170000Y-64680000D02*
X134030000Y-64680000D01*
X154370000Y-136145000D02*
X154370000Y-131090000D01*
X131270000Y-73560000D02*
X144330000Y-73560000D01*
X86720000Y-97250000D02*
X91190000Y-97250000D01*
X101665000Y-95095000D02*
X98480000Y-95095000D01*
X126160000Y-93030000D02*
X124210000Y-94980000D01*
X98480000Y-72305000D02*
X86105000Y-72305000D01*
X86105000Y-72305000D02*
X81680000Y-76730000D01*
X81850000Y-95095000D02*
X84565000Y-95095000D01*
X139090000Y-131050000D02*
X139090000Y-127900000D01*
X98480000Y-125790000D02*
X107560000Y-125790000D01*
X131170000Y-59210000D02*
X133770000Y-56610000D01*
D27*
X150670000Y-107680000D02*
X156230000Y-107680000D01*
D26*
X81790000Y-124660000D02*
X81790000Y-122920000D01*
X154370000Y-131090000D02*
X154330000Y-131050000D01*
X65380000Y-125080000D02*
X66090000Y-125790000D01*
X131170000Y-64680000D02*
X131170000Y-59210000D01*
X81780000Y-124670000D02*
X81790000Y-124660000D01*
X138770000Y-56610000D02*
X139115113Y-56264887D01*
D27*
X156230000Y-107680000D02*
X159340000Y-104570000D01*
D26*
X133940000Y-94980000D02*
X131990000Y-93030000D01*
X154430000Y-117860000D02*
X154430000Y-110900000D01*
D27*
X160300000Y-82720000D02*
X160305000Y-82715000D01*
D26*
X153840000Y-94960000D02*
X151020000Y-92140000D01*
X142550000Y-92140000D02*
X139710000Y-94980000D01*
X124210000Y-94980000D02*
X115040000Y-94980000D01*
X131170000Y-64680000D02*
X131170000Y-69760000D01*
X133950000Y-77340000D02*
X133950000Y-77540000D01*
X131170000Y-73460000D02*
X131270000Y-73560000D01*
D27*
X141710000Y-79850000D02*
X144900000Y-79850000D01*
D26*
X151210000Y-107680000D02*
X150670000Y-107680000D01*
X81850000Y-95095000D02*
X68435000Y-95095000D01*
X151020000Y-92140000D02*
X144900000Y-92140000D01*
X102095000Y-72305000D02*
X104180000Y-74390000D01*
D28*
X115040000Y-79910000D02*
X106155000Y-79910000D01*
D26*
X101110000Y-74580000D02*
X91690000Y-74580000D01*
D27*
X89990000Y-100200000D02*
X74710000Y-100200000D01*
X130260000Y-124420000D02*
X130280000Y-124400000D01*
D26*
X106100000Y-79855000D02*
X106100000Y-76820000D01*
D27*
X105960000Y-102080000D02*
X103940000Y-102080000D01*
X109450000Y-121270000D02*
X113230000Y-125050000D01*
D28*
X106155000Y-79910000D02*
X106100000Y-79855000D01*
D27*
X106100000Y-105140000D02*
X107750000Y-105140000D01*
X113230000Y-125050000D02*
X130260000Y-125050000D01*
X93520000Y-99480000D02*
X92800000Y-100200000D01*
X109450000Y-106840000D02*
X109450000Y-121270000D01*
D26*
X106100000Y-76820000D02*
X106080000Y-76800000D01*
X113490000Y-72290000D02*
X115040000Y-72290000D01*
D27*
X130280000Y-124400000D02*
X130280000Y-122920000D01*
X99520000Y-98750000D02*
X94970000Y-98750000D01*
D26*
X91690000Y-74580000D02*
X89420000Y-76850000D01*
X89470000Y-76900000D02*
X89470000Y-79855000D01*
D27*
X74710000Y-100200000D02*
X72810000Y-102100000D01*
X102220000Y-101450000D02*
X99520000Y-98750000D01*
D26*
X106080000Y-76800000D02*
X108980000Y-76800000D01*
D27*
X130260000Y-125050000D02*
X140710000Y-125050000D01*
X106100000Y-105140000D02*
X106100000Y-102220000D01*
D26*
X115040000Y-72290000D02*
X122660000Y-72290000D01*
D27*
X94250000Y-98750000D02*
X93520000Y-99480000D01*
X107750000Y-105140000D02*
X109450000Y-106840000D01*
X92800000Y-100200000D02*
X89990000Y-100200000D01*
D26*
X149290000Y-131090000D02*
X149330000Y-131050000D01*
D27*
X102850000Y-102080000D02*
X102220000Y-101450000D01*
D26*
X103330000Y-76800000D02*
X101110000Y-74580000D01*
D27*
X106090000Y-102210000D02*
X105960000Y-102080000D01*
D26*
X108980000Y-76800000D02*
X113490000Y-72290000D01*
D27*
X106100000Y-102220000D02*
X106090000Y-102210000D01*
X103940000Y-102080000D02*
X102850000Y-102080000D01*
X142840000Y-122920000D02*
X150670000Y-122920000D01*
X130260000Y-125050000D02*
X130260000Y-124420000D01*
D26*
X149290000Y-136145000D02*
X149290000Y-131090000D01*
D27*
X140710000Y-125050000D02*
X142840000Y-122920000D01*
D26*
X106080000Y-76800000D02*
X103330000Y-76800000D01*
D27*
X94970000Y-98750000D02*
X94250000Y-98750000D01*
D26*
X89420000Y-76850000D02*
X89470000Y-76900000D01*
D25*
X65380000Y-115300000D02*
X67880000Y-115300000D01*
X67880000Y-115300000D02*
X69070000Y-114110000D01*
X95210000Y-111500000D02*
X96470000Y-112760000D01*
X96470000Y-112760000D02*
X98480000Y-112760000D01*
X83440000Y-114110000D02*
X86050000Y-111500000D01*
X69070000Y-114110000D02*
X83440000Y-114110000D01*
X86050000Y-111500000D02*
X95210000Y-111500000D01*
X95790000Y-110560000D02*
X96750000Y-111520000D01*
X93230000Y-110220000D02*
X95450000Y-110220000D01*
X96750000Y-111520000D02*
X98870000Y-111520000D01*
X98870000Y-111520000D02*
X104100000Y-111520000D01*
X95450000Y-110220000D02*
X95790000Y-110560000D01*
X93230000Y-110220000D02*
X89410000Y-110220000D01*
X74690000Y-110220000D02*
X75960000Y-111490000D01*
X73000000Y-110220000D02*
X74690000Y-110220000D01*
X75960000Y-111490000D02*
X83900000Y-111490000D01*
X89410000Y-117840000D02*
X93230000Y-117840000D01*
X85040000Y-110350000D02*
X86880000Y-110350000D01*
X83900000Y-111490000D02*
X85040000Y-110350000D01*
X67610000Y-105140000D02*
X69000000Y-106530000D01*
X93230000Y-115300000D02*
X89410000Y-115300000D01*
X69000000Y-106530000D02*
X86240000Y-106530000D01*
X65380000Y-105140000D02*
X67610000Y-105140000D01*
X104860000Y-108980000D02*
X97140000Y-108980000D01*
X106100000Y-110220000D02*
X104860000Y-108980000D01*
X95840000Y-107680000D02*
X89410000Y-107680000D01*
X97140000Y-108980000D02*
X95840000Y-107680000D01*
X89410000Y-105140000D02*
X93230000Y-105140000D01*
X93230000Y-105140000D02*
X98480000Y-105140000D01*
X73000000Y-117840000D02*
X74900000Y-117840000D01*
X93230000Y-120380000D02*
X89410000Y-120380000D01*
X76270000Y-119210000D02*
X85510000Y-119210000D01*
X85510000Y-119210000D02*
X86680000Y-120380000D01*
X74900000Y-117840000D02*
X76270000Y-119210000D01*
X86680000Y-120380000D02*
X89410000Y-120380000D01*
X85690000Y-121660000D02*
X86950000Y-122920000D01*
X89410000Y-122920000D02*
X93230000Y-122920000D01*
X73000000Y-122920000D02*
X74820000Y-122920000D01*
X76080000Y-121660000D02*
X85690000Y-121660000D01*
X86950000Y-122920000D02*
X89410000Y-122920000D01*
X74820000Y-122920000D02*
X76080000Y-121660000D01*
X89410000Y-112760000D02*
X93230000Y-112760000D01*
X94780000Y-112760000D02*
X95390000Y-113370000D01*
X96140000Y-114120000D02*
X102720000Y-114120000D01*
X95390000Y-113370000D02*
X96140000Y-114120000D01*
X93230000Y-112760000D02*
X94780000Y-112760000D01*
X95765000Y-79855000D02*
X98480000Y-79855000D01*
X94480000Y-81140000D02*
X95765000Y-79855000D01*
X100595000Y-79855000D02*
X98480000Y-79855000D01*
X106100000Y-82395000D02*
X103135000Y-82395000D01*
X81850000Y-82395000D02*
X84255000Y-82395000D01*
X84255000Y-82395000D02*
X85510000Y-81140000D01*
X103135000Y-82395000D02*
X100595000Y-79855000D01*
X85510000Y-81140000D02*
X94480000Y-81140000D01*
X131960000Y-110220000D02*
X130280000Y-110220000D01*
X133300000Y-111560000D02*
X131960000Y-110220000D01*
X143660000Y-111560000D02*
X133300000Y-111560000D01*
X150670000Y-110220000D02*
X145000000Y-110220000D01*
X145000000Y-110220000D02*
X143660000Y-111560000D01*
D26*
X122290000Y-134300000D02*
X122680000Y-134300000D01*
D25*
X121310000Y-59610000D02*
X121305000Y-59605000D01*
D26*
X121350000Y-136145000D02*
X121350000Y-135240000D01*
X121910000Y-134680000D02*
X122290000Y-134300000D01*
D25*
X121305000Y-59605000D02*
X106100000Y-59605000D01*
D26*
X121350000Y-135240000D02*
X121910000Y-134680000D01*
D25*
X124830000Y-88750000D02*
X94390000Y-88750000D01*
D26*
X123890000Y-136145000D02*
X123890000Y-135690000D01*
X123890000Y-135690000D02*
X125270000Y-134310000D01*
D25*
X125270000Y-88310000D02*
X124830000Y-88750000D01*
X93115000Y-87475000D02*
X89470000Y-87475000D01*
X94390000Y-88750000D02*
X93115000Y-87475000D01*
D28*
X141650000Y-67220000D02*
X146770000Y-67220000D01*
D26*
X134050000Y-131080000D02*
X134060000Y-131070000D01*
X134050000Y-136145000D02*
X134050000Y-131080000D01*
X106110000Y-136145000D02*
X106110000Y-135630000D01*
X106110000Y-135630000D02*
X107380000Y-134360000D01*
D25*
X121430000Y-91200000D02*
X122560000Y-90070000D01*
X109500000Y-91870000D02*
X119760000Y-91870000D01*
X84145000Y-90015000D02*
X84630000Y-90500000D01*
X120760000Y-91870000D02*
X121430000Y-91200000D01*
X108310000Y-93060000D02*
X109500000Y-91870000D01*
X94350000Y-93840000D02*
X98750000Y-93840000D01*
X91800000Y-91290000D02*
X92580000Y-92070000D01*
X98750000Y-93840000D02*
X107530000Y-93840000D01*
X107530000Y-93840000D02*
X108310000Y-93060000D01*
X89420000Y-91290000D02*
X91800000Y-91290000D01*
X84630000Y-90500000D02*
X85420000Y-91290000D01*
X119760000Y-91870000D02*
X120760000Y-91870000D01*
X122560000Y-90070000D02*
X127090000Y-90070000D01*
X92580000Y-92070000D02*
X94350000Y-93840000D01*
X81850000Y-90015000D02*
X84145000Y-90015000D01*
X85420000Y-91290000D02*
X89420000Y-91290000D01*
X89470000Y-92555000D02*
X85015000Y-92555000D01*
X88025000Y-64685000D02*
X88020000Y-64680000D01*
X81780000Y-91310000D02*
X71520000Y-91310000D01*
X84680000Y-92220000D02*
X83770000Y-91310000D01*
X83770000Y-91310000D02*
X81780000Y-91310000D01*
X85015000Y-92555000D02*
X84680000Y-92220000D01*
X98480000Y-64685000D02*
X88025000Y-64685000D01*
X89470000Y-82395000D02*
X85815000Y-82395000D01*
X85815000Y-82395000D02*
X85030000Y-83180000D01*
X85030000Y-83180000D02*
X84530000Y-83680000D01*
X81800000Y-83680000D02*
X70890000Y-83680000D01*
X84530000Y-83680000D02*
X81800000Y-83680000D01*
X157200000Y-86160000D02*
X164010000Y-92970000D01*
X164010000Y-92970000D02*
X164010000Y-107700000D01*
X132200000Y-86160000D02*
X138470000Y-79890000D01*
X138470000Y-79890000D02*
X139140000Y-79890000D01*
D26*
X126440000Y-77550000D02*
X126450000Y-77540000D01*
D25*
X106100000Y-95095000D02*
X107585000Y-95095000D01*
X112610000Y-92690000D02*
X121300000Y-92690000D01*
X122030000Y-91960000D02*
X122620000Y-91370000D01*
X108830000Y-93850000D02*
X109990000Y-92690000D01*
X122620000Y-91370000D02*
X137300000Y-91370000D01*
X121300000Y-92690000D02*
X122030000Y-91960000D01*
X107585000Y-95095000D02*
X108830000Y-93850000D01*
X109990000Y-92690000D02*
X112610000Y-92690000D01*
X102290000Y-91290000D02*
X106380000Y-91290000D01*
X98480000Y-92555000D02*
X101025000Y-92555000D01*
X109110000Y-90160000D02*
X118090000Y-90160000D01*
X101500000Y-92080000D02*
X102290000Y-91290000D01*
X101025000Y-92555000D02*
X101500000Y-92080000D01*
X108370000Y-90900000D02*
X109110000Y-90160000D01*
X106380000Y-91290000D02*
X107980000Y-91290000D01*
X107980000Y-91290000D02*
X108370000Y-90900000D01*
X101490000Y-84450000D02*
X102270000Y-83670000D01*
X98480000Y-84935000D02*
X101005000Y-84935000D01*
X106410000Y-83670000D02*
X117500000Y-83670000D01*
X102270000Y-83670000D02*
X106410000Y-83670000D01*
X101005000Y-84935000D02*
X101490000Y-84450000D01*
X115400000Y-86270000D02*
X127960000Y-86270000D01*
X134940000Y-88520000D02*
X135300000Y-88160000D01*
X106100000Y-87475000D02*
X108745000Y-87475000D01*
X109200000Y-87020000D02*
X109950000Y-86270000D01*
X128670000Y-86980000D02*
X130470000Y-88780000D01*
X133660000Y-88780000D02*
X134680000Y-88780000D01*
X134680000Y-88780000D02*
X134940000Y-88520000D01*
X108745000Y-87475000D02*
X109200000Y-87020000D01*
X135300000Y-88160000D02*
X138490000Y-88160000D01*
X127960000Y-86270000D02*
X128670000Y-86980000D01*
X130470000Y-88780000D02*
X133660000Y-88780000D01*
X109950000Y-86270000D02*
X115400000Y-86270000D01*
X96480000Y-110220000D02*
X95180000Y-108920000D01*
X67990000Y-108920000D02*
X67810000Y-109100000D01*
X98480000Y-110220000D02*
X96480000Y-110220000D01*
X95180000Y-108920000D02*
X67990000Y-108920000D01*
X69070000Y-103990000D02*
X69060000Y-104000000D01*
X98480000Y-107680000D02*
X97220000Y-106420000D01*
X86020000Y-103990000D02*
X69070000Y-103990000D01*
X97220000Y-106420000D02*
X88450000Y-106420000D01*
X88450000Y-106420000D02*
X86020000Y-103990000D01*
X106100000Y-67225000D02*
X98480000Y-67225000D01*
X98480000Y-62145000D02*
X83545000Y-62145000D01*
X83545000Y-62145000D02*
X83540000Y-62140000D01*
X141730000Y-77190000D02*
X146570000Y-77190000D01*
X146570000Y-77190000D02*
X150200000Y-73560000D01*
X150200000Y-73560000D02*
X151760000Y-73560000D01*
X160305000Y-66305000D02*
X160305000Y-69275000D01*
X156160000Y-62160000D02*
X160305000Y-66305000D01*
X149500000Y-62160000D02*
X156160000Y-62160000D01*
X157650000Y-71250000D02*
X140200000Y-71250000D01*
X136170000Y-67220000D02*
X134030000Y-67220000D01*
X159035000Y-74990000D02*
X159035000Y-72635000D01*
X159035000Y-72635000D02*
X157650000Y-71250000D01*
X140200000Y-71250000D02*
X136170000Y-67220000D01*
X102860000Y-64210000D02*
X102070000Y-63420000D01*
X97910000Y-63420000D02*
X81660000Y-63420000D01*
X102070000Y-63420000D02*
X97910000Y-63420000D01*
X106100000Y-64685000D02*
X103335000Y-64685000D01*
X103335000Y-64685000D02*
X102860000Y-64210000D01*
X106100000Y-62145000D02*
X103345000Y-62145000D01*
X103345000Y-62145000D02*
X102720000Y-61520000D01*
X102080000Y-60880000D02*
X97930000Y-60880000D01*
X97930000Y-60880000D02*
X85540000Y-60880000D01*
X102720000Y-61520000D02*
X102080000Y-60880000D01*
X98480000Y-90015000D02*
X89470000Y-90015000D01*
X106100000Y-90015000D02*
X98480000Y-90015000D01*
X66615000Y-92555000D02*
X81850000Y-92555000D01*
X66610000Y-92560000D02*
X66615000Y-92555000D01*
X89305000Y-57065000D02*
X89290000Y-57050000D01*
X98480000Y-57065000D02*
X89305000Y-57065000D01*
X103375000Y-69765000D02*
X103030000Y-69420000D01*
X103030000Y-69420000D02*
X102120000Y-68510000D01*
X102120000Y-68510000D02*
X98420000Y-68510000D01*
X98420000Y-68510000D02*
X86740000Y-68510000D01*
X106100000Y-69765000D02*
X103375000Y-69765000D01*
G04 #@! TA.AperFunction,Conductor*
G36*
X154005677Y-109559685D02*
G01*
X154026319Y-109576319D01*
X155313681Y-110863681D01*
X155347166Y-110925004D01*
X155350000Y-110951362D01*
X155350000Y-115570000D01*
X156053681Y-116273681D01*
X156087166Y-116335004D01*
X156090000Y-116361362D01*
X156090000Y-129648637D01*
X156070315Y-129715676D01*
X156053681Y-129736318D01*
X155501817Y-130288181D01*
X155440494Y-130321666D01*
X155409943Y-130323607D01*
X154730000Y-131003551D01*
X154730000Y-130997339D01*
X154702741Y-130895606D01*
X154650080Y-130804394D01*
X154575606Y-130729920D01*
X154484394Y-130677259D01*
X154382661Y-130650000D01*
X154376445Y-130650000D01*
X155055472Y-129970974D01*
X154982478Y-129919863D01*
X154776331Y-129823735D01*
X154776317Y-129823730D01*
X154556610Y-129764860D01*
X154556599Y-129764858D01*
X154330002Y-129745034D01*
X154329998Y-129745034D01*
X154103400Y-129764858D01*
X154103389Y-129764860D01*
X153883682Y-129823730D01*
X153883673Y-129823734D01*
X153677516Y-129919866D01*
X153677512Y-129919868D01*
X153604526Y-129970973D01*
X153604526Y-129970974D01*
X154283553Y-130650000D01*
X154277339Y-130650000D01*
X154175606Y-130677259D01*
X154084394Y-130729920D01*
X154009920Y-130804394D01*
X153957259Y-130895606D01*
X153930000Y-130997339D01*
X153930000Y-131003552D01*
X153250973Y-130324525D01*
X153224806Y-130326815D01*
X153156306Y-130313048D01*
X153106124Y-130264432D01*
X153090000Y-130203287D01*
X153090000Y-127500000D01*
X144560000Y-127500000D01*
X144559999Y-127500000D01*
X142886319Y-129173681D01*
X142824996Y-129207166D01*
X142798638Y-129210000D01*
X109261362Y-129210000D01*
X109194323Y-129190315D01*
X109173681Y-129173681D01*
X107020000Y-127020000D01*
X65004000Y-127020000D01*
X64936961Y-127000315D01*
X64891206Y-126947511D01*
X64880000Y-126896000D01*
X64880000Y-124354000D01*
X64899685Y-124286961D01*
X64952489Y-124241206D01*
X65004000Y-124230000D01*
X108088638Y-124230000D01*
X108155677Y-124249685D01*
X108176319Y-124266319D01*
X110530000Y-126620000D01*
X141460000Y-126620000D01*
X143393681Y-124686319D01*
X143455004Y-124652834D01*
X143481362Y-124650000D01*
X153100000Y-124650000D01*
X153100000Y-109664000D01*
X153119685Y-109596961D01*
X153172489Y-109551206D01*
X153224000Y-109540000D01*
X153938638Y-109540000D01*
X154005677Y-109559685D01*
G37*
G04 #@! TD.AperFunction*
G04 #@! TA.AperFunction,Conductor*
G36*
X152385677Y-90709685D02*
G01*
X152406319Y-90726319D01*
X155163681Y-93483681D01*
X155197166Y-93545004D01*
X155200000Y-93571362D01*
X155200000Y-100698638D01*
X155180315Y-100765677D01*
X155163681Y-100786319D01*
X154976319Y-100973681D01*
X154914996Y-101007166D01*
X154888638Y-101010000D01*
X152724000Y-101010000D01*
X152656961Y-100990315D01*
X152611206Y-100937511D01*
X152600000Y-100886000D01*
X152600000Y-94850000D01*
X150970000Y-93220000D01*
X148860000Y-93220000D01*
X148859999Y-93220000D01*
X146126319Y-95953681D01*
X146064996Y-95987166D01*
X146038638Y-95990000D01*
X133841362Y-95990000D01*
X133774323Y-95970315D01*
X133753681Y-95953681D01*
X131680000Y-93880000D01*
X126310000Y-93880000D01*
X126309999Y-93880000D01*
X124376319Y-95813681D01*
X124314996Y-95847166D01*
X124288638Y-95850000D01*
X116151362Y-95850000D01*
X116084323Y-95830315D01*
X116063681Y-95813681D01*
X115940000Y-95690000D01*
X110610000Y-95690000D01*
X110609999Y-95690000D01*
X108646319Y-97653681D01*
X108584996Y-97687166D01*
X108558638Y-97690000D01*
X103431362Y-97690000D01*
X103364323Y-97670315D01*
X103343681Y-97653681D01*
X102660000Y-96970000D01*
X92190000Y-96970000D01*
X92189999Y-96970000D01*
X91356319Y-97803681D01*
X91294996Y-97837166D01*
X91268638Y-97840000D01*
X86641362Y-97840000D01*
X86574323Y-97820315D01*
X86553681Y-97803681D01*
X85890000Y-97140000D01*
X68290000Y-97140000D01*
X68289999Y-97140000D01*
X65790000Y-99639999D01*
X65790000Y-101898638D01*
X65770315Y-101965677D01*
X65753681Y-101986319D01*
X65326319Y-102413681D01*
X65264996Y-102447166D01*
X65238638Y-102450000D01*
X64941362Y-102450000D01*
X64874323Y-102430315D01*
X64853681Y-102413681D01*
X64556319Y-102116319D01*
X64522834Y-102054996D01*
X64520000Y-102028638D01*
X64520000Y-97601362D01*
X64539685Y-97534323D01*
X64556319Y-97513681D01*
X67543681Y-94526319D01*
X67605004Y-94492834D01*
X67631362Y-94490000D01*
X85208638Y-94490000D01*
X85275677Y-94509685D01*
X85296319Y-94526319D01*
X87410000Y-96640000D01*
X90690000Y-96640000D01*
X92813681Y-94516319D01*
X92875004Y-94482834D01*
X92901362Y-94480000D01*
X97328638Y-94480000D01*
X97395677Y-94499685D01*
X97416319Y-94516319D01*
X97500000Y-94600000D01*
X102068638Y-94600000D01*
X102135677Y-94619685D01*
X102156319Y-94636319D01*
X104000000Y-96480000D01*
X107990000Y-96480000D01*
X109983681Y-94486319D01*
X110045004Y-94452834D01*
X110071362Y-94450000D01*
X115940000Y-94450000D01*
X116023681Y-94366319D01*
X116085004Y-94332834D01*
X116111362Y-94330000D01*
X123720000Y-94330000D01*
X125643681Y-92406319D01*
X125705004Y-92372834D01*
X125731362Y-92370000D01*
X132328638Y-92370000D01*
X132395677Y-92389685D01*
X132416319Y-92406319D01*
X134670000Y-94660000D01*
X136810000Y-94660000D01*
X140743681Y-90726319D01*
X140805004Y-90692834D01*
X140831362Y-90690000D01*
X152318638Y-90690000D01*
X152385677Y-90709685D01*
G37*
G04 #@! TD.AperFunction*
M02*
