%TF.GenerationSoftware,KiCad,Pcbnew,8.0.9*%
%TF.CreationDate,2025-03-24T20:53:28+01:00*%
%TF.ProjectId,Mindscape_Music_Board,4d696e64-7363-4617-9065-5f4d75736963,rev?*%
%TF.SameCoordinates,Original*%
%TF.FileFunction,Drillmap*%
%TF.FilePolarity,Positive*%
%FSLAX45Y45*%
G04 Gerber Fmt 4.5, Leading zero omitted, Abs format (unit mm)*
G04 Created by KiCad (PCBNEW 8.0.9) date 2025-03-24 20:53:28*
%MOMM*%
%LPD*%
G01*
G04 APERTURE LIST*
%ADD10C,0.050000*%
%ADD11C,0.200000*%
G04 APERTURE END LIST*
D10*
X7499500Y-13551000D02*
X5748000Y-13551000D01*
X5718000Y-3752000D02*
G75*
G02*
X5748000Y-3722000I30000J0D01*
G01*
X5748000Y-13551000D02*
G75*
G02*
X5718000Y-13521000I0J30000D01*
G01*
X5748000Y-3722000D02*
X17886000Y-3722000D01*
X17916000Y-13521000D02*
G75*
G02*
X17886000Y-13551000I-30000J0D01*
G01*
X17916000Y-3752000D02*
X17916000Y-13521000D01*
X17886000Y-13551000D02*
X15754500Y-13551000D01*
X17886000Y-3722000D02*
G75*
G02*
X17916000Y-3752000I0J-30000D01*
G01*
X16984000Y-13065000D02*
G75*
G02*
X16664000Y-13065000I-160000J0D01*
G01*
X16664000Y-13065000D02*
G75*
G02*
X16984000Y-13065000I160000J0D01*
G01*
X6531000Y-4343000D02*
G75*
G02*
X6283000Y-4343000I-124000J0D01*
G01*
X6283000Y-4343000D02*
G75*
G02*
X6531000Y-4343000I124000J0D01*
G01*
X5718000Y-13521000D02*
X5718000Y-3752000D01*
X16984000Y-5728000D02*
G75*
G02*
X16664000Y-5728000I-160000J0D01*
G01*
X16664000Y-5728000D02*
G75*
G02*
X16984000Y-5728000I160000J0D01*
G01*
X6531000Y-12928000D02*
G75*
G02*
X6283000Y-12928000I-124000J0D01*
G01*
X6283000Y-12928000D02*
G75*
G02*
X6531000Y-12928000I124000J0D01*
G01*
X17467000Y-4337000D02*
G75*
G02*
X17219000Y-4337000I-124000J0D01*
G01*
X17219000Y-4337000D02*
G75*
G02*
X17467000Y-4337000I124000J0D01*
G01*
X17300000Y-7499000D02*
G75*
G02*
X16920000Y-7499000I-190000J0D01*
G01*
X16920000Y-7499000D02*
G75*
G02*
X17300000Y-7499000I190000J0D01*
G01*
X7626500Y-14249500D02*
X7626500Y-13678000D01*
X7690000Y-14313000D02*
X15564000Y-14313000D01*
X15627500Y-14249500D02*
X15627500Y-13678000D01*
X7499500Y-13551000D02*
G75*
G02*
X7626500Y-13678000I0J-127000D01*
G01*
X7690000Y-14313000D02*
G75*
G02*
X7626500Y-14249500I0J63500D01*
G01*
X15627500Y-13678000D02*
G75*
G02*
X15754500Y-13551000I127000J0D01*
G01*
X15627500Y-14249500D02*
G75*
G02*
X15564000Y-14313000I-63500J0D01*
G01*
D11*
X5976277Y-14626984D02*
X5976277Y-14426984D01*
X5976277Y-14426984D02*
X6023896Y-14426984D01*
X6023896Y-14426984D02*
X6052467Y-14436508D01*
X6052467Y-14436508D02*
X6071515Y-14455555D01*
X6071515Y-14455555D02*
X6081039Y-14474603D01*
X6081039Y-14474603D02*
X6090562Y-14512698D01*
X6090562Y-14512698D02*
X6090562Y-14541269D01*
X6090562Y-14541269D02*
X6081039Y-14579365D01*
X6081039Y-14579365D02*
X6071515Y-14598412D01*
X6071515Y-14598412D02*
X6052467Y-14617460D01*
X6052467Y-14617460D02*
X6023896Y-14626984D01*
X6023896Y-14626984D02*
X5976277Y-14626984D01*
X6176277Y-14626984D02*
X6176277Y-14493650D01*
X6176277Y-14531746D02*
X6185801Y-14512698D01*
X6185801Y-14512698D02*
X6195324Y-14503174D01*
X6195324Y-14503174D02*
X6214372Y-14493650D01*
X6214372Y-14493650D02*
X6233420Y-14493650D01*
X6300086Y-14626984D02*
X6300086Y-14493650D01*
X6300086Y-14426984D02*
X6290562Y-14436508D01*
X6290562Y-14436508D02*
X6300086Y-14446031D01*
X6300086Y-14446031D02*
X6309610Y-14436508D01*
X6309610Y-14436508D02*
X6300086Y-14426984D01*
X6300086Y-14426984D02*
X6300086Y-14446031D01*
X6423896Y-14626984D02*
X6404848Y-14617460D01*
X6404848Y-14617460D02*
X6395324Y-14598412D01*
X6395324Y-14598412D02*
X6395324Y-14426984D01*
X6528658Y-14626984D02*
X6509610Y-14617460D01*
X6509610Y-14617460D02*
X6500086Y-14598412D01*
X6500086Y-14598412D02*
X6500086Y-14426984D01*
X6757229Y-14626984D02*
X6757229Y-14426984D01*
X6757229Y-14426984D02*
X6823896Y-14569841D01*
X6823896Y-14569841D02*
X6890562Y-14426984D01*
X6890562Y-14426984D02*
X6890562Y-14626984D01*
X7071515Y-14626984D02*
X7071515Y-14522222D01*
X7071515Y-14522222D02*
X7061991Y-14503174D01*
X7061991Y-14503174D02*
X7042943Y-14493650D01*
X7042943Y-14493650D02*
X7004848Y-14493650D01*
X7004848Y-14493650D02*
X6985801Y-14503174D01*
X7071515Y-14617460D02*
X7052467Y-14626984D01*
X7052467Y-14626984D02*
X7004848Y-14626984D01*
X7004848Y-14626984D02*
X6985801Y-14617460D01*
X6985801Y-14617460D02*
X6976277Y-14598412D01*
X6976277Y-14598412D02*
X6976277Y-14579365D01*
X6976277Y-14579365D02*
X6985801Y-14560317D01*
X6985801Y-14560317D02*
X7004848Y-14550793D01*
X7004848Y-14550793D02*
X7052467Y-14550793D01*
X7052467Y-14550793D02*
X7071515Y-14541269D01*
X7166753Y-14493650D02*
X7166753Y-14693650D01*
X7166753Y-14503174D02*
X7185801Y-14493650D01*
X7185801Y-14493650D02*
X7223896Y-14493650D01*
X7223896Y-14493650D02*
X7242943Y-14503174D01*
X7242943Y-14503174D02*
X7252467Y-14512698D01*
X7252467Y-14512698D02*
X7261991Y-14531746D01*
X7261991Y-14531746D02*
X7261991Y-14588888D01*
X7261991Y-14588888D02*
X7252467Y-14607936D01*
X7252467Y-14607936D02*
X7242943Y-14617460D01*
X7242943Y-14617460D02*
X7223896Y-14626984D01*
X7223896Y-14626984D02*
X7185801Y-14626984D01*
X7185801Y-14626984D02*
X7166753Y-14617460D01*
X7347705Y-14607936D02*
X7357229Y-14617460D01*
X7357229Y-14617460D02*
X7347705Y-14626984D01*
X7347705Y-14626984D02*
X7338182Y-14617460D01*
X7338182Y-14617460D02*
X7347705Y-14607936D01*
X7347705Y-14607936D02*
X7347705Y-14626984D01*
X7347705Y-14503174D02*
X7357229Y-14512698D01*
X7357229Y-14512698D02*
X7347705Y-14522222D01*
X7347705Y-14522222D02*
X7338182Y-14512698D01*
X7338182Y-14512698D02*
X7347705Y-14503174D01*
X7347705Y-14503174D02*
X7347705Y-14522222D01*
M02*
