M48
; DRILL file {KiCad 8.0.9} date 2025-03-24T20:53:28+0100
; FORMAT={-:-/ absolute / metric / decimal}
; #@! TF.CreationDate,2025-03-24T20:53:28+01:00
; #@! TF.GenerationSoftware,Kicad,Pcbnew,8.0.9
; #@! TF.FileFunction,Plated,1,2,PTH
FMAT,2
METRIC
; #@! TA.AperFunction,Plated,PTH,ComponentDrill
T1C0.800
; #@! TA.AperFunction,Plated,PTH,ViaDrill
T2C0.900
; #@! TA.AperFunction,Plated,PTH,ComponentDrill
T3C1.000
; #@! TA.AperFunction,Plated,PTH,ComponentDrill
T4C1.400
; #@! TA.AperFunction,Plated,PTH,ComponentDrill
T5C1.500
; #@! TA.AperFunction,Plated,PTH,ComponentDrill
T6C2.500
; #@! TA.AperFunction,Plated,PTH,ComponentDrill
T7C3.000
%
G90
G05
T1
X65.38Y-105.14
X65.38Y-107.68
X65.38Y-110.22
X65.38Y-112.76
X65.38Y-115.3
X65.38Y-117.84
X65.38Y-120.38
X65.38Y-122.92
X73.0Y-105.14
X73.0Y-107.68
X73.0Y-110.22
X73.0Y-112.76
X73.0Y-115.3
X73.0Y-117.84
X73.0Y-120.38
X73.0Y-122.92
X81.79Y-105.14
X81.79Y-107.68
X81.79Y-110.22
X81.79Y-112.76
X81.79Y-115.3
X81.79Y-117.84
X81.79Y-120.38
X81.79Y-122.92
X81.85Y-79.855
X81.85Y-82.395
X81.85Y-84.935
X81.85Y-87.475
X81.85Y-90.015
X81.85Y-92.555
X81.85Y-95.095
X89.41Y-105.14
X89.41Y-107.68
X89.41Y-110.22
X89.41Y-112.76
X89.41Y-115.3
X89.41Y-117.84
X89.41Y-120.38
X89.41Y-122.92
X89.47Y-79.855
X89.47Y-82.395
X89.47Y-84.935
X89.47Y-87.475
X89.47Y-90.015
X89.47Y-92.555
X89.47Y-95.095
X93.23Y-100.06
X93.23Y-102.6
X93.23Y-105.14
X93.23Y-107.68
X93.23Y-110.22
X93.23Y-112.76
X93.23Y-115.3
X93.23Y-117.84
X93.23Y-120.38
X93.23Y-122.92
X98.48Y-57.065
X98.48Y-59.605
X98.48Y-62.145
X98.48Y-64.685
X98.48Y-67.225
X98.48Y-69.765
X98.48Y-72.305
X98.48Y-79.855
X98.48Y-82.395
X98.48Y-84.935
X98.48Y-87.475
X98.48Y-90.015
X98.48Y-92.555
X98.48Y-95.095
X98.48Y-105.14
X98.48Y-107.68
X98.48Y-110.22
X98.48Y-112.76
X98.48Y-115.3
X98.48Y-117.84
X98.48Y-120.38
X98.48Y-122.92
X106.1Y-57.065
X106.1Y-59.605
X106.1Y-62.145
X106.1Y-64.685
X106.1Y-67.225
X106.1Y-69.765
X106.1Y-72.305
X106.1Y-79.855
X106.1Y-82.395
X106.1Y-84.935
X106.1Y-87.475
X106.1Y-90.015
X106.1Y-92.555
X106.1Y-95.095
X106.1Y-105.14
X106.1Y-107.68
X106.1Y-110.22
X106.1Y-112.76
X106.1Y-115.3
X106.1Y-117.84
X106.1Y-120.38
X106.1Y-122.92
X115.04Y-72.29
X115.04Y-74.83
X115.04Y-77.37
X115.04Y-79.91
X115.04Y-82.45
X115.04Y-84.99
X115.04Y-87.53
X115.04Y-94.98
X115.04Y-97.52
X115.04Y-100.06
X115.04Y-102.6
X115.04Y-105.14
X115.04Y-107.68
X115.04Y-110.22
X115.04Y-112.76
X115.04Y-115.3
X115.04Y-117.84
X115.04Y-120.38
X115.04Y-122.92
X122.66Y-72.29
X122.66Y-74.83
X122.66Y-77.37
X122.66Y-79.91
X122.66Y-82.45
X122.66Y-84.99
X122.66Y-87.53
X126.44Y-79.89
X130.28Y-94.98
X130.28Y-97.52
X130.28Y-100.06
X130.28Y-102.6
X130.28Y-105.14
X130.28Y-107.68
X130.28Y-110.22
X130.28Y-112.76
X130.28Y-115.3
X130.28Y-117.84
X130.28Y-120.38
X130.28Y-122.92
X134.03Y-62.14
X134.03Y-64.68
X134.03Y-67.22
X134.03Y-69.76
X134.09Y-131.05
X135.43Y-94.98
X135.43Y-97.52
X135.43Y-100.06
X135.43Y-102.6
X135.43Y-105.14
X135.43Y-107.68
X135.43Y-110.22
X135.43Y-112.76
X135.43Y-115.3
X135.43Y-117.84
X135.43Y-120.38
X135.43Y-122.92
X139.09Y-131.05
X139.115Y-54.15
X139.14Y-79.89
X141.615Y-54.15
X141.65Y-62.14
X141.65Y-64.68
X141.65Y-67.22
X141.65Y-69.76
X141.725Y-79.89
X141.73Y-77.19
X146.77Y-67.22
X147.0Y-62.16
X149.27Y-67.22
X149.33Y-131.05
X149.5Y-62.16
X150.67Y-94.98
X150.67Y-97.52
X150.67Y-100.06
X150.67Y-102.6
X150.67Y-105.14
X150.67Y-107.68
X150.67Y-110.22
X150.67Y-112.76
X150.67Y-115.3
X150.67Y-117.84
X150.67Y-120.38
X150.67Y-122.92
X154.33Y-131.05
X154.425Y-79.89
X154.43Y-77.19
X157.14Y-100.36
X157.14Y-102.86
T2
X66.61Y-92.56
X67.81Y-109.1
X69.06Y-104.0
X70.89Y-83.68
X71.52Y-91.31
X81.66Y-63.42
X83.54Y-62.14
X85.54Y-60.88
X86.24Y-106.53
X86.74Y-68.51
X86.88Y-110.35
X88.02Y-64.68
X89.29Y-57.05
X102.72Y-114.12
X104.1Y-111.52
X107.38Y-134.36
X112.99Y-106.46
X117.5Y-83.67
X118.09Y-90.16
X121.31Y-59.61
X122.68Y-134.3
X125.27Y-88.31
X125.27Y-134.31
X127.09Y-90.07
X137.3Y-91.37
X138.49Y-88.16
T3
X65.43Y-102.1
X72.93Y-102.1
X81.9Y-76.76
X89.4Y-76.76
X98.53Y-53.98
X98.53Y-76.76
X98.53Y-102.03
X106.03Y-53.98
X106.03Y-76.76
X106.03Y-102.03
X115.09Y-69.3
X122.59Y-69.3
X126.44Y-77.54
X133.94Y-77.54
X144.26Y-73.56
X151.76Y-73.56
T4
X132.2Y-86.16
X157.2Y-86.16
T5
X164.01Y-107.7
X164.01Y-117.86
T6
X159.035Y-74.99
X160.305Y-69.275
X160.305Y-80.705
T7
X166.02Y-64.195
X166.02Y-85.785
M30
