G04 #@! TF.GenerationSoftware,KiCad,Pcbnew,8.0.9*
G04 #@! TF.CreationDate,2025-03-24T20:53:25+01:00*
G04 #@! TF.ProjectId,Mindscape_Music_Board,4d696e64-7363-4617-9065-5f4d75736963,rev?*
G04 #@! TF.SameCoordinates,Original*
G04 #@! TF.FileFunction,Legend,Top*
G04 #@! TF.FilePolarity,Positive*
%FSLAX46Y46*%
G04 Gerber Fmt 4.6, Leading zero omitted, Abs format (unit mm)*
G04 Created by KiCad (PCBNEW 8.0.9) date 2025-03-24 20:53:25*
%MOMM*%
%LPD*%
G01*
G04 APERTURE LIST*
G04 Aperture macros list*
%AMRoundRect*
0 Rectangle with rounded corners*
0 $1 Rounding radius*
0 $2 $3 $4 $5 $6 $7 $8 $9 X,Y pos of 4 corners*
0 Add a 4 corners polygon primitive as box body*
4,1,4,$2,$3,$4,$5,$6,$7,$8,$9,$2,$3,0*
0 Add four circle primitives for the rounded corners*
1,1,$1+$1,$2,$3*
1,1,$1+$1,$4,$5*
1,1,$1+$1,$6,$7*
1,1,$1+$1,$8,$9*
0 Add four rect primitives between the rounded corners*
20,1,$1+$1,$2,$3,$4,$5,0*
20,1,$1+$1,$4,$5,$6,$7,0*
20,1,$1+$1,$6,$7,$8,$9,0*
20,1,$1+$1,$8,$9,$2,$3,0*%
G04 Aperture macros list end*
%ADD10C,0.000000*%
%ADD11C,0.042333*%
%ADD12C,0.500000*%
%ADD13C,0.300000*%
%ADD14C,0.200000*%
%ADD15C,0.150000*%
%ADD16C,0.120000*%
%ADD17C,1.600000*%
%ADD18R,1.600000X1.600000*%
%ADD19C,5.000000*%
%ADD20C,4.500000*%
%ADD21O,1.600000X1.600000*%
%ADD22C,1.300000*%
%ADD23RoundRect,0.065000X-0.585000X-3.235000X0.585000X-3.235000X0.585000X3.235000X-0.585000X3.235000X0*%
%ADD24C,3.200000*%
%ADD25C,1.700000*%
%ADD26C,3.000000*%
G04 APERTURE END LIST*
D10*
G36*
X75855172Y-54791280D02*
G01*
X59445860Y-54791280D01*
X59445860Y-54061582D01*
X75855172Y-54061582D01*
X75855172Y-54791280D01*
G37*
G36*
X75855172Y-65104939D02*
G01*
X59445860Y-65104939D01*
X59445860Y-64375242D01*
X75855172Y-64375242D01*
X75855172Y-65104939D01*
G37*
D11*
X67566979Y-61135253D02*
X67649451Y-61153811D01*
X67724573Y-61183303D01*
X67791476Y-61224518D01*
X67849292Y-61278244D01*
X67897153Y-61345269D01*
X67934190Y-61426383D01*
X67959534Y-61522373D01*
X67972317Y-61634029D01*
X67971671Y-61762137D01*
X67956727Y-61907487D01*
X67926616Y-62070868D01*
X67923638Y-62085446D01*
X67921441Y-62098540D01*
X67920013Y-62110202D01*
X67919339Y-62120481D01*
X67919404Y-62129428D01*
X67920194Y-62137094D01*
X67921696Y-62143530D01*
X67923895Y-62148787D01*
X67926778Y-62152915D01*
X67930329Y-62155965D01*
X67934535Y-62157988D01*
X67939381Y-62159035D01*
X67944855Y-62159155D01*
X67950940Y-62158401D01*
X67957624Y-62156823D01*
X67964892Y-62154472D01*
X67972730Y-62151397D01*
X67981124Y-62147651D01*
X67999523Y-62138346D01*
X68019975Y-62126962D01*
X68042368Y-62113905D01*
X68092524Y-62084397D01*
X68120060Y-62068758D01*
X68149084Y-62053070D01*
X68334546Y-61951361D01*
X68514053Y-61846335D01*
X68857980Y-61640737D01*
X69023787Y-61547367D01*
X69186415Y-61465083D01*
X69266754Y-61429224D01*
X69346558Y-61397486D01*
X69425914Y-61370321D01*
X69504910Y-61348178D01*
X69583630Y-61331507D01*
X69662164Y-61320758D01*
X69740596Y-61316382D01*
X69819014Y-61318828D01*
X69897504Y-61328547D01*
X69976154Y-61345989D01*
X70055050Y-61371603D01*
X70134278Y-61405840D01*
X70213926Y-61449150D01*
X70294080Y-61501984D01*
X70374827Y-61564790D01*
X70456253Y-61638020D01*
X70538446Y-61722123D01*
X70621492Y-61817550D01*
X70705477Y-61924750D01*
X70790489Y-62044173D01*
X70848931Y-62127247D01*
X70908662Y-62206240D01*
X70969963Y-62280957D01*
X71033118Y-62351202D01*
X71098408Y-62416777D01*
X71166116Y-62477486D01*
X71236525Y-62533133D01*
X71272830Y-62558997D01*
X71309916Y-62583521D01*
X71347819Y-62606682D01*
X71386573Y-62628454D01*
X71426214Y-62648814D01*
X71466778Y-62667736D01*
X71508298Y-62685196D01*
X71550812Y-62701169D01*
X71594354Y-62715631D01*
X71638959Y-62728557D01*
X71684663Y-62739923D01*
X71731501Y-62749705D01*
X71779509Y-62757877D01*
X71828721Y-62764415D01*
X71879173Y-62769294D01*
X71930900Y-62772490D01*
X71983938Y-62773979D01*
X72038321Y-62773735D01*
X72254451Y-62766288D01*
X72478653Y-62752977D01*
X72946791Y-62711403D01*
X73433773Y-62654285D01*
X73930635Y-62586894D01*
X74918144Y-62442380D01*
X75390864Y-62375800D01*
X75837611Y-62320033D01*
X75846507Y-63076428D01*
X74274910Y-63312825D01*
X73491928Y-63418322D01*
X72748605Y-63495351D01*
X72400671Y-63518503D01*
X72073277Y-63528914D01*
X71769966Y-63524708D01*
X71494280Y-63504011D01*
X71249760Y-63464947D01*
X71039950Y-63405642D01*
X70949167Y-63367813D01*
X70868390Y-63324221D01*
X70798061Y-63274631D01*
X70738623Y-63218808D01*
X70665621Y-63137931D01*
X70591687Y-63054385D01*
X70442014Y-62880864D01*
X70291598Y-62701405D01*
X70142434Y-62519167D01*
X70100706Y-62468573D01*
X70057995Y-62419826D01*
X70013654Y-62373938D01*
X69990671Y-62352382D01*
X69967037Y-62331921D01*
X69942672Y-62312680D01*
X69917495Y-62294786D01*
X69891426Y-62278367D01*
X69864383Y-62263547D01*
X69836285Y-62250454D01*
X69807052Y-62239215D01*
X69776602Y-62229955D01*
X69744855Y-62222801D01*
X69711730Y-62217880D01*
X69677146Y-62215318D01*
X69641022Y-62215242D01*
X69603278Y-62217778D01*
X69563831Y-62223053D01*
X69522602Y-62231193D01*
X69479509Y-62242325D01*
X69434472Y-62256575D01*
X69387409Y-62274070D01*
X69338241Y-62294936D01*
X69286885Y-62319299D01*
X69233261Y-62347287D01*
X69177288Y-62379026D01*
X69118886Y-62414641D01*
X69057972Y-62454261D01*
X68994468Y-62498010D01*
X68834707Y-62610641D01*
X68558450Y-62800635D01*
X68396051Y-62908899D01*
X68227827Y-63017611D01*
X68061544Y-63120473D01*
X67981557Y-63167743D01*
X67904968Y-63211189D01*
X67775324Y-63277766D01*
X67645026Y-63334751D01*
X67515780Y-63381801D01*
X67389291Y-63418575D01*
X67267266Y-63444732D01*
X67151411Y-63459930D01*
X67043431Y-63463828D01*
X66992927Y-63461433D01*
X66945032Y-63456084D01*
X66899959Y-63447740D01*
X66857921Y-63436357D01*
X66819131Y-63421893D01*
X66783803Y-63404305D01*
X66752150Y-63383550D01*
X66724384Y-63359586D01*
X66700720Y-63332370D01*
X66681370Y-63301860D01*
X66666549Y-63268012D01*
X66656468Y-63230785D01*
X66651341Y-63190134D01*
X66651382Y-63146018D01*
X66656804Y-63098395D01*
X66667819Y-63047220D01*
X66684642Y-62992452D01*
X66707485Y-62934048D01*
X67010044Y-62231045D01*
X67019111Y-62208656D01*
X67026424Y-62187725D01*
X67031987Y-62168266D01*
X67035806Y-62150294D01*
X67037887Y-62133824D01*
X67038236Y-62118871D01*
X67036859Y-62105450D01*
X67035525Y-62099318D01*
X67033761Y-62093575D01*
X67031569Y-62088222D01*
X67028949Y-62083262D01*
X67025902Y-62078695D01*
X67022428Y-62074524D01*
X67018528Y-62070752D01*
X67014203Y-62067378D01*
X67009454Y-62064407D01*
X67004281Y-62061838D01*
X66998686Y-62059675D01*
X66992668Y-62057919D01*
X66979369Y-62055635D01*
X66964389Y-62055001D01*
X66947736Y-62056033D01*
X66929414Y-62058745D01*
X66909430Y-62063152D01*
X66887789Y-62069269D01*
X66864497Y-62077110D01*
X66839559Y-62086691D01*
X66812982Y-62098026D01*
X66784772Y-62111131D01*
X66754934Y-62126019D01*
X66723473Y-62142707D01*
X66690397Y-62161208D01*
X66655710Y-62181537D01*
X66619418Y-62203710D01*
X66581527Y-62227741D01*
X66542044Y-62253646D01*
X66500973Y-62281438D01*
X66458320Y-62311133D01*
X66159088Y-62519160D01*
X65784715Y-62774474D01*
X65372282Y-63051631D01*
X64958872Y-63325188D01*
X64905196Y-63358735D01*
X64851723Y-63388964D01*
X64798616Y-63415933D01*
X64746040Y-63439697D01*
X64694157Y-63460312D01*
X64643131Y-63477835D01*
X64593127Y-63492322D01*
X64544307Y-63503828D01*
X64496835Y-63512410D01*
X64450876Y-63518125D01*
X64406592Y-63521027D01*
X64364147Y-63521175D01*
X64323705Y-63518622D01*
X64285430Y-63513427D01*
X64249485Y-63505644D01*
X64216035Y-63495331D01*
X64185241Y-63482543D01*
X64157269Y-63467336D01*
X64132282Y-63449767D01*
X64110444Y-63429891D01*
X64091917Y-63407765D01*
X64076867Y-63383445D01*
X64065456Y-63356988D01*
X64057848Y-63328448D01*
X64054207Y-63297884D01*
X64054697Y-63265349D01*
X64059481Y-63230902D01*
X64068723Y-63194597D01*
X64082586Y-63156492D01*
X64101234Y-63116641D01*
X64124831Y-63075102D01*
X64153541Y-63031931D01*
X64616277Y-62382320D01*
X64636510Y-62351289D01*
X64652250Y-62321483D01*
X64663669Y-62292915D01*
X64670940Y-62265603D01*
X64674236Y-62239560D01*
X64673728Y-62214801D01*
X64669590Y-62191341D01*
X64661994Y-62169196D01*
X64651113Y-62148380D01*
X64637119Y-62128908D01*
X64620185Y-62110796D01*
X64600483Y-62094057D01*
X64578185Y-62078708D01*
X64553465Y-62064762D01*
X64526494Y-62052235D01*
X64497446Y-62041143D01*
X64466493Y-62031499D01*
X64433807Y-62023319D01*
X64399561Y-62016617D01*
X64363927Y-62011409D01*
X64327079Y-62007710D01*
X64289188Y-62005535D01*
X64250427Y-62004898D01*
X64210969Y-62005814D01*
X64170986Y-62008299D01*
X64130650Y-62012367D01*
X64090135Y-62018034D01*
X64049612Y-62025313D01*
X64009255Y-62034221D01*
X63969235Y-62044773D01*
X63929726Y-62056982D01*
X63890899Y-62070864D01*
X59454996Y-63770532D01*
X59472793Y-62960745D01*
X60347358Y-62569844D01*
X61142321Y-62231756D01*
X61860827Y-61944394D01*
X62506023Y-61705670D01*
X63081055Y-61513498D01*
X63589067Y-61365791D01*
X64033206Y-61260461D01*
X64416618Y-61195421D01*
X64742449Y-61168584D01*
X65013844Y-61177863D01*
X65233949Y-61221171D01*
X65405910Y-61296421D01*
X65474820Y-61345372D01*
X65532873Y-61401525D01*
X65617983Y-61534397D01*
X65664387Y-61692950D01*
X65675229Y-61875095D01*
X65758537Y-61811594D01*
X65881921Y-61728757D01*
X66038434Y-61632890D01*
X66221129Y-61530303D01*
X66423056Y-61427301D01*
X66637270Y-61330193D01*
X66856821Y-61245286D01*
X67074762Y-61178886D01*
X67180958Y-61154598D01*
X67284146Y-61137303D01*
X67383458Y-61127788D01*
X67478025Y-61126842D01*
X67566979Y-61135253D01*
G36*
X67566979Y-61135253D02*
G01*
X67649451Y-61153811D01*
X67724573Y-61183303D01*
X67791476Y-61224518D01*
X67849292Y-61278244D01*
X67897153Y-61345269D01*
X67934190Y-61426383D01*
X67959534Y-61522373D01*
X67972317Y-61634029D01*
X67971671Y-61762137D01*
X67956727Y-61907487D01*
X67926616Y-62070868D01*
X67923638Y-62085446D01*
X67921441Y-62098540D01*
X67920013Y-62110202D01*
X67919339Y-62120481D01*
X67919404Y-62129428D01*
X67920194Y-62137094D01*
X67921696Y-62143530D01*
X67923895Y-62148787D01*
X67926778Y-62152915D01*
X67930329Y-62155965D01*
X67934535Y-62157988D01*
X67939381Y-62159035D01*
X67944855Y-62159155D01*
X67950940Y-62158401D01*
X67957624Y-62156823D01*
X67964892Y-62154472D01*
X67972730Y-62151397D01*
X67981124Y-62147651D01*
X67999523Y-62138346D01*
X68019975Y-62126962D01*
X68042368Y-62113905D01*
X68092524Y-62084397D01*
X68120060Y-62068758D01*
X68149084Y-62053070D01*
X68334546Y-61951361D01*
X68514053Y-61846335D01*
X68857980Y-61640737D01*
X69023787Y-61547367D01*
X69186415Y-61465083D01*
X69266754Y-61429224D01*
X69346558Y-61397486D01*
X69425914Y-61370321D01*
X69504910Y-61348178D01*
X69583630Y-61331507D01*
X69662164Y-61320758D01*
X69740596Y-61316382D01*
X69819014Y-61318828D01*
X69897504Y-61328547D01*
X69976154Y-61345989D01*
X70055050Y-61371603D01*
X70134278Y-61405840D01*
X70213926Y-61449150D01*
X70294080Y-61501984D01*
X70374827Y-61564790D01*
X70456253Y-61638020D01*
X70538446Y-61722123D01*
X70621492Y-61817550D01*
X70705477Y-61924750D01*
X70790489Y-62044173D01*
X70848931Y-62127247D01*
X70908662Y-62206240D01*
X70969963Y-62280957D01*
X71033118Y-62351202D01*
X71098408Y-62416777D01*
X71166116Y-62477486D01*
X71236525Y-62533133D01*
X71272830Y-62558997D01*
X71309916Y-62583521D01*
X71347819Y-62606682D01*
X71386573Y-62628454D01*
X71426214Y-62648814D01*
X71466778Y-62667736D01*
X71508298Y-62685196D01*
X71550812Y-62701169D01*
X71594354Y-62715631D01*
X71638959Y-62728557D01*
X71684663Y-62739923D01*
X71731501Y-62749705D01*
X71779509Y-62757877D01*
X71828721Y-62764415D01*
X71879173Y-62769294D01*
X71930900Y-62772490D01*
X71983938Y-62773979D01*
X72038321Y-62773735D01*
X72254451Y-62766288D01*
X72478653Y-62752977D01*
X72946791Y-62711403D01*
X73433773Y-62654285D01*
X73930635Y-62586894D01*
X74918144Y-62442380D01*
X75390864Y-62375800D01*
X75837611Y-62320033D01*
X75846507Y-63076428D01*
X74274910Y-63312825D01*
X73491928Y-63418322D01*
X72748605Y-63495351D01*
X72400671Y-63518503D01*
X72073277Y-63528914D01*
X71769966Y-63524708D01*
X71494280Y-63504011D01*
X71249760Y-63464947D01*
X71039950Y-63405642D01*
X70949167Y-63367813D01*
X70868390Y-63324221D01*
X70798061Y-63274631D01*
X70738623Y-63218808D01*
X70665621Y-63137931D01*
X70591687Y-63054385D01*
X70442014Y-62880864D01*
X70291598Y-62701405D01*
X70142434Y-62519167D01*
X70100706Y-62468573D01*
X70057995Y-62419826D01*
X70013654Y-62373938D01*
X69990671Y-62352382D01*
X69967037Y-62331921D01*
X69942672Y-62312680D01*
X69917495Y-62294786D01*
X69891426Y-62278367D01*
X69864383Y-62263547D01*
X69836285Y-62250454D01*
X69807052Y-62239215D01*
X69776602Y-62229955D01*
X69744855Y-62222801D01*
X69711730Y-62217880D01*
X69677146Y-62215318D01*
X69641022Y-62215242D01*
X69603278Y-62217778D01*
X69563831Y-62223053D01*
X69522602Y-62231193D01*
X69479509Y-62242325D01*
X69434472Y-62256575D01*
X69387409Y-62274070D01*
X69338241Y-62294936D01*
X69286885Y-62319299D01*
X69233261Y-62347287D01*
X69177288Y-62379026D01*
X69118886Y-62414641D01*
X69057972Y-62454261D01*
X68994468Y-62498010D01*
X68834707Y-62610641D01*
X68558450Y-62800635D01*
X68396051Y-62908899D01*
X68227827Y-63017611D01*
X68061544Y-63120473D01*
X67981557Y-63167743D01*
X67904968Y-63211189D01*
X67775324Y-63277766D01*
X67645026Y-63334751D01*
X67515780Y-63381801D01*
X67389291Y-63418575D01*
X67267266Y-63444732D01*
X67151411Y-63459930D01*
X67043431Y-63463828D01*
X66992927Y-63461433D01*
X66945032Y-63456084D01*
X66899959Y-63447740D01*
X66857921Y-63436357D01*
X66819131Y-63421893D01*
X66783803Y-63404305D01*
X66752150Y-63383550D01*
X66724384Y-63359586D01*
X66700720Y-63332370D01*
X66681370Y-63301860D01*
X66666549Y-63268012D01*
X66656468Y-63230785D01*
X66651341Y-63190134D01*
X66651382Y-63146018D01*
X66656804Y-63098395D01*
X66667819Y-63047220D01*
X66684642Y-62992452D01*
X66707485Y-62934048D01*
X67010044Y-62231045D01*
X67019111Y-62208656D01*
X67026424Y-62187725D01*
X67031987Y-62168266D01*
X67035806Y-62150294D01*
X67037887Y-62133824D01*
X67038236Y-62118871D01*
X67036859Y-62105450D01*
X67035525Y-62099318D01*
X67033761Y-62093575D01*
X67031569Y-62088222D01*
X67028949Y-62083262D01*
X67025902Y-62078695D01*
X67022428Y-62074524D01*
X67018528Y-62070752D01*
X67014203Y-62067378D01*
X67009454Y-62064407D01*
X67004281Y-62061838D01*
X66998686Y-62059675D01*
X66992668Y-62057919D01*
X66979369Y-62055635D01*
X66964389Y-62055001D01*
X66947736Y-62056033D01*
X66929414Y-62058745D01*
X66909430Y-62063152D01*
X66887789Y-62069269D01*
X66864497Y-62077110D01*
X66839559Y-62086691D01*
X66812982Y-62098026D01*
X66784772Y-62111131D01*
X66754934Y-62126019D01*
X66723473Y-62142707D01*
X66690397Y-62161208D01*
X66655710Y-62181537D01*
X66619418Y-62203710D01*
X66581527Y-62227741D01*
X66542044Y-62253646D01*
X66500973Y-62281438D01*
X66458320Y-62311133D01*
X66159088Y-62519160D01*
X65784715Y-62774474D01*
X65372282Y-63051631D01*
X64958872Y-63325188D01*
X64905196Y-63358735D01*
X64851723Y-63388964D01*
X64798616Y-63415933D01*
X64746040Y-63439697D01*
X64694157Y-63460312D01*
X64643131Y-63477835D01*
X64593127Y-63492322D01*
X64544307Y-63503828D01*
X64496835Y-63512410D01*
X64450876Y-63518125D01*
X64406592Y-63521027D01*
X64364147Y-63521175D01*
X64323705Y-63518622D01*
X64285430Y-63513427D01*
X64249485Y-63505644D01*
X64216035Y-63495331D01*
X64185241Y-63482543D01*
X64157269Y-63467336D01*
X64132282Y-63449767D01*
X64110444Y-63429891D01*
X64091917Y-63407765D01*
X64076867Y-63383445D01*
X64065456Y-63356988D01*
X64057848Y-63328448D01*
X64054207Y-63297884D01*
X64054697Y-63265349D01*
X64059481Y-63230902D01*
X64068723Y-63194597D01*
X64082586Y-63156492D01*
X64101234Y-63116641D01*
X64124831Y-63075102D01*
X64153541Y-63031931D01*
X64616277Y-62382320D01*
X64636510Y-62351289D01*
X64652250Y-62321483D01*
X64663669Y-62292915D01*
X64670940Y-62265603D01*
X64674236Y-62239560D01*
X64673728Y-62214801D01*
X64669590Y-62191341D01*
X64661994Y-62169196D01*
X64651113Y-62148380D01*
X64637119Y-62128908D01*
X64620185Y-62110796D01*
X64600483Y-62094057D01*
X64578185Y-62078708D01*
X64553465Y-62064762D01*
X64526494Y-62052235D01*
X64497446Y-62041143D01*
X64466493Y-62031499D01*
X64433807Y-62023319D01*
X64399561Y-62016617D01*
X64363927Y-62011409D01*
X64327079Y-62007710D01*
X64289188Y-62005535D01*
X64250427Y-62004898D01*
X64210969Y-62005814D01*
X64170986Y-62008299D01*
X64130650Y-62012367D01*
X64090135Y-62018034D01*
X64049612Y-62025313D01*
X64009255Y-62034221D01*
X63969235Y-62044773D01*
X63929726Y-62056982D01*
X63890899Y-62070864D01*
X59454996Y-63770532D01*
X59472793Y-62960745D01*
X60347358Y-62569844D01*
X61142321Y-62231756D01*
X61860827Y-61944394D01*
X62506023Y-61705670D01*
X63081055Y-61513498D01*
X63589067Y-61365791D01*
X64033206Y-61260461D01*
X64416618Y-61195421D01*
X64742449Y-61168584D01*
X65013844Y-61177863D01*
X65233949Y-61221171D01*
X65405910Y-61296421D01*
X65474820Y-61345372D01*
X65532873Y-61401525D01*
X65617983Y-61534397D01*
X65664387Y-61692950D01*
X65675229Y-61875095D01*
X65758537Y-61811594D01*
X65881921Y-61728757D01*
X66038434Y-61632890D01*
X66221129Y-61530303D01*
X66423056Y-61427301D01*
X66637270Y-61330193D01*
X66856821Y-61245286D01*
X67074762Y-61178886D01*
X67180958Y-61154598D01*
X67284146Y-61137303D01*
X67383458Y-61127788D01*
X67478025Y-61126842D01*
X67566979Y-61135253D01*
G37*
D10*
G36*
X72220807Y-67539653D02*
G01*
X72017999Y-67539653D01*
X71879381Y-67094512D01*
X71338867Y-67094512D01*
X71190947Y-67539653D01*
X71001163Y-67539653D01*
X71211992Y-66930620D01*
X71391897Y-66930620D01*
X71819842Y-66930620D01*
X71612380Y-66274036D01*
X71391897Y-66930620D01*
X71211992Y-66930620D01*
X71515630Y-66053486D01*
X71724951Y-66053486D01*
X72220807Y-67539653D01*
G37*
G36*
X73745261Y-66053925D02*
G01*
X73765310Y-66055241D01*
X73784854Y-66057434D01*
X73803894Y-66060505D01*
X73822430Y-66064453D01*
X73840462Y-66069278D01*
X73857990Y-66074980D01*
X73875014Y-66081560D01*
X73891533Y-66089017D01*
X73907548Y-66097351D01*
X73923059Y-66106563D01*
X73938066Y-66116652D01*
X73952568Y-66127618D01*
X73966566Y-66139462D01*
X73980061Y-66152183D01*
X73993050Y-66165781D01*
X74005390Y-66180048D01*
X74016934Y-66195026D01*
X74027681Y-66210715D01*
X74037632Y-66227116D01*
X74046788Y-66244227D01*
X74055147Y-66262051D01*
X74062710Y-66280585D01*
X74069477Y-66299831D01*
X74075448Y-66319788D01*
X74080622Y-66340457D01*
X74085001Y-66361837D01*
X74088583Y-66383928D01*
X74091370Y-66406731D01*
X74093360Y-66430245D01*
X74094554Y-66454470D01*
X74094952Y-66479407D01*
X74094597Y-66500984D01*
X74093533Y-66522213D01*
X74091758Y-66543095D01*
X74089274Y-66563629D01*
X74086079Y-66583815D01*
X74082175Y-66603654D01*
X74077561Y-66623145D01*
X74072237Y-66642288D01*
X74066204Y-66661083D01*
X74059460Y-66679531D01*
X74052007Y-66697630D01*
X74043843Y-66715382D01*
X74034970Y-66732787D01*
X74025387Y-66749843D01*
X74015093Y-66766552D01*
X74004090Y-66782913D01*
X73992351Y-66798471D01*
X73986195Y-66805874D01*
X73979848Y-66813025D01*
X73973311Y-66819926D01*
X73966583Y-66826576D01*
X73959664Y-66832975D01*
X73952555Y-66839124D01*
X73945254Y-66845021D01*
X73937763Y-66850667D01*
X73930081Y-66856062D01*
X73922209Y-66861207D01*
X73914146Y-66866100D01*
X73905892Y-66870743D01*
X73897447Y-66875134D01*
X73888811Y-66879275D01*
X73870968Y-66886803D01*
X73852362Y-66893328D01*
X73832993Y-66898849D01*
X73812862Y-66903366D01*
X73791967Y-66906879D01*
X73770309Y-66909389D01*
X73747889Y-66910894D01*
X73724706Y-66911396D01*
X73332374Y-66911396D01*
X73332374Y-67539653D01*
X73163385Y-67539653D01*
X73163386Y-66741433D01*
X73163387Y-66226484D01*
X73332377Y-66226484D01*
X73332377Y-66741433D01*
X73668661Y-66741433D01*
X73682715Y-66741208D01*
X73696431Y-66740532D01*
X73709809Y-66739406D01*
X73722849Y-66737829D01*
X73735550Y-66735802D01*
X73747913Y-66733324D01*
X73759938Y-66730396D01*
X73771624Y-66727017D01*
X73782972Y-66723187D01*
X73793982Y-66718908D01*
X73804653Y-66714177D01*
X73814987Y-66708996D01*
X73824981Y-66703365D01*
X73834638Y-66697283D01*
X73843956Y-66690750D01*
X73852936Y-66683767D01*
X73857324Y-66680077D01*
X73861573Y-66676214D01*
X73865683Y-66672180D01*
X73869654Y-66667974D01*
X73873485Y-66663596D01*
X73877177Y-66659046D01*
X73880729Y-66654325D01*
X73884143Y-66649431D01*
X73890551Y-66639128D01*
X73896403Y-66628138D01*
X73901697Y-66616460D01*
X73906434Y-66604094D01*
X73910613Y-66591041D01*
X73914235Y-66577300D01*
X73917300Y-66562872D01*
X73919808Y-66547756D01*
X73921758Y-66531953D01*
X73923152Y-66515462D01*
X73923988Y-66498283D01*
X73924266Y-66480419D01*
X73923868Y-66460344D01*
X73922674Y-66441090D01*
X73920684Y-66422659D01*
X73917897Y-66405049D01*
X73914315Y-66388261D01*
X73909936Y-66372296D01*
X73904762Y-66357152D01*
X73898791Y-66342830D01*
X73892024Y-66329331D01*
X73884461Y-66316653D01*
X73876102Y-66304797D01*
X73866946Y-66293764D01*
X73856995Y-66283552D01*
X73846248Y-66274162D01*
X73834704Y-66265595D01*
X73822364Y-66257849D01*
X73815196Y-66254051D01*
X73807702Y-66250498D01*
X73799884Y-66247190D01*
X73791740Y-66244127D01*
X73783271Y-66241309D01*
X73774477Y-66238736D01*
X73765359Y-66236408D01*
X73755915Y-66234325D01*
X73746146Y-66232487D01*
X73736052Y-66230895D01*
X73725633Y-66229547D01*
X73714889Y-66228444D01*
X73703819Y-66227587D01*
X73692425Y-66226974D01*
X73680705Y-66226607D01*
X73668661Y-66226484D01*
X73332377Y-66226484D01*
X73163387Y-66226484D01*
X73163387Y-66053486D01*
X73724708Y-66053486D01*
X73745261Y-66053925D01*
G37*
G36*
X62229375Y-67539653D02*
G01*
X62042380Y-67539653D01*
X62042380Y-66053486D01*
X62229375Y-66053486D01*
X62229375Y-67539653D01*
G37*
G36*
X67797932Y-66016495D02*
G01*
X67819768Y-66017823D01*
X67841178Y-66020036D01*
X67862163Y-66023134D01*
X67882722Y-66027117D01*
X67902856Y-66031986D01*
X67922564Y-66037740D01*
X67941846Y-66044379D01*
X67960702Y-66051903D01*
X67979133Y-66060313D01*
X67997138Y-66069608D01*
X68014718Y-66079788D01*
X68031872Y-66090853D01*
X68048600Y-66102803D01*
X68064903Y-66115639D01*
X68080780Y-66129360D01*
X68096048Y-66143927D01*
X68110332Y-66159552D01*
X68123630Y-66176237D01*
X68135944Y-66193981D01*
X68147272Y-66212784D01*
X68157615Y-66232646D01*
X68166973Y-66253568D01*
X68175346Y-66275548D01*
X68182734Y-66298588D01*
X68189137Y-66322686D01*
X68194555Y-66347844D01*
X68198988Y-66374061D01*
X68202436Y-66401338D01*
X68204899Y-66429673D01*
X68206376Y-66459068D01*
X68206869Y-66489521D01*
X68061319Y-66489521D01*
X68057987Y-66460546D01*
X68053827Y-66433309D01*
X68051438Y-66420343D01*
X68048841Y-66407811D01*
X68046038Y-66395714D01*
X68043028Y-66384052D01*
X68039811Y-66372825D01*
X68036388Y-66362032D01*
X68032758Y-66351675D01*
X68028921Y-66341752D01*
X68024877Y-66332263D01*
X68020627Y-66323209D01*
X68016170Y-66314590D01*
X68011506Y-66306406D01*
X68006983Y-66299248D01*
X68002266Y-66292318D01*
X67997357Y-66285615D01*
X67992254Y-66279139D01*
X67986959Y-66272890D01*
X67981470Y-66266868D01*
X67975789Y-66261074D01*
X67969914Y-66255507D01*
X67963846Y-66250167D01*
X67957585Y-66245054D01*
X67951131Y-66240168D01*
X67944484Y-66235510D01*
X67937644Y-66231079D01*
X67930611Y-66226875D01*
X67923385Y-66222899D01*
X67915965Y-66219149D01*
X67908353Y-66215627D01*
X67900547Y-66212332D01*
X67892549Y-66209265D01*
X67884357Y-66206424D01*
X67875973Y-66203811D01*
X67867395Y-66201425D01*
X67858624Y-66199266D01*
X67849661Y-66197335D01*
X67840504Y-66195631D01*
X67831154Y-66194154D01*
X67811875Y-66191881D01*
X67791823Y-66190518D01*
X67771000Y-66190063D01*
X67754177Y-66190356D01*
X67737957Y-66191233D01*
X67722339Y-66192695D01*
X67707322Y-66194742D01*
X67692908Y-66197374D01*
X67679095Y-66200591D01*
X67665885Y-66204392D01*
X67653277Y-66208779D01*
X67641270Y-66213750D01*
X67629866Y-66219306D01*
X67619064Y-66225448D01*
X67608863Y-66232174D01*
X67599265Y-66239485D01*
X67590268Y-66247380D01*
X67581874Y-66255861D01*
X67574082Y-66264927D01*
X67566824Y-66274379D01*
X67560035Y-66284021D01*
X67553714Y-66293854D01*
X67547861Y-66303875D01*
X67542477Y-66314087D01*
X67537560Y-66324488D01*
X67533112Y-66335079D01*
X67529132Y-66345860D01*
X67525621Y-66356831D01*
X67522577Y-66367991D01*
X67520002Y-66379341D01*
X67517895Y-66390880D01*
X67516256Y-66402610D01*
X67515085Y-66414529D01*
X67514383Y-66426637D01*
X67514149Y-66438935D01*
X67514423Y-66452364D01*
X67515244Y-66465334D01*
X67516612Y-66477846D01*
X67518527Y-66489899D01*
X67520990Y-66501494D01*
X67524000Y-66512630D01*
X67527557Y-66523308D01*
X67531661Y-66533528D01*
X67536313Y-66543289D01*
X67541512Y-66552592D01*
X67547258Y-66561436D01*
X67553552Y-66569822D01*
X67560393Y-66577750D01*
X67567781Y-66585219D01*
X67575716Y-66592229D01*
X67584199Y-66598782D01*
X67590392Y-66602892D01*
X67597492Y-66607128D01*
X67605497Y-66611491D01*
X67614409Y-66615980D01*
X67624226Y-66620596D01*
X67634950Y-66625338D01*
X67646579Y-66630207D01*
X67659115Y-66635203D01*
X67686904Y-66645572D01*
X67718317Y-66656448D01*
X67753354Y-66667830D01*
X67792015Y-66679717D01*
X67952353Y-66727266D01*
X67966643Y-66731664D01*
X67980519Y-66736260D01*
X67993982Y-66741054D01*
X68007031Y-66746045D01*
X68019667Y-66751234D01*
X68031889Y-66756620D01*
X68043698Y-66762204D01*
X68055094Y-66767985D01*
X68066076Y-66773965D01*
X68076644Y-66780141D01*
X68086799Y-66786516D01*
X68096540Y-66793088D01*
X68105868Y-66799857D01*
X68114782Y-66806825D01*
X68123283Y-66813990D01*
X68131371Y-66821352D01*
X68144566Y-66834746D01*
X68156910Y-66848874D01*
X68168403Y-66863737D01*
X68179044Y-66879335D01*
X68188834Y-66895668D01*
X68197773Y-66912737D01*
X68205861Y-66930540D01*
X68213097Y-66949078D01*
X68219482Y-66968352D01*
X68225015Y-66988360D01*
X68229698Y-67009104D01*
X68233529Y-67030582D01*
X68236508Y-67052796D01*
X68238637Y-67075745D01*
X68239914Y-67099429D01*
X68240339Y-67123848D01*
X68239798Y-67154154D01*
X68238174Y-67183363D01*
X68235468Y-67211472D01*
X68231680Y-67238483D01*
X68226809Y-67264396D01*
X68220856Y-67289210D01*
X68213821Y-67312925D01*
X68205703Y-67335542D01*
X68196503Y-67357060D01*
X68186220Y-67377479D01*
X68174855Y-67396800D01*
X68162408Y-67415022D01*
X68148879Y-67432146D01*
X68134267Y-67448170D01*
X68118572Y-67463096D01*
X68101795Y-67476924D01*
X68084398Y-67489787D01*
X68066648Y-67501821D01*
X68048546Y-67513024D01*
X68030091Y-67523398D01*
X68011283Y-67532942D01*
X67992122Y-67541656D01*
X67972609Y-67549540D01*
X67952743Y-67556594D01*
X67932525Y-67562819D01*
X67911953Y-67568213D01*
X67891030Y-67572778D01*
X67869753Y-67576512D01*
X67848124Y-67579417D01*
X67826142Y-67581492D01*
X67803808Y-67582737D01*
X67781120Y-67583152D01*
X67754824Y-67582598D01*
X67729252Y-67580939D01*
X67704403Y-67578172D01*
X67680278Y-67574300D01*
X67656876Y-67569320D01*
X67634198Y-67563234D01*
X67612243Y-67556042D01*
X67591012Y-67547743D01*
X67570505Y-67538337D01*
X67550721Y-67527825D01*
X67531661Y-67516207D01*
X67513324Y-67503482D01*
X67495711Y-67489650D01*
X67478822Y-67474712D01*
X67462656Y-67458667D01*
X67447214Y-67441516D01*
X67432614Y-67423547D01*
X67418975Y-67404795D01*
X67406297Y-67385260D01*
X67394580Y-67364944D01*
X67383823Y-67343844D01*
X67374027Y-67321963D01*
X67365191Y-67299299D01*
X67357317Y-67275852D01*
X67350403Y-67251623D01*
X67344450Y-67226611D01*
X67339458Y-67200818D01*
X67335426Y-67174241D01*
X67332355Y-67146883D01*
X67330245Y-67118742D01*
X67329096Y-67089818D01*
X67328907Y-67060112D01*
X67474455Y-67060117D01*
X67476364Y-67090989D01*
X67477729Y-67105868D01*
X67479368Y-67120375D01*
X67481280Y-67134511D01*
X67483466Y-67148276D01*
X67485925Y-67161668D01*
X67488659Y-67174690D01*
X67491666Y-67187340D01*
X67494946Y-67199618D01*
X67498501Y-67211525D01*
X67502329Y-67223061D01*
X67506430Y-67234225D01*
X67510805Y-67245017D01*
X67515454Y-67255439D01*
X67520377Y-67265488D01*
X67525308Y-67274575D01*
X67530468Y-67283374D01*
X67535858Y-67291885D01*
X67541477Y-67300106D01*
X67547326Y-67308040D01*
X67553405Y-67315685D01*
X67559713Y-67323041D01*
X67566250Y-67330109D01*
X67573018Y-67336888D01*
X67580014Y-67343379D01*
X67587240Y-67349582D01*
X67594696Y-67355496D01*
X67602382Y-67361121D01*
X67610296Y-67366458D01*
X67618441Y-67371507D01*
X67626815Y-67376267D01*
X67635418Y-67380738D01*
X67644251Y-67384921D01*
X67653314Y-67388816D01*
X67662606Y-67392422D01*
X67672128Y-67395740D01*
X67681879Y-67398769D01*
X67691860Y-67401509D01*
X67702070Y-67403962D01*
X67712510Y-67406125D01*
X67723179Y-67408000D01*
X67734078Y-67409587D01*
X67745207Y-67410885D01*
X67756565Y-67411895D01*
X67768152Y-67412616D01*
X67792016Y-67413193D01*
X67802852Y-67413067D01*
X67813567Y-67412687D01*
X67824160Y-67412055D01*
X67834631Y-67411170D01*
X67844980Y-67410031D01*
X67855208Y-67408640D01*
X67865314Y-67406996D01*
X67875299Y-67405099D01*
X67885162Y-67402949D01*
X67894903Y-67400546D01*
X67904523Y-67397890D01*
X67914021Y-67394981D01*
X67923397Y-67391820D01*
X67932652Y-67388405D01*
X67941785Y-67384738D01*
X67950797Y-67380818D01*
X67959321Y-67376801D01*
X67967574Y-67372590D01*
X67975556Y-67368186D01*
X67983268Y-67363588D01*
X67990709Y-67358796D01*
X67997880Y-67353811D01*
X68004780Y-67348632D01*
X68011409Y-67343259D01*
X68017768Y-67337693D01*
X68023857Y-67331933D01*
X68029674Y-67325980D01*
X68035221Y-67319832D01*
X68040498Y-67313492D01*
X68045504Y-67306957D01*
X68050239Y-67300229D01*
X68054704Y-67293307D01*
X68058898Y-67286192D01*
X68062822Y-67278883D01*
X68066475Y-67271380D01*
X68069857Y-67263684D01*
X68072969Y-67255794D01*
X68075810Y-67247710D01*
X68078381Y-67239433D01*
X68080681Y-67230962D01*
X68082710Y-67222298D01*
X68084469Y-67213439D01*
X68085957Y-67204387D01*
X68087175Y-67195142D01*
X68088122Y-67185703D01*
X68088798Y-67176070D01*
X68089339Y-67156223D01*
X68089111Y-67141320D01*
X68088427Y-67126963D01*
X68087287Y-67113151D01*
X68085691Y-67099885D01*
X68083639Y-67087164D01*
X68081131Y-67074988D01*
X68078166Y-67063357D01*
X68074746Y-67052272D01*
X68070870Y-67041733D01*
X68066537Y-67031738D01*
X68061749Y-67022289D01*
X68056504Y-67013386D01*
X68050803Y-67005027D01*
X68044647Y-66997215D01*
X68038034Y-66989947D01*
X68030965Y-66983225D01*
X68023310Y-66976953D01*
X68015131Y-66970784D01*
X68006429Y-66964718D01*
X67997205Y-66958754D01*
X67987457Y-66952894D01*
X67977187Y-66947136D01*
X67966394Y-66941480D01*
X67955077Y-66935928D01*
X67943238Y-66930478D01*
X67930876Y-66925131D01*
X67917990Y-66919887D01*
X67904582Y-66914745D01*
X67890651Y-66909707D01*
X67876197Y-66904771D01*
X67861220Y-66899938D01*
X67845720Y-66895207D01*
X67690832Y-66849683D01*
X67654275Y-66838412D01*
X67620490Y-66826857D01*
X67589478Y-66815017D01*
X67561239Y-66802893D01*
X67548159Y-66796724D01*
X67535772Y-66790484D01*
X67524079Y-66784173D01*
X67513078Y-66777790D01*
X67502771Y-66771336D01*
X67493157Y-66764811D01*
X67484237Y-66758215D01*
X67476009Y-66751548D01*
X67462814Y-66739554D01*
X67450470Y-66726840D01*
X67438978Y-66713408D01*
X67428337Y-66699256D01*
X67418547Y-66684385D01*
X67409608Y-66668795D01*
X67401521Y-66652486D01*
X67394285Y-66635457D01*
X67387900Y-66617709D01*
X67382367Y-66599242D01*
X67377685Y-66580056D01*
X67373854Y-66560151D01*
X67370874Y-66539526D01*
X67368746Y-66518182D01*
X67367469Y-66496119D01*
X67367043Y-66473337D01*
X67367460Y-66448579D01*
X67368709Y-66424381D01*
X67370792Y-66400745D01*
X67373708Y-66377670D01*
X67377457Y-66355156D01*
X67382039Y-66333203D01*
X67387454Y-66311811D01*
X67393702Y-66290980D01*
X67400783Y-66270711D01*
X67408697Y-66251003D01*
X67417444Y-66231855D01*
X67427025Y-66213269D01*
X67437438Y-66195244D01*
X67448684Y-66177780D01*
X67460764Y-66160878D01*
X67473677Y-66144536D01*
X67487352Y-66128978D01*
X67501721Y-66114423D01*
X67516783Y-66100872D01*
X67532538Y-66088325D01*
X67548986Y-66076782D01*
X67566128Y-66066242D01*
X67583963Y-66056706D01*
X67602491Y-66048174D01*
X67621712Y-66040645D01*
X67641626Y-66034121D01*
X67662234Y-66028600D01*
X67683535Y-66024083D01*
X67705529Y-66020569D01*
X67728216Y-66018060D01*
X67751596Y-66016554D01*
X67775670Y-66016052D01*
X67797932Y-66016495D01*
G37*
D11*
X67566978Y-55600224D02*
X67649450Y-55618781D01*
X67724572Y-55648273D01*
X67791475Y-55689488D01*
X67849291Y-55743214D01*
X67897152Y-55810240D01*
X67934188Y-55891354D01*
X67959533Y-55987344D01*
X67972316Y-56098999D01*
X67971669Y-56227108D01*
X67956725Y-56372458D01*
X67926615Y-56535839D01*
X67923636Y-56550417D01*
X67921440Y-56563511D01*
X67920012Y-56575172D01*
X67919337Y-56585451D01*
X67919402Y-56594398D01*
X67920193Y-56602065D01*
X67921695Y-56608501D01*
X67923894Y-56613758D01*
X67926776Y-56617886D01*
X67930328Y-56620936D01*
X67934534Y-56622959D01*
X67939380Y-56624005D01*
X67944854Y-56624126D01*
X67950939Y-56623372D01*
X67957623Y-56621794D01*
X67964891Y-56619442D01*
X67972729Y-56616368D01*
X67981123Y-56612622D01*
X67999522Y-56603316D01*
X68019974Y-56591932D01*
X68042367Y-56578876D01*
X68092522Y-56549368D01*
X68120059Y-56533729D01*
X68149083Y-56518041D01*
X68334545Y-56416332D01*
X68514052Y-56311306D01*
X68857979Y-56105708D01*
X69023786Y-56012338D01*
X69186414Y-55930054D01*
X69266753Y-55894194D01*
X69346557Y-55862457D01*
X69425913Y-55835292D01*
X69504908Y-55813149D01*
X69583629Y-55796478D01*
X69662162Y-55785729D01*
X69740594Y-55781353D01*
X69819012Y-55783799D01*
X69897503Y-55793518D01*
X69976153Y-55810959D01*
X70055048Y-55836574D01*
X70134277Y-55870811D01*
X70213924Y-55914121D01*
X70294078Y-55966954D01*
X70374825Y-56029761D01*
X70456252Y-56102991D01*
X70538444Y-56187094D01*
X70621490Y-56282520D01*
X70705476Y-56389720D01*
X70790488Y-56509144D01*
X70848930Y-56592217D01*
X70908661Y-56671211D01*
X70969962Y-56745928D01*
X71033116Y-56816172D01*
X71098407Y-56881747D01*
X71166115Y-56942456D01*
X71236523Y-56998103D01*
X71272829Y-57023967D01*
X71309915Y-57048491D01*
X71347817Y-57071652D01*
X71386572Y-57093424D01*
X71426213Y-57113783D01*
X71466776Y-57132705D01*
X71508297Y-57150165D01*
X71550811Y-57166138D01*
X71594352Y-57180601D01*
X71638958Y-57193527D01*
X71684662Y-57204893D01*
X71731500Y-57214675D01*
X71779507Y-57222847D01*
X71828719Y-57229385D01*
X71879171Y-57234264D01*
X71930898Y-57237460D01*
X71983935Y-57238949D01*
X72038319Y-57238706D01*
X72254449Y-57231258D01*
X72478651Y-57217948D01*
X72946790Y-57176374D01*
X73433772Y-57119256D01*
X73930633Y-57051865D01*
X74918141Y-56907351D01*
X75390862Y-56840771D01*
X75837608Y-56785005D01*
X75846505Y-57541399D01*
X74274908Y-57777796D01*
X73491926Y-57883293D01*
X72748603Y-57960322D01*
X72400668Y-57983474D01*
X72073274Y-57993885D01*
X71769964Y-57989679D01*
X71494277Y-57968982D01*
X71249758Y-57929918D01*
X71039947Y-57870613D01*
X70949165Y-57832784D01*
X70868388Y-57789192D01*
X70798059Y-57739601D01*
X70738620Y-57683779D01*
X70665619Y-57602902D01*
X70591684Y-57519356D01*
X70442011Y-57345835D01*
X70291596Y-57166376D01*
X70142431Y-56984138D01*
X70100703Y-56933544D01*
X70057992Y-56884797D01*
X70013652Y-56838909D01*
X69990668Y-56817354D01*
X69967034Y-56796892D01*
X69942670Y-56777651D01*
X69917493Y-56759758D01*
X69891423Y-56743338D01*
X69864380Y-56728519D01*
X69836283Y-56715426D01*
X69807049Y-56704186D01*
X69776600Y-56694926D01*
X69744853Y-56687773D01*
X69711728Y-56682852D01*
X69677144Y-56680290D01*
X69641020Y-56680214D01*
X69603275Y-56682750D01*
X69563829Y-56688025D01*
X69522599Y-56696165D01*
X69479507Y-56707297D01*
X69434469Y-56721546D01*
X69387407Y-56739041D01*
X69338238Y-56759907D01*
X69286882Y-56784270D01*
X69233258Y-56812258D01*
X69177286Y-56843997D01*
X69118883Y-56879612D01*
X69057970Y-56919231D01*
X68994465Y-56962981D01*
X68834705Y-57075612D01*
X68558448Y-57265605D01*
X68396048Y-57373869D01*
X68227824Y-57482581D01*
X68061541Y-57585444D01*
X67981555Y-57632714D01*
X67904966Y-57676160D01*
X67775322Y-57742737D01*
X67645024Y-57799721D01*
X67515778Y-57846771D01*
X67389289Y-57883546D01*
X67267264Y-57909703D01*
X67151408Y-57924901D01*
X67043428Y-57928798D01*
X66992925Y-57926403D01*
X66945030Y-57921054D01*
X66899957Y-57912710D01*
X66857919Y-57901327D01*
X66819129Y-57886863D01*
X66783801Y-57869275D01*
X66752147Y-57848521D01*
X66724382Y-57824557D01*
X66700718Y-57797341D01*
X66681368Y-57766831D01*
X66666546Y-57732983D01*
X66656465Y-57695755D01*
X66651339Y-57655105D01*
X66651380Y-57610989D01*
X66656801Y-57563365D01*
X66667817Y-57512191D01*
X66684640Y-57457423D01*
X66707483Y-57399018D01*
X67010041Y-56696017D01*
X67019109Y-56673628D01*
X67026421Y-56652697D01*
X67031984Y-56633238D01*
X67035803Y-56615266D01*
X67037885Y-56598796D01*
X67038234Y-56583843D01*
X67036857Y-56570422D01*
X67035522Y-56564290D01*
X67033759Y-56558547D01*
X67031567Y-56553194D01*
X67028946Y-56548233D01*
X67025899Y-56543667D01*
X67022425Y-56539496D01*
X67018525Y-56535723D01*
X67014201Y-56532350D01*
X67009451Y-56529378D01*
X67004279Y-56526810D01*
X66998683Y-56524647D01*
X66992665Y-56522891D01*
X66979366Y-56520607D01*
X66964387Y-56519973D01*
X66947734Y-56521005D01*
X66929412Y-56523717D01*
X66909428Y-56528124D01*
X66887786Y-56534241D01*
X66864494Y-56542082D01*
X66839557Y-56551663D01*
X66812980Y-56562998D01*
X66784770Y-56576103D01*
X66754931Y-56590991D01*
X66723471Y-56607679D01*
X66690394Y-56626180D01*
X66655707Y-56646509D01*
X66619415Y-56668682D01*
X66581525Y-56692713D01*
X66542041Y-56718617D01*
X66500970Y-56746410D01*
X66458318Y-56776105D01*
X66159086Y-56984131D01*
X65784713Y-57239445D01*
X65372280Y-57516602D01*
X64958869Y-57790157D01*
X64905194Y-57823704D01*
X64851721Y-57853934D01*
X64798614Y-57880902D01*
X64746037Y-57904666D01*
X64694154Y-57925281D01*
X64643129Y-57942804D01*
X64593124Y-57957291D01*
X64544304Y-57968797D01*
X64496833Y-57977379D01*
X64450873Y-57983094D01*
X64406589Y-57985997D01*
X64364145Y-57986144D01*
X64323703Y-57983592D01*
X64285428Y-57978396D01*
X64249483Y-57970614D01*
X64216032Y-57960301D01*
X64185239Y-57947513D01*
X64157267Y-57932306D01*
X64132280Y-57914737D01*
X64110441Y-57894861D01*
X64091915Y-57872735D01*
X64076864Y-57848416D01*
X64065454Y-57821958D01*
X64057846Y-57793419D01*
X64054205Y-57762854D01*
X64054695Y-57730320D01*
X64059479Y-57695872D01*
X64068720Y-57659568D01*
X64082583Y-57621462D01*
X64101232Y-57581612D01*
X64124829Y-57540073D01*
X64153539Y-57496902D01*
X64616274Y-56847292D01*
X64636507Y-56816261D01*
X64652247Y-56786454D01*
X64663666Y-56757887D01*
X64670937Y-56730575D01*
X64674233Y-56704532D01*
X64673726Y-56679773D01*
X64669588Y-56656313D01*
X64661992Y-56634168D01*
X64651111Y-56613352D01*
X64637117Y-56593880D01*
X64620182Y-56575768D01*
X64600480Y-56559029D01*
X64578183Y-56543680D01*
X64553462Y-56529734D01*
X64526492Y-56517207D01*
X64497444Y-56506115D01*
X64466490Y-56496471D01*
X64433804Y-56488290D01*
X64399559Y-56481589D01*
X64363925Y-56476381D01*
X64327077Y-56472682D01*
X64289186Y-56470507D01*
X64250425Y-56469870D01*
X64210966Y-56470786D01*
X64170983Y-56473271D01*
X64130648Y-56477339D01*
X64090132Y-56483006D01*
X64049610Y-56490285D01*
X64009252Y-56499193D01*
X63969233Y-56509744D01*
X63929723Y-56521954D01*
X63890897Y-56535836D01*
X59454995Y-58235502D01*
X59472793Y-57425714D01*
X60347358Y-57034813D01*
X61142320Y-56696726D01*
X61860827Y-56409364D01*
X62506023Y-56170640D01*
X63081054Y-55978469D01*
X63589067Y-55830761D01*
X64033206Y-55725431D01*
X64416618Y-55660391D01*
X64742449Y-55633555D01*
X65013844Y-55642834D01*
X65233949Y-55686142D01*
X65405910Y-55761392D01*
X65474819Y-55810342D01*
X65532872Y-55866496D01*
X65617982Y-55999368D01*
X65664386Y-56157920D01*
X65675228Y-56340066D01*
X65758536Y-56276565D01*
X65881920Y-56193727D01*
X66038433Y-56097861D01*
X66221127Y-55995274D01*
X66423055Y-55892272D01*
X66637268Y-55795164D01*
X66856820Y-55710256D01*
X67074761Y-55643857D01*
X67180957Y-55619569D01*
X67284145Y-55602273D01*
X67383457Y-55592758D01*
X67478024Y-55591812D01*
X67566978Y-55600224D01*
G36*
X67566978Y-55600224D02*
G01*
X67649450Y-55618781D01*
X67724572Y-55648273D01*
X67791475Y-55689488D01*
X67849291Y-55743214D01*
X67897152Y-55810240D01*
X67934188Y-55891354D01*
X67959533Y-55987344D01*
X67972316Y-56098999D01*
X67971669Y-56227108D01*
X67956725Y-56372458D01*
X67926615Y-56535839D01*
X67923636Y-56550417D01*
X67921440Y-56563511D01*
X67920012Y-56575172D01*
X67919337Y-56585451D01*
X67919402Y-56594398D01*
X67920193Y-56602065D01*
X67921695Y-56608501D01*
X67923894Y-56613758D01*
X67926776Y-56617886D01*
X67930328Y-56620936D01*
X67934534Y-56622959D01*
X67939380Y-56624005D01*
X67944854Y-56624126D01*
X67950939Y-56623372D01*
X67957623Y-56621794D01*
X67964891Y-56619442D01*
X67972729Y-56616368D01*
X67981123Y-56612622D01*
X67999522Y-56603316D01*
X68019974Y-56591932D01*
X68042367Y-56578876D01*
X68092522Y-56549368D01*
X68120059Y-56533729D01*
X68149083Y-56518041D01*
X68334545Y-56416332D01*
X68514052Y-56311306D01*
X68857979Y-56105708D01*
X69023786Y-56012338D01*
X69186414Y-55930054D01*
X69266753Y-55894194D01*
X69346557Y-55862457D01*
X69425913Y-55835292D01*
X69504908Y-55813149D01*
X69583629Y-55796478D01*
X69662162Y-55785729D01*
X69740594Y-55781353D01*
X69819012Y-55783799D01*
X69897503Y-55793518D01*
X69976153Y-55810959D01*
X70055048Y-55836574D01*
X70134277Y-55870811D01*
X70213924Y-55914121D01*
X70294078Y-55966954D01*
X70374825Y-56029761D01*
X70456252Y-56102991D01*
X70538444Y-56187094D01*
X70621490Y-56282520D01*
X70705476Y-56389720D01*
X70790488Y-56509144D01*
X70848930Y-56592217D01*
X70908661Y-56671211D01*
X70969962Y-56745928D01*
X71033116Y-56816172D01*
X71098407Y-56881747D01*
X71166115Y-56942456D01*
X71236523Y-56998103D01*
X71272829Y-57023967D01*
X71309915Y-57048491D01*
X71347817Y-57071652D01*
X71386572Y-57093424D01*
X71426213Y-57113783D01*
X71466776Y-57132705D01*
X71508297Y-57150165D01*
X71550811Y-57166138D01*
X71594352Y-57180601D01*
X71638958Y-57193527D01*
X71684662Y-57204893D01*
X71731500Y-57214675D01*
X71779507Y-57222847D01*
X71828719Y-57229385D01*
X71879171Y-57234264D01*
X71930898Y-57237460D01*
X71983935Y-57238949D01*
X72038319Y-57238706D01*
X72254449Y-57231258D01*
X72478651Y-57217948D01*
X72946790Y-57176374D01*
X73433772Y-57119256D01*
X73930633Y-57051865D01*
X74918141Y-56907351D01*
X75390862Y-56840771D01*
X75837608Y-56785005D01*
X75846505Y-57541399D01*
X74274908Y-57777796D01*
X73491926Y-57883293D01*
X72748603Y-57960322D01*
X72400668Y-57983474D01*
X72073274Y-57993885D01*
X71769964Y-57989679D01*
X71494277Y-57968982D01*
X71249758Y-57929918D01*
X71039947Y-57870613D01*
X70949165Y-57832784D01*
X70868388Y-57789192D01*
X70798059Y-57739601D01*
X70738620Y-57683779D01*
X70665619Y-57602902D01*
X70591684Y-57519356D01*
X70442011Y-57345835D01*
X70291596Y-57166376D01*
X70142431Y-56984138D01*
X70100703Y-56933544D01*
X70057992Y-56884797D01*
X70013652Y-56838909D01*
X69990668Y-56817354D01*
X69967034Y-56796892D01*
X69942670Y-56777651D01*
X69917493Y-56759758D01*
X69891423Y-56743338D01*
X69864380Y-56728519D01*
X69836283Y-56715426D01*
X69807049Y-56704186D01*
X69776600Y-56694926D01*
X69744853Y-56687773D01*
X69711728Y-56682852D01*
X69677144Y-56680290D01*
X69641020Y-56680214D01*
X69603275Y-56682750D01*
X69563829Y-56688025D01*
X69522599Y-56696165D01*
X69479507Y-56707297D01*
X69434469Y-56721546D01*
X69387407Y-56739041D01*
X69338238Y-56759907D01*
X69286882Y-56784270D01*
X69233258Y-56812258D01*
X69177286Y-56843997D01*
X69118883Y-56879612D01*
X69057970Y-56919231D01*
X68994465Y-56962981D01*
X68834705Y-57075612D01*
X68558448Y-57265605D01*
X68396048Y-57373869D01*
X68227824Y-57482581D01*
X68061541Y-57585444D01*
X67981555Y-57632714D01*
X67904966Y-57676160D01*
X67775322Y-57742737D01*
X67645024Y-57799721D01*
X67515778Y-57846771D01*
X67389289Y-57883546D01*
X67267264Y-57909703D01*
X67151408Y-57924901D01*
X67043428Y-57928798D01*
X66992925Y-57926403D01*
X66945030Y-57921054D01*
X66899957Y-57912710D01*
X66857919Y-57901327D01*
X66819129Y-57886863D01*
X66783801Y-57869275D01*
X66752147Y-57848521D01*
X66724382Y-57824557D01*
X66700718Y-57797341D01*
X66681368Y-57766831D01*
X66666546Y-57732983D01*
X66656465Y-57695755D01*
X66651339Y-57655105D01*
X66651380Y-57610989D01*
X66656801Y-57563365D01*
X66667817Y-57512191D01*
X66684640Y-57457423D01*
X66707483Y-57399018D01*
X67010041Y-56696017D01*
X67019109Y-56673628D01*
X67026421Y-56652697D01*
X67031984Y-56633238D01*
X67035803Y-56615266D01*
X67037885Y-56598796D01*
X67038234Y-56583843D01*
X67036857Y-56570422D01*
X67035522Y-56564290D01*
X67033759Y-56558547D01*
X67031567Y-56553194D01*
X67028946Y-56548233D01*
X67025899Y-56543667D01*
X67022425Y-56539496D01*
X67018525Y-56535723D01*
X67014201Y-56532350D01*
X67009451Y-56529378D01*
X67004279Y-56526810D01*
X66998683Y-56524647D01*
X66992665Y-56522891D01*
X66979366Y-56520607D01*
X66964387Y-56519973D01*
X66947734Y-56521005D01*
X66929412Y-56523717D01*
X66909428Y-56528124D01*
X66887786Y-56534241D01*
X66864494Y-56542082D01*
X66839557Y-56551663D01*
X66812980Y-56562998D01*
X66784770Y-56576103D01*
X66754931Y-56590991D01*
X66723471Y-56607679D01*
X66690394Y-56626180D01*
X66655707Y-56646509D01*
X66619415Y-56668682D01*
X66581525Y-56692713D01*
X66542041Y-56718617D01*
X66500970Y-56746410D01*
X66458318Y-56776105D01*
X66159086Y-56984131D01*
X65784713Y-57239445D01*
X65372280Y-57516602D01*
X64958869Y-57790157D01*
X64905194Y-57823704D01*
X64851721Y-57853934D01*
X64798614Y-57880902D01*
X64746037Y-57904666D01*
X64694154Y-57925281D01*
X64643129Y-57942804D01*
X64593124Y-57957291D01*
X64544304Y-57968797D01*
X64496833Y-57977379D01*
X64450873Y-57983094D01*
X64406589Y-57985997D01*
X64364145Y-57986144D01*
X64323703Y-57983592D01*
X64285428Y-57978396D01*
X64249483Y-57970614D01*
X64216032Y-57960301D01*
X64185239Y-57947513D01*
X64157267Y-57932306D01*
X64132280Y-57914737D01*
X64110441Y-57894861D01*
X64091915Y-57872735D01*
X64076864Y-57848416D01*
X64065454Y-57821958D01*
X64057846Y-57793419D01*
X64054205Y-57762854D01*
X64054695Y-57730320D01*
X64059479Y-57695872D01*
X64068720Y-57659568D01*
X64082583Y-57621462D01*
X64101232Y-57581612D01*
X64124829Y-57540073D01*
X64153539Y-57496902D01*
X64616274Y-56847292D01*
X64636507Y-56816261D01*
X64652247Y-56786454D01*
X64663666Y-56757887D01*
X64670937Y-56730575D01*
X64674233Y-56704532D01*
X64673726Y-56679773D01*
X64669588Y-56656313D01*
X64661992Y-56634168D01*
X64651111Y-56613352D01*
X64637117Y-56593880D01*
X64620182Y-56575768D01*
X64600480Y-56559029D01*
X64578183Y-56543680D01*
X64553462Y-56529734D01*
X64526492Y-56517207D01*
X64497444Y-56506115D01*
X64466490Y-56496471D01*
X64433804Y-56488290D01*
X64399559Y-56481589D01*
X64363925Y-56476381D01*
X64327077Y-56472682D01*
X64289186Y-56470507D01*
X64250425Y-56469870D01*
X64210966Y-56470786D01*
X64170983Y-56473271D01*
X64130648Y-56477339D01*
X64090132Y-56483006D01*
X64049610Y-56490285D01*
X64009252Y-56499193D01*
X63969233Y-56509744D01*
X63929723Y-56521954D01*
X63890897Y-56535836D01*
X59454995Y-58235502D01*
X59472793Y-57425714D01*
X60347358Y-57034813D01*
X61142320Y-56696726D01*
X61860827Y-56409364D01*
X62506023Y-56170640D01*
X63081054Y-55978469D01*
X63589067Y-55830761D01*
X64033206Y-55725431D01*
X64416618Y-55660391D01*
X64742449Y-55633555D01*
X65013844Y-55642834D01*
X65233949Y-55686142D01*
X65405910Y-55761392D01*
X65474819Y-55810342D01*
X65532872Y-55866496D01*
X65617982Y-55999368D01*
X65664386Y-56157920D01*
X65675228Y-56340066D01*
X65758536Y-56276565D01*
X65881920Y-56193727D01*
X66038433Y-56097861D01*
X66221127Y-55995274D01*
X66423055Y-55892272D01*
X66637268Y-55795164D01*
X66856820Y-55710256D01*
X67074761Y-55643857D01*
X67180957Y-55619569D01*
X67284145Y-55602273D01*
X67383457Y-55592758D01*
X67478024Y-55591812D01*
X67566978Y-55600224D01*
G37*
D12*
X96340000Y-39760000D02*
G75*
G02*
X93680000Y-39760000I-1330000J0D01*
G01*
X93680000Y-39760000D02*
G75*
G02*
X96340000Y-39760000I1330000J0D01*
G01*
D10*
G36*
X60230000Y-67310000D02*
G01*
X60672765Y-66053486D01*
X60970758Y-66053486D01*
X60970758Y-67539653D01*
X60771039Y-67539653D01*
X60771039Y-66662522D01*
X60771171Y-66636029D01*
X60771568Y-66602074D01*
X60773153Y-66511780D01*
X60774078Y-66458225D01*
X60774739Y-66402772D01*
X60775267Y-66286174D01*
X60332502Y-67539653D01*
X60124329Y-67539653D01*
X59678393Y-66286174D01*
X59678393Y-66331702D01*
X59678526Y-66362620D01*
X59678922Y-66400748D01*
X59680508Y-66498628D01*
X59682885Y-66595244D01*
X59683479Y-66632550D01*
X59683677Y-66662522D01*
X59683677Y-67539653D01*
X59482902Y-67539653D01*
X59482900Y-66053486D01*
X59784064Y-66053486D01*
X60230000Y-67310000D01*
G37*
G36*
X69763123Y-66013601D02*
G01*
X69794205Y-66015344D01*
X69824379Y-66018248D01*
X69853644Y-66022315D01*
X69882001Y-66027543D01*
X69909449Y-66033933D01*
X69935988Y-66041486D01*
X69961619Y-66050199D01*
X69986342Y-66060075D01*
X70010156Y-66071113D01*
X70033061Y-66083313D01*
X70055058Y-66096674D01*
X70076147Y-66111197D01*
X70096327Y-66126882D01*
X70115598Y-66143729D01*
X70133961Y-66161738D01*
X70151372Y-66180486D01*
X70167787Y-66199551D01*
X70183206Y-66218931D01*
X70197630Y-66238628D01*
X70211057Y-66258641D01*
X70223489Y-66278969D01*
X70234926Y-66299614D01*
X70245366Y-66320575D01*
X70254811Y-66341852D01*
X70263260Y-66363445D01*
X70270713Y-66385355D01*
X70277171Y-66407580D01*
X70282633Y-66430122D01*
X70287099Y-66452980D01*
X70290570Y-66476153D01*
X70293044Y-66499643D01*
X70112565Y-66499643D01*
X70108487Y-66481919D01*
X70103930Y-66464661D01*
X70098893Y-66447869D01*
X70093376Y-66431544D01*
X70087380Y-66415685D01*
X70080904Y-66400292D01*
X70073949Y-66385366D01*
X70066513Y-66370906D01*
X70058599Y-66356912D01*
X70050204Y-66343385D01*
X70041330Y-66330324D01*
X70031976Y-66317729D01*
X70022142Y-66305601D01*
X70011829Y-66293939D01*
X70001036Y-66282743D01*
X69989763Y-66272014D01*
X69978076Y-66261846D01*
X69965807Y-66252333D01*
X69952957Y-66243477D01*
X69939526Y-66235277D01*
X69925513Y-66227732D01*
X69910918Y-66220844D01*
X69895742Y-66214612D01*
X69879985Y-66209036D01*
X69863646Y-66204116D01*
X69846726Y-66199852D01*
X69829225Y-66196244D01*
X69811142Y-66193292D01*
X69792477Y-66190996D01*
X69773231Y-66189356D01*
X69753404Y-66188372D01*
X69732995Y-66188044D01*
X69708062Y-66188649D01*
X69683733Y-66190463D01*
X69660006Y-66193486D01*
X69636882Y-66197718D01*
X69614362Y-66203160D01*
X69592445Y-66209811D01*
X69571132Y-66217671D01*
X69550421Y-66226741D01*
X69530314Y-66237019D01*
X69510810Y-66248508D01*
X69491909Y-66261205D01*
X69473612Y-66275112D01*
X69455918Y-66290228D01*
X69438827Y-66306553D01*
X69422339Y-66324088D01*
X69406455Y-66342832D01*
X69391472Y-66362698D01*
X69377455Y-66383852D01*
X69364405Y-66406295D01*
X69352322Y-66430026D01*
X69341205Y-66455046D01*
X69331056Y-66481354D01*
X69321872Y-66508950D01*
X69313656Y-66537834D01*
X69306406Y-66568007D01*
X69300122Y-66599468D01*
X69294805Y-66632218D01*
X69290455Y-66666255D01*
X69287072Y-66701582D01*
X69284655Y-66738196D01*
X69283205Y-66776099D01*
X69282722Y-66815290D01*
X69283158Y-66847534D01*
X69284466Y-66879011D01*
X69286647Y-66909722D01*
X69289699Y-66939665D01*
X69293624Y-66968842D01*
X69298421Y-66997253D01*
X69304090Y-67024896D01*
X69310632Y-67051773D01*
X69318045Y-67077883D01*
X69326331Y-67103227D01*
X69335489Y-67127803D01*
X69345519Y-67151614D01*
X69356421Y-67174657D01*
X69368195Y-67196934D01*
X69380842Y-67218444D01*
X69394360Y-67239187D01*
X69408860Y-67258789D01*
X69424217Y-67277126D01*
X69440433Y-67294198D01*
X69448862Y-67302260D01*
X69457505Y-67310006D01*
X69466363Y-67317436D01*
X69475436Y-67324549D01*
X69484723Y-67331347D01*
X69494224Y-67337828D01*
X69503940Y-67343993D01*
X69513870Y-67349842D01*
X69524014Y-67355375D01*
X69534373Y-67360591D01*
X69544946Y-67365492D01*
X69555734Y-67370076D01*
X69577953Y-67378296D01*
X69601029Y-67385252D01*
X69624963Y-67390942D01*
X69649755Y-67395369D01*
X69675404Y-67398530D01*
X69701910Y-67400427D01*
X69729275Y-67401059D01*
X69754477Y-67400392D01*
X69778915Y-67398388D01*
X69802591Y-67395049D01*
X69825504Y-67390373D01*
X69847653Y-67384363D01*
X69869039Y-67377016D01*
X69889663Y-67368333D01*
X69909523Y-67358315D01*
X69928620Y-67346961D01*
X69946953Y-67334272D01*
X69964524Y-67320246D01*
X69981331Y-67304885D01*
X69997376Y-67288188D01*
X70012657Y-67270156D01*
X70027175Y-67250787D01*
X70040930Y-67230083D01*
X70047911Y-67218607D01*
X70054666Y-67206688D01*
X70061197Y-67194327D01*
X70067502Y-67181523D01*
X70073581Y-67168277D01*
X70079436Y-67154588D01*
X70085065Y-67140456D01*
X70090469Y-67125881D01*
X70095647Y-67110864D01*
X70100600Y-67095404D01*
X70105328Y-67079502D01*
X70109831Y-67063157D01*
X70114109Y-67046369D01*
X70118161Y-67029138D01*
X70121988Y-67011465D01*
X70125589Y-66993350D01*
X70306069Y-66993350D01*
X70302610Y-67022392D01*
X70298278Y-67050841D01*
X70293074Y-67078698D01*
X70286998Y-67105962D01*
X70280050Y-67132633D01*
X70272230Y-67158712D01*
X70263537Y-67184198D01*
X70253972Y-67209091D01*
X70243535Y-67233391D01*
X70232226Y-67257099D01*
X70220045Y-67280213D01*
X70206991Y-67302735D01*
X70193066Y-67324664D01*
X70178268Y-67346000D01*
X70162598Y-67366744D01*
X70146056Y-67386894D01*
X70125262Y-67410049D01*
X70103581Y-67431709D01*
X70081013Y-67451876D01*
X70057559Y-67470549D01*
X70033218Y-67487728D01*
X70007991Y-67503413D01*
X69981876Y-67517605D01*
X69954875Y-67530302D01*
X69926988Y-67541506D01*
X69898213Y-67551216D01*
X69868552Y-67559432D01*
X69838005Y-67566155D01*
X69806570Y-67571383D01*
X69774249Y-67575118D01*
X69741041Y-67577358D01*
X69706947Y-67578105D01*
X69677475Y-67577493D01*
X69648599Y-67575655D01*
X69620319Y-67572592D01*
X69592635Y-67568305D01*
X69565547Y-67562792D01*
X69539055Y-67556054D01*
X69513158Y-67548091D01*
X69487858Y-67538902D01*
X69463154Y-67528489D01*
X69439046Y-67516851D01*
X69415534Y-67503987D01*
X69392617Y-67489899D01*
X69370297Y-67474585D01*
X69348572Y-67458047D01*
X69327444Y-67440283D01*
X69306911Y-67421294D01*
X69281113Y-67394488D01*
X69256980Y-67365920D01*
X69234511Y-67335590D01*
X69213706Y-67303497D01*
X69194565Y-67269641D01*
X69177089Y-67234022D01*
X69161277Y-67196641D01*
X69147130Y-67157498D01*
X69134647Y-67116592D01*
X69123829Y-67073923D01*
X69114674Y-67029491D01*
X69107185Y-66983297D01*
X69101359Y-66935341D01*
X69097198Y-66885622D01*
X69094702Y-66834140D01*
X69093869Y-66780896D01*
X69094495Y-66740258D01*
X69096370Y-66700546D01*
X69099495Y-66661758D01*
X69103870Y-66623894D01*
X69109496Y-66586956D01*
X69116372Y-66550942D01*
X69124497Y-66515853D01*
X69133873Y-66481689D01*
X69144499Y-66448450D01*
X69156375Y-66416135D01*
X69169502Y-66384745D01*
X69183878Y-66354280D01*
X69199504Y-66324740D01*
X69216381Y-66296124D01*
X69234507Y-66268433D01*
X69253884Y-66241667D01*
X69276026Y-66213980D01*
X69299193Y-66188079D01*
X69323385Y-66163964D01*
X69348602Y-66141636D01*
X69374843Y-66121094D01*
X69402109Y-66102338D01*
X69430400Y-66085368D01*
X69459716Y-66070185D01*
X69490056Y-66056788D01*
X69521422Y-66045177D01*
X69553812Y-66035353D01*
X69587226Y-66027315D01*
X69621666Y-66021063D01*
X69657131Y-66016597D01*
X69693620Y-66013918D01*
X69731134Y-66013025D01*
X69731133Y-66013020D01*
X69763123Y-66013601D01*
G37*
G36*
X64110630Y-67257395D02*
G01*
X64110630Y-66053486D01*
X64286460Y-66053486D01*
X64286460Y-67539653D01*
X64079000Y-67539653D01*
X63378473Y-66336758D01*
X63378473Y-67539653D01*
X63201712Y-67539653D01*
X63201712Y-66053486D01*
X63420336Y-66053486D01*
X64110630Y-67257395D01*
G37*
G36*
X75807125Y-66235588D02*
G01*
X75163707Y-66235588D01*
X75163707Y-66686802D01*
X75758702Y-66686802D01*
X75758702Y-66858787D01*
X75163707Y-66858787D01*
X75163707Y-67362607D01*
X75818128Y-67362607D01*
X75818128Y-67539651D01*
X75021376Y-67539651D01*
X75021378Y-66053486D01*
X75807125Y-66053486D01*
X75807125Y-66235588D01*
G37*
D13*
X93210000Y-46210000D02*
X103810000Y-46210000D01*
X103810000Y-48380000D01*
X93210000Y-48380000D01*
X93210000Y-46210000D01*
D11*
X67566977Y-58367738D02*
X67649449Y-58386295D01*
X67724571Y-58415787D01*
X67791474Y-58457002D01*
X67849290Y-58510728D01*
X67897151Y-58577754D01*
X67934187Y-58658868D01*
X67959531Y-58754858D01*
X67972315Y-58866513D01*
X67971668Y-58994621D01*
X67956724Y-59139972D01*
X67926614Y-59303352D01*
X67923635Y-59317930D01*
X67921439Y-59331025D01*
X67920011Y-59342686D01*
X67919336Y-59352965D01*
X67919401Y-59361912D01*
X67920192Y-59369579D01*
X67921694Y-59376015D01*
X67923893Y-59381271D01*
X67926775Y-59385400D01*
X67930326Y-59388450D01*
X67934532Y-59390473D01*
X67939379Y-59391519D01*
X67944852Y-59391640D01*
X67950938Y-59390886D01*
X67957622Y-59389308D01*
X67964890Y-59386956D01*
X67972728Y-59383882D01*
X67981122Y-59380135D01*
X67999520Y-59370830D01*
X68019973Y-59359446D01*
X68042366Y-59346389D01*
X68092521Y-59316881D01*
X68120057Y-59301242D01*
X68149082Y-59285554D01*
X68334543Y-59183845D01*
X68514051Y-59078819D01*
X68857978Y-58873222D01*
X69023785Y-58779851D01*
X69186413Y-58697567D01*
X69266752Y-58661708D01*
X69346556Y-58629971D01*
X69425912Y-58602806D01*
X69504907Y-58580662D01*
X69583628Y-58563991D01*
X69662161Y-58553243D01*
X69740593Y-58548867D01*
X69819011Y-58551313D01*
X69897502Y-58561032D01*
X69976151Y-58578473D01*
X70055047Y-58604088D01*
X70134275Y-58638325D01*
X70213923Y-58681635D01*
X70294077Y-58734468D01*
X70374824Y-58797275D01*
X70456250Y-58870504D01*
X70538443Y-58954607D01*
X70621489Y-59050034D01*
X70705475Y-59157234D01*
X70790487Y-59276658D01*
X70848929Y-59359731D01*
X70908659Y-59438724D01*
X70969961Y-59513441D01*
X71033115Y-59583685D01*
X71098405Y-59649260D01*
X71166113Y-59709969D01*
X71236522Y-59765616D01*
X71272827Y-59791480D01*
X71309913Y-59816004D01*
X71347816Y-59839165D01*
X71386570Y-59860937D01*
X71426211Y-59881297D01*
X71466775Y-59900219D01*
X71508295Y-59917679D01*
X71550809Y-59933652D01*
X71594351Y-59948114D01*
X71638956Y-59961040D01*
X71684660Y-59972407D01*
X71731498Y-59982188D01*
X71779505Y-59990360D01*
X71828717Y-59996898D01*
X71879169Y-60001777D01*
X71930896Y-60004974D01*
X71983933Y-60006463D01*
X72038316Y-60006219D01*
X72254447Y-59998772D01*
X72478649Y-59985461D01*
X72946788Y-59943887D01*
X73433770Y-59886769D01*
X73930632Y-59819378D01*
X74918141Y-59674865D01*
X75390862Y-59608285D01*
X75837608Y-59552518D01*
X75846505Y-60308912D01*
X74274908Y-60545310D01*
X73491925Y-60650806D01*
X72748602Y-60727836D01*
X72400667Y-60750988D01*
X72073273Y-60761399D01*
X71769962Y-60757193D01*
X71494276Y-60736495D01*
X71249756Y-60697431D01*
X71039945Y-60638126D01*
X70949163Y-60600297D01*
X70868385Y-60556705D01*
X70798056Y-60507115D01*
X70738618Y-60451293D01*
X70665617Y-60370416D01*
X70591682Y-60286869D01*
X70442009Y-60113348D01*
X70291593Y-59933889D01*
X70142429Y-59751652D01*
X70100701Y-59701058D01*
X70057990Y-59652311D01*
X70013649Y-59606423D01*
X69990666Y-59584867D01*
X69967032Y-59564406D01*
X69942667Y-59545165D01*
X69917490Y-59527271D01*
X69891421Y-59510852D01*
X69864378Y-59496032D01*
X69836280Y-59482939D01*
X69807047Y-59471700D01*
X69776597Y-59462440D01*
X69744851Y-59455286D01*
X69711726Y-59450365D01*
X69677142Y-59447803D01*
X69641018Y-59447727D01*
X69603273Y-59450263D01*
X69563826Y-59455538D01*
X69522597Y-59463678D01*
X69479504Y-59474810D01*
X69434467Y-59489060D01*
X69387404Y-59506555D01*
X69338236Y-59527420D01*
X69286880Y-59551784D01*
X69233256Y-59579772D01*
X69177283Y-59611510D01*
X69118881Y-59647126D01*
X69057968Y-59686745D01*
X68994463Y-59730494D01*
X68834702Y-59843125D01*
X68558445Y-60033119D01*
X68396046Y-60141383D01*
X68227822Y-60250095D01*
X68061539Y-60352957D01*
X67981552Y-60400227D01*
X67904963Y-60443673D01*
X67775319Y-60510250D01*
X67645021Y-60567235D01*
X67515775Y-60614285D01*
X67389286Y-60651059D01*
X67267261Y-60677216D01*
X67151406Y-60692414D01*
X67043426Y-60696312D01*
X66992922Y-60693916D01*
X66945027Y-60688568D01*
X66899954Y-60680223D01*
X66857916Y-60668841D01*
X66819126Y-60654376D01*
X66783798Y-60636789D01*
X66752144Y-60616034D01*
X66724379Y-60592070D01*
X66700715Y-60564854D01*
X66681365Y-60534344D01*
X66666543Y-60500496D01*
X66656462Y-60463269D01*
X66651336Y-60422618D01*
X66651377Y-60378502D01*
X66656798Y-60330879D01*
X66667814Y-60279704D01*
X66684637Y-60224936D01*
X66707480Y-60166532D01*
X67010039Y-59463530D01*
X67019107Y-59441141D01*
X67026419Y-59420210D01*
X67031982Y-59400751D01*
X67035801Y-59382779D01*
X67037882Y-59366309D01*
X67038231Y-59351356D01*
X67036854Y-59337935D01*
X67035520Y-59331803D01*
X67033756Y-59326060D01*
X67031564Y-59320707D01*
X67028944Y-59315747D01*
X67025897Y-59311180D01*
X67022423Y-59307010D01*
X67018523Y-59303237D01*
X67014198Y-59299864D01*
X67009449Y-59296892D01*
X67004276Y-59294323D01*
X66998681Y-59292160D01*
X66992663Y-59290404D01*
X66979364Y-59288120D01*
X66964385Y-59287487D01*
X66947731Y-59288519D01*
X66929409Y-59291231D01*
X66909425Y-59295638D01*
X66887784Y-59301754D01*
X66864492Y-59309596D01*
X66839554Y-59319177D01*
X66812978Y-59330512D01*
X66784767Y-59343616D01*
X66754929Y-59358505D01*
X66723468Y-59375192D01*
X66690392Y-59393693D01*
X66655705Y-59414023D01*
X66619413Y-59436195D01*
X66581522Y-59460227D01*
X66542039Y-59486131D01*
X66500968Y-59513923D01*
X66458315Y-59543618D01*
X66159084Y-59751645D01*
X65784710Y-60006959D01*
X65372277Y-60284116D01*
X64958867Y-60557671D01*
X64905191Y-60591217D01*
X64851718Y-60621447D01*
X64798612Y-60648416D01*
X64746035Y-60672180D01*
X64694152Y-60692795D01*
X64643126Y-60710318D01*
X64593122Y-60724804D01*
X64544302Y-60736310D01*
X64496830Y-60744893D01*
X64450871Y-60750607D01*
X64406587Y-60753510D01*
X64364142Y-60753657D01*
X64323700Y-60751105D01*
X64285425Y-60745910D01*
X64249481Y-60738127D01*
X64216030Y-60727814D01*
X64185236Y-60715026D01*
X64157264Y-60699819D01*
X64132277Y-60682250D01*
X64110439Y-60662374D01*
X64091912Y-60640249D01*
X64076862Y-60615929D01*
X64065451Y-60589471D01*
X64057843Y-60560932D01*
X64054203Y-60530367D01*
X64054692Y-60497833D01*
X64059476Y-60463386D01*
X64068718Y-60427081D01*
X64082581Y-60388976D01*
X64101229Y-60349125D01*
X64124827Y-60307587D01*
X64153536Y-60264415D01*
X64616272Y-59614806D01*
X64636505Y-59583775D01*
X64652245Y-59553968D01*
X64663664Y-59525401D01*
X64670935Y-59498088D01*
X64674231Y-59472045D01*
X64673723Y-59447286D01*
X64669585Y-59423827D01*
X64661990Y-59401681D01*
X64651108Y-59380865D01*
X64637114Y-59361394D01*
X64620180Y-59343281D01*
X64600478Y-59326542D01*
X64578180Y-59311193D01*
X64553460Y-59297247D01*
X64526489Y-59284721D01*
X64497441Y-59273628D01*
X64466488Y-59263984D01*
X64433802Y-59255804D01*
X64399556Y-59249102D01*
X64363923Y-59243895D01*
X64327074Y-59240196D01*
X64289183Y-59238020D01*
X64250422Y-59237383D01*
X64210964Y-59238299D01*
X64170981Y-59240784D01*
X64130645Y-59244852D01*
X64090130Y-59250519D01*
X64049607Y-59257799D01*
X64009250Y-59266707D01*
X63969230Y-59277258D01*
X63929721Y-59289467D01*
X63890895Y-59303350D01*
X59454994Y-61003015D01*
X59472792Y-60193227D01*
X60347357Y-59802327D01*
X61142320Y-59464239D01*
X61860826Y-59176877D01*
X62506022Y-58938154D01*
X63081054Y-58745982D01*
X63589066Y-58598275D01*
X64033205Y-58492945D01*
X64416617Y-58427905D01*
X64742448Y-58401068D01*
X65013843Y-58410347D01*
X65233948Y-58453655D01*
X65405909Y-58528905D01*
X65474818Y-58577856D01*
X65532871Y-58634009D01*
X65617981Y-58766881D01*
X65664385Y-58925434D01*
X65675227Y-59107579D01*
X65758535Y-59044078D01*
X65881919Y-58961241D01*
X66038432Y-58865375D01*
X66221126Y-58762787D01*
X66423054Y-58659786D01*
X66637267Y-58562678D01*
X66856818Y-58477770D01*
X67074760Y-58411371D01*
X67180956Y-58387083D01*
X67284144Y-58369787D01*
X67383456Y-58360272D01*
X67478023Y-58359326D01*
X67566977Y-58367738D01*
G36*
X67566977Y-58367738D02*
G01*
X67649449Y-58386295D01*
X67724571Y-58415787D01*
X67791474Y-58457002D01*
X67849290Y-58510728D01*
X67897151Y-58577754D01*
X67934187Y-58658868D01*
X67959531Y-58754858D01*
X67972315Y-58866513D01*
X67971668Y-58994621D01*
X67956724Y-59139972D01*
X67926614Y-59303352D01*
X67923635Y-59317930D01*
X67921439Y-59331025D01*
X67920011Y-59342686D01*
X67919336Y-59352965D01*
X67919401Y-59361912D01*
X67920192Y-59369579D01*
X67921694Y-59376015D01*
X67923893Y-59381271D01*
X67926775Y-59385400D01*
X67930326Y-59388450D01*
X67934532Y-59390473D01*
X67939379Y-59391519D01*
X67944852Y-59391640D01*
X67950938Y-59390886D01*
X67957622Y-59389308D01*
X67964890Y-59386956D01*
X67972728Y-59383882D01*
X67981122Y-59380135D01*
X67999520Y-59370830D01*
X68019973Y-59359446D01*
X68042366Y-59346389D01*
X68092521Y-59316881D01*
X68120057Y-59301242D01*
X68149082Y-59285554D01*
X68334543Y-59183845D01*
X68514051Y-59078819D01*
X68857978Y-58873222D01*
X69023785Y-58779851D01*
X69186413Y-58697567D01*
X69266752Y-58661708D01*
X69346556Y-58629971D01*
X69425912Y-58602806D01*
X69504907Y-58580662D01*
X69583628Y-58563991D01*
X69662161Y-58553243D01*
X69740593Y-58548867D01*
X69819011Y-58551313D01*
X69897502Y-58561032D01*
X69976151Y-58578473D01*
X70055047Y-58604088D01*
X70134275Y-58638325D01*
X70213923Y-58681635D01*
X70294077Y-58734468D01*
X70374824Y-58797275D01*
X70456250Y-58870504D01*
X70538443Y-58954607D01*
X70621489Y-59050034D01*
X70705475Y-59157234D01*
X70790487Y-59276658D01*
X70848929Y-59359731D01*
X70908659Y-59438724D01*
X70969961Y-59513441D01*
X71033115Y-59583685D01*
X71098405Y-59649260D01*
X71166113Y-59709969D01*
X71236522Y-59765616D01*
X71272827Y-59791480D01*
X71309913Y-59816004D01*
X71347816Y-59839165D01*
X71386570Y-59860937D01*
X71426211Y-59881297D01*
X71466775Y-59900219D01*
X71508295Y-59917679D01*
X71550809Y-59933652D01*
X71594351Y-59948114D01*
X71638956Y-59961040D01*
X71684660Y-59972407D01*
X71731498Y-59982188D01*
X71779505Y-59990360D01*
X71828717Y-59996898D01*
X71879169Y-60001777D01*
X71930896Y-60004974D01*
X71983933Y-60006463D01*
X72038316Y-60006219D01*
X72254447Y-59998772D01*
X72478649Y-59985461D01*
X72946788Y-59943887D01*
X73433770Y-59886769D01*
X73930632Y-59819378D01*
X74918141Y-59674865D01*
X75390862Y-59608285D01*
X75837608Y-59552518D01*
X75846505Y-60308912D01*
X74274908Y-60545310D01*
X73491925Y-60650806D01*
X72748602Y-60727836D01*
X72400667Y-60750988D01*
X72073273Y-60761399D01*
X71769962Y-60757193D01*
X71494276Y-60736495D01*
X71249756Y-60697431D01*
X71039945Y-60638126D01*
X70949163Y-60600297D01*
X70868385Y-60556705D01*
X70798056Y-60507115D01*
X70738618Y-60451293D01*
X70665617Y-60370416D01*
X70591682Y-60286869D01*
X70442009Y-60113348D01*
X70291593Y-59933889D01*
X70142429Y-59751652D01*
X70100701Y-59701058D01*
X70057990Y-59652311D01*
X70013649Y-59606423D01*
X69990666Y-59584867D01*
X69967032Y-59564406D01*
X69942667Y-59545165D01*
X69917490Y-59527271D01*
X69891421Y-59510852D01*
X69864378Y-59496032D01*
X69836280Y-59482939D01*
X69807047Y-59471700D01*
X69776597Y-59462440D01*
X69744851Y-59455286D01*
X69711726Y-59450365D01*
X69677142Y-59447803D01*
X69641018Y-59447727D01*
X69603273Y-59450263D01*
X69563826Y-59455538D01*
X69522597Y-59463678D01*
X69479504Y-59474810D01*
X69434467Y-59489060D01*
X69387404Y-59506555D01*
X69338236Y-59527420D01*
X69286880Y-59551784D01*
X69233256Y-59579772D01*
X69177283Y-59611510D01*
X69118881Y-59647126D01*
X69057968Y-59686745D01*
X68994463Y-59730494D01*
X68834702Y-59843125D01*
X68558445Y-60033119D01*
X68396046Y-60141383D01*
X68227822Y-60250095D01*
X68061539Y-60352957D01*
X67981552Y-60400227D01*
X67904963Y-60443673D01*
X67775319Y-60510250D01*
X67645021Y-60567235D01*
X67515775Y-60614285D01*
X67389286Y-60651059D01*
X67267261Y-60677216D01*
X67151406Y-60692414D01*
X67043426Y-60696312D01*
X66992922Y-60693916D01*
X66945027Y-60688568D01*
X66899954Y-60680223D01*
X66857916Y-60668841D01*
X66819126Y-60654376D01*
X66783798Y-60636789D01*
X66752144Y-60616034D01*
X66724379Y-60592070D01*
X66700715Y-60564854D01*
X66681365Y-60534344D01*
X66666543Y-60500496D01*
X66656462Y-60463269D01*
X66651336Y-60422618D01*
X66651377Y-60378502D01*
X66656798Y-60330879D01*
X66667814Y-60279704D01*
X66684637Y-60224936D01*
X66707480Y-60166532D01*
X67010039Y-59463530D01*
X67019107Y-59441141D01*
X67026419Y-59420210D01*
X67031982Y-59400751D01*
X67035801Y-59382779D01*
X67037882Y-59366309D01*
X67038231Y-59351356D01*
X67036854Y-59337935D01*
X67035520Y-59331803D01*
X67033756Y-59326060D01*
X67031564Y-59320707D01*
X67028944Y-59315747D01*
X67025897Y-59311180D01*
X67022423Y-59307010D01*
X67018523Y-59303237D01*
X67014198Y-59299864D01*
X67009449Y-59296892D01*
X67004276Y-59294323D01*
X66998681Y-59292160D01*
X66992663Y-59290404D01*
X66979364Y-59288120D01*
X66964385Y-59287487D01*
X66947731Y-59288519D01*
X66929409Y-59291231D01*
X66909425Y-59295638D01*
X66887784Y-59301754D01*
X66864492Y-59309596D01*
X66839554Y-59319177D01*
X66812978Y-59330512D01*
X66784767Y-59343616D01*
X66754929Y-59358505D01*
X66723468Y-59375192D01*
X66690392Y-59393693D01*
X66655705Y-59414023D01*
X66619413Y-59436195D01*
X66581522Y-59460227D01*
X66542039Y-59486131D01*
X66500968Y-59513923D01*
X66458315Y-59543618D01*
X66159084Y-59751645D01*
X65784710Y-60006959D01*
X65372277Y-60284116D01*
X64958867Y-60557671D01*
X64905191Y-60591217D01*
X64851718Y-60621447D01*
X64798612Y-60648416D01*
X64746035Y-60672180D01*
X64694152Y-60692795D01*
X64643126Y-60710318D01*
X64593122Y-60724804D01*
X64544302Y-60736310D01*
X64496830Y-60744893D01*
X64450871Y-60750607D01*
X64406587Y-60753510D01*
X64364142Y-60753657D01*
X64323700Y-60751105D01*
X64285425Y-60745910D01*
X64249481Y-60738127D01*
X64216030Y-60727814D01*
X64185236Y-60715026D01*
X64157264Y-60699819D01*
X64132277Y-60682250D01*
X64110439Y-60662374D01*
X64091912Y-60640249D01*
X64076862Y-60615929D01*
X64065451Y-60589471D01*
X64057843Y-60560932D01*
X64054203Y-60530367D01*
X64054692Y-60497833D01*
X64059476Y-60463386D01*
X64068718Y-60427081D01*
X64082581Y-60388976D01*
X64101229Y-60349125D01*
X64124827Y-60307587D01*
X64153536Y-60264415D01*
X64616272Y-59614806D01*
X64636505Y-59583775D01*
X64652245Y-59553968D01*
X64663664Y-59525401D01*
X64670935Y-59498088D01*
X64674231Y-59472045D01*
X64673723Y-59447286D01*
X64669585Y-59423827D01*
X64661990Y-59401681D01*
X64651108Y-59380865D01*
X64637114Y-59361394D01*
X64620180Y-59343281D01*
X64600478Y-59326542D01*
X64578180Y-59311193D01*
X64553460Y-59297247D01*
X64526489Y-59284721D01*
X64497441Y-59273628D01*
X64466488Y-59263984D01*
X64433802Y-59255804D01*
X64399556Y-59249102D01*
X64363923Y-59243895D01*
X64327074Y-59240196D01*
X64289183Y-59238020D01*
X64250422Y-59237383D01*
X64210964Y-59238299D01*
X64170981Y-59240784D01*
X64130645Y-59244852D01*
X64090130Y-59250519D01*
X64049607Y-59257799D01*
X64009250Y-59266707D01*
X63969230Y-59277258D01*
X63929721Y-59289467D01*
X63890895Y-59303350D01*
X59454994Y-61003015D01*
X59472792Y-60193227D01*
X60347357Y-59802327D01*
X61142320Y-59464239D01*
X61860826Y-59176877D01*
X62506022Y-58938154D01*
X63081054Y-58745982D01*
X63589066Y-58598275D01*
X64033205Y-58492945D01*
X64416617Y-58427905D01*
X64742448Y-58401068D01*
X65013843Y-58410347D01*
X65233948Y-58453655D01*
X65405909Y-58528905D01*
X65474818Y-58577856D01*
X65532871Y-58634009D01*
X65617981Y-58766881D01*
X65664385Y-58925434D01*
X65675227Y-59107579D01*
X65758535Y-59044078D01*
X65881919Y-58961241D01*
X66038432Y-58865375D01*
X66221126Y-58762787D01*
X66423054Y-58659786D01*
X66637267Y-58562678D01*
X66856818Y-58477770D01*
X67074760Y-58411371D01*
X67180956Y-58387083D01*
X67284144Y-58369787D01*
X67383456Y-58360272D01*
X67478023Y-58359326D01*
X67566977Y-58367738D01*
G37*
D10*
G36*
X65930814Y-66054336D02*
G01*
X65964567Y-66056885D01*
X65997332Y-66061133D01*
X66029108Y-66067081D01*
X66059895Y-66074727D01*
X66089695Y-66084073D01*
X66118505Y-66095119D01*
X66146327Y-66107864D01*
X66173161Y-66122308D01*
X66199007Y-66138451D01*
X66223863Y-66156294D01*
X66247732Y-66175836D01*
X66270611Y-66197078D01*
X66292503Y-66220019D01*
X66313406Y-66244659D01*
X66333320Y-66270998D01*
X66350106Y-66295963D01*
X66365809Y-66321788D01*
X66380429Y-66348475D01*
X66393965Y-66376024D01*
X66406419Y-66404434D01*
X66417790Y-66433706D01*
X66428078Y-66463839D01*
X66437283Y-66494834D01*
X66445405Y-66526690D01*
X66452444Y-66559408D01*
X66458400Y-66592987D01*
X66463274Y-66627428D01*
X66467064Y-66662730D01*
X66469771Y-66698894D01*
X66471396Y-66735919D01*
X66471937Y-66773806D01*
X66471617Y-66803220D01*
X66470658Y-66832279D01*
X66469059Y-66860982D01*
X66466820Y-66889329D01*
X66463942Y-66917320D01*
X66460424Y-66944956D01*
X66456267Y-66972236D01*
X66451470Y-66999160D01*
X66446033Y-67025729D01*
X66439957Y-67051942D01*
X66433241Y-67077799D01*
X66425886Y-67103300D01*
X66417891Y-67128446D01*
X66409257Y-67153237D01*
X66399983Y-67177671D01*
X66390069Y-67201750D01*
X66371234Y-67242668D01*
X66350778Y-67280946D01*
X66339942Y-67299095D01*
X66328701Y-67316585D01*
X66317054Y-67333414D01*
X66305003Y-67349583D01*
X66292546Y-67365092D01*
X66279684Y-67379941D01*
X66266417Y-67394131D01*
X66252745Y-67407660D01*
X66238668Y-67420529D01*
X66224185Y-67432739D01*
X66209297Y-67444288D01*
X66194004Y-67455178D01*
X66178306Y-67465407D01*
X66162203Y-67474977D01*
X66145694Y-67483886D01*
X66128781Y-67492136D01*
X66111462Y-67499725D01*
X66093738Y-67506655D01*
X66075608Y-67512925D01*
X66057074Y-67518534D01*
X66038134Y-67523484D01*
X66018789Y-67527774D01*
X65999039Y-67531404D01*
X65978884Y-67534373D01*
X65958324Y-67536683D01*
X65937358Y-67538333D01*
X65894211Y-67539653D01*
X65342534Y-67539653D01*
X65342534Y-67367668D01*
X65342534Y-66226484D01*
X65528598Y-66226484D01*
X65528598Y-67367668D01*
X65858860Y-67367668D01*
X65881827Y-67367336D01*
X65903748Y-67366340D01*
X65924622Y-67364681D01*
X65944449Y-67362357D01*
X65963230Y-67359369D01*
X65980964Y-67355718D01*
X65997651Y-67351402D01*
X66005602Y-67348996D01*
X66013292Y-67346423D01*
X66026629Y-67341206D01*
X66039661Y-67335420D01*
X66052387Y-67329066D01*
X66064808Y-67322142D01*
X66076924Y-67314649D01*
X66088735Y-67306587D01*
X66100240Y-67297956D01*
X66111440Y-67288756D01*
X66122335Y-67278987D01*
X66132925Y-67268649D01*
X66143209Y-67257741D01*
X66153188Y-67246265D01*
X66162862Y-67234220D01*
X66172231Y-67221606D01*
X66181294Y-67208423D01*
X66190052Y-67194670D01*
X66196794Y-67183218D01*
X66203295Y-67171370D01*
X66209556Y-67159127D01*
X66215578Y-67146488D01*
X66221360Y-67133455D01*
X66226902Y-67120026D01*
X66232204Y-67106202D01*
X66237266Y-67091983D01*
X66242089Y-67077369D01*
X66246671Y-67062359D01*
X66251014Y-67046955D01*
X66255117Y-67031155D01*
X66258980Y-67014960D01*
X66262603Y-66998370D01*
X66265986Y-66981384D01*
X66269129Y-66964004D01*
X66272400Y-66943201D01*
X66275234Y-66922778D01*
X66277632Y-66902734D01*
X66279595Y-66883069D01*
X66281121Y-66863784D01*
X66282211Y-66844878D01*
X66282865Y-66826351D01*
X66283083Y-66808203D01*
X66282687Y-66774162D01*
X66281499Y-66741085D01*
X66279518Y-66708972D01*
X66276746Y-66677824D01*
X66273181Y-66647639D01*
X66268823Y-66618419D01*
X66263674Y-66590163D01*
X66257732Y-66562871D01*
X66250999Y-66536544D01*
X66243472Y-66511180D01*
X66235154Y-66486781D01*
X66226044Y-66463346D01*
X66216141Y-66440875D01*
X66205446Y-66419369D01*
X66193959Y-66398826D01*
X66181680Y-66379248D01*
X66175279Y-66369850D01*
X66168637Y-66360749D01*
X66161753Y-66351948D01*
X66154627Y-66343444D01*
X66147260Y-66335239D01*
X66139651Y-66327333D01*
X66131801Y-66319724D01*
X66123709Y-66312415D01*
X66115375Y-66305403D01*
X66106799Y-66298690D01*
X66097982Y-66292275D01*
X66088924Y-66286158D01*
X66079623Y-66280340D01*
X66070081Y-66274820D01*
X66060297Y-66269599D01*
X66050272Y-66264676D01*
X66040005Y-66260051D01*
X66029496Y-66255725D01*
X66018746Y-66251697D01*
X66007754Y-66247967D01*
X65996520Y-66244536D01*
X65985045Y-66241403D01*
X65961369Y-66236032D01*
X65936726Y-66231855D01*
X65911117Y-66228871D01*
X65884542Y-66227081D01*
X65856999Y-66226484D01*
X65528598Y-66226484D01*
X65342534Y-66226484D01*
X65342534Y-66053486D01*
X65896073Y-66053486D01*
X65930814Y-66054336D01*
G37*
D14*
X82443958Y-40248457D02*
X82382054Y-40305600D01*
X82382054Y-40305600D02*
X82196339Y-40362742D01*
X82196339Y-40362742D02*
X82072530Y-40362742D01*
X82072530Y-40362742D02*
X81886816Y-40305600D01*
X81886816Y-40305600D02*
X81763006Y-40191314D01*
X81763006Y-40191314D02*
X81701101Y-40077028D01*
X81701101Y-40077028D02*
X81639197Y-39848457D01*
X81639197Y-39848457D02*
X81639197Y-39677028D01*
X81639197Y-39677028D02*
X81701101Y-39448457D01*
X81701101Y-39448457D02*
X81763006Y-39334171D01*
X81763006Y-39334171D02*
X81886816Y-39219885D01*
X81886816Y-39219885D02*
X82072530Y-39162742D01*
X82072530Y-39162742D02*
X82196339Y-39162742D01*
X82196339Y-39162742D02*
X82382054Y-39219885D01*
X82382054Y-39219885D02*
X82443958Y-39277028D01*
X83248720Y-39162742D02*
X83496339Y-39162742D01*
X83496339Y-39162742D02*
X83620149Y-39219885D01*
X83620149Y-39219885D02*
X83743958Y-39334171D01*
X83743958Y-39334171D02*
X83805863Y-39562742D01*
X83805863Y-39562742D02*
X83805863Y-39962742D01*
X83805863Y-39962742D02*
X83743958Y-40191314D01*
X83743958Y-40191314D02*
X83620149Y-40305600D01*
X83620149Y-40305600D02*
X83496339Y-40362742D01*
X83496339Y-40362742D02*
X83248720Y-40362742D01*
X83248720Y-40362742D02*
X83124911Y-40305600D01*
X83124911Y-40305600D02*
X83001101Y-40191314D01*
X83001101Y-40191314D02*
X82939197Y-39962742D01*
X82939197Y-39962742D02*
X82939197Y-39562742D01*
X82939197Y-39562742D02*
X83001101Y-39334171D01*
X83001101Y-39334171D02*
X83124911Y-39219885D01*
X83124911Y-39219885D02*
X83248720Y-39162742D01*
X84363006Y-40362742D02*
X84363006Y-39162742D01*
X84363006Y-39162742D02*
X84858244Y-39162742D01*
X84858244Y-39162742D02*
X84982054Y-39219885D01*
X84982054Y-39219885D02*
X85043959Y-39277028D01*
X85043959Y-39277028D02*
X85105863Y-39391314D01*
X85105863Y-39391314D02*
X85105863Y-39562742D01*
X85105863Y-39562742D02*
X85043959Y-39677028D01*
X85043959Y-39677028D02*
X84982054Y-39734171D01*
X84982054Y-39734171D02*
X84858244Y-39791314D01*
X84858244Y-39791314D02*
X84363006Y-39791314D01*
X85910625Y-39791314D02*
X85910625Y-40362742D01*
X85477292Y-39162742D02*
X85910625Y-39791314D01*
X85910625Y-39791314D02*
X86343959Y-39162742D01*
X87520149Y-40362742D02*
X87086816Y-39791314D01*
X86777292Y-40362742D02*
X86777292Y-39162742D01*
X86777292Y-39162742D02*
X87272530Y-39162742D01*
X87272530Y-39162742D02*
X87396340Y-39219885D01*
X87396340Y-39219885D02*
X87458245Y-39277028D01*
X87458245Y-39277028D02*
X87520149Y-39391314D01*
X87520149Y-39391314D02*
X87520149Y-39562742D01*
X87520149Y-39562742D02*
X87458245Y-39677028D01*
X87458245Y-39677028D02*
X87396340Y-39734171D01*
X87396340Y-39734171D02*
X87272530Y-39791314D01*
X87272530Y-39791314D02*
X86777292Y-39791314D01*
X88077292Y-40362742D02*
X88077292Y-39162742D01*
X89377293Y-39219885D02*
X89253483Y-39162742D01*
X89253483Y-39162742D02*
X89067769Y-39162742D01*
X89067769Y-39162742D02*
X88882055Y-39219885D01*
X88882055Y-39219885D02*
X88758245Y-39334171D01*
X88758245Y-39334171D02*
X88696340Y-39448457D01*
X88696340Y-39448457D02*
X88634436Y-39677028D01*
X88634436Y-39677028D02*
X88634436Y-39848457D01*
X88634436Y-39848457D02*
X88696340Y-40077028D01*
X88696340Y-40077028D02*
X88758245Y-40191314D01*
X88758245Y-40191314D02*
X88882055Y-40305600D01*
X88882055Y-40305600D02*
X89067769Y-40362742D01*
X89067769Y-40362742D02*
X89191578Y-40362742D01*
X89191578Y-40362742D02*
X89377293Y-40305600D01*
X89377293Y-40305600D02*
X89439197Y-40248457D01*
X89439197Y-40248457D02*
X89439197Y-39848457D01*
X89439197Y-39848457D02*
X89191578Y-39848457D01*
X89996340Y-40362742D02*
X89996340Y-39162742D01*
X89996340Y-39734171D02*
X90739197Y-39734171D01*
X90739197Y-40362742D02*
X90739197Y-39162742D01*
X91172531Y-39162742D02*
X91915388Y-39162742D01*
X91543960Y-40362742D02*
X91543960Y-39162742D01*
X68978572Y-69486028D02*
X69264286Y-69486028D01*
X69264286Y-69486028D02*
X69407143Y-69557457D01*
X69407143Y-69557457D02*
X69550000Y-69700314D01*
X69550000Y-69700314D02*
X69621429Y-69986028D01*
X69621429Y-69986028D02*
X69621429Y-70486028D01*
X69621429Y-70486028D02*
X69550000Y-70771742D01*
X69550000Y-70771742D02*
X69407143Y-70914600D01*
X69407143Y-70914600D02*
X69264286Y-70986028D01*
X69264286Y-70986028D02*
X68978572Y-70986028D01*
X68978572Y-70986028D02*
X68835715Y-70914600D01*
X68835715Y-70914600D02*
X68692857Y-70771742D01*
X68692857Y-70771742D02*
X68621429Y-70486028D01*
X68621429Y-70486028D02*
X68621429Y-69986028D01*
X68621429Y-69986028D02*
X68692857Y-69700314D01*
X68692857Y-69700314D02*
X68835715Y-69557457D01*
X68835715Y-69557457D02*
X68978572Y-69486028D01*
X70550001Y-69486028D02*
X70835715Y-69486028D01*
X70835715Y-69486028D02*
X70978572Y-69557457D01*
X70978572Y-69557457D02*
X71121429Y-69700314D01*
X71121429Y-69700314D02*
X71192858Y-69986028D01*
X71192858Y-69986028D02*
X71192858Y-70486028D01*
X71192858Y-70486028D02*
X71121429Y-70771742D01*
X71121429Y-70771742D02*
X70978572Y-70914600D01*
X70978572Y-70914600D02*
X70835715Y-70986028D01*
X70835715Y-70986028D02*
X70550001Y-70986028D01*
X70550001Y-70986028D02*
X70407144Y-70914600D01*
X70407144Y-70914600D02*
X70264286Y-70771742D01*
X70264286Y-70771742D02*
X70192858Y-70486028D01*
X70192858Y-70486028D02*
X70192858Y-69986028D01*
X70192858Y-69986028D02*
X70264286Y-69700314D01*
X70264286Y-69700314D02*
X70407144Y-69557457D01*
X70407144Y-69557457D02*
X70550001Y-69486028D01*
X72478573Y-69986028D02*
X72478573Y-70986028D01*
X72121430Y-69414600D02*
X71764287Y-70486028D01*
X71764287Y-70486028D02*
X72692858Y-70486028D01*
X73121429Y-69486028D02*
X74050001Y-69486028D01*
X74050001Y-69486028D02*
X73550001Y-70057457D01*
X73550001Y-70057457D02*
X73764286Y-70057457D01*
X73764286Y-70057457D02*
X73907144Y-70128885D01*
X73907144Y-70128885D02*
X73978572Y-70200314D01*
X73978572Y-70200314D02*
X74050001Y-70343171D01*
X74050001Y-70343171D02*
X74050001Y-70700314D01*
X74050001Y-70700314D02*
X73978572Y-70843171D01*
X73978572Y-70843171D02*
X73907144Y-70914600D01*
X73907144Y-70914600D02*
X73764286Y-70986028D01*
X73764286Y-70986028D02*
X73335715Y-70986028D01*
X73335715Y-70986028D02*
X73192858Y-70914600D01*
X73192858Y-70914600D02*
X73121429Y-70843171D01*
X75407143Y-69486028D02*
X74692857Y-69486028D01*
X74692857Y-69486028D02*
X74621429Y-70200314D01*
X74621429Y-70200314D02*
X74692857Y-70128885D01*
X74692857Y-70128885D02*
X74835715Y-70057457D01*
X74835715Y-70057457D02*
X75192857Y-70057457D01*
X75192857Y-70057457D02*
X75335715Y-70128885D01*
X75335715Y-70128885D02*
X75407143Y-70200314D01*
X75407143Y-70200314D02*
X75478572Y-70343171D01*
X75478572Y-70343171D02*
X75478572Y-70700314D01*
X75478572Y-70700314D02*
X75407143Y-70843171D01*
X75407143Y-70843171D02*
X75335715Y-70914600D01*
X75335715Y-70914600D02*
X75192857Y-70986028D01*
X75192857Y-70986028D02*
X74835715Y-70986028D01*
X74835715Y-70986028D02*
X74692857Y-70914600D01*
X74692857Y-70914600D02*
X74621429Y-70843171D01*
X81719197Y-42910809D02*
X81719197Y-41710809D01*
X81719197Y-41710809D02*
X82016816Y-41710809D01*
X82016816Y-41710809D02*
X82195387Y-41767952D01*
X82195387Y-41767952D02*
X82314435Y-41882238D01*
X82314435Y-41882238D02*
X82373958Y-41996524D01*
X82373958Y-41996524D02*
X82433482Y-42225095D01*
X82433482Y-42225095D02*
X82433482Y-42396524D01*
X82433482Y-42396524D02*
X82373958Y-42625095D01*
X82373958Y-42625095D02*
X82314435Y-42739381D01*
X82314435Y-42739381D02*
X82195387Y-42853667D01*
X82195387Y-42853667D02*
X82016816Y-42910809D01*
X82016816Y-42910809D02*
X81719197Y-42910809D01*
X82969197Y-42282238D02*
X83385863Y-42282238D01*
X83564435Y-42910809D02*
X82969197Y-42910809D01*
X82969197Y-42910809D02*
X82969197Y-41710809D01*
X82969197Y-41710809D02*
X83564435Y-41710809D01*
X84040625Y-42853667D02*
X84219196Y-42910809D01*
X84219196Y-42910809D02*
X84516815Y-42910809D01*
X84516815Y-42910809D02*
X84635863Y-42853667D01*
X84635863Y-42853667D02*
X84695387Y-42796524D01*
X84695387Y-42796524D02*
X84754910Y-42682238D01*
X84754910Y-42682238D02*
X84754910Y-42567952D01*
X84754910Y-42567952D02*
X84695387Y-42453667D01*
X84695387Y-42453667D02*
X84635863Y-42396524D01*
X84635863Y-42396524D02*
X84516815Y-42339381D01*
X84516815Y-42339381D02*
X84278720Y-42282238D01*
X84278720Y-42282238D02*
X84159672Y-42225095D01*
X84159672Y-42225095D02*
X84100149Y-42167952D01*
X84100149Y-42167952D02*
X84040625Y-42053667D01*
X84040625Y-42053667D02*
X84040625Y-41939381D01*
X84040625Y-41939381D02*
X84100149Y-41825095D01*
X84100149Y-41825095D02*
X84159672Y-41767952D01*
X84159672Y-41767952D02*
X84278720Y-41710809D01*
X84278720Y-41710809D02*
X84576339Y-41710809D01*
X84576339Y-41710809D02*
X84754910Y-41767952D01*
X85290625Y-42910809D02*
X85290625Y-41710809D01*
X86540624Y-41767952D02*
X86421577Y-41710809D01*
X86421577Y-41710809D02*
X86243005Y-41710809D01*
X86243005Y-41710809D02*
X86064434Y-41767952D01*
X86064434Y-41767952D02*
X85945386Y-41882238D01*
X85945386Y-41882238D02*
X85885863Y-41996524D01*
X85885863Y-41996524D02*
X85826339Y-42225095D01*
X85826339Y-42225095D02*
X85826339Y-42396524D01*
X85826339Y-42396524D02*
X85885863Y-42625095D01*
X85885863Y-42625095D02*
X85945386Y-42739381D01*
X85945386Y-42739381D02*
X86064434Y-42853667D01*
X86064434Y-42853667D02*
X86243005Y-42910809D01*
X86243005Y-42910809D02*
X86362053Y-42910809D01*
X86362053Y-42910809D02*
X86540624Y-42853667D01*
X86540624Y-42853667D02*
X86600148Y-42796524D01*
X86600148Y-42796524D02*
X86600148Y-42396524D01*
X86600148Y-42396524D02*
X86362053Y-42396524D01*
X87135863Y-42910809D02*
X87135863Y-41710809D01*
X87135863Y-41710809D02*
X87850148Y-42910809D01*
X87850148Y-42910809D02*
X87850148Y-41710809D01*
X88445387Y-42282238D02*
X88862053Y-42282238D01*
X89040625Y-42910809D02*
X88445387Y-42910809D01*
X88445387Y-42910809D02*
X88445387Y-41710809D01*
X88445387Y-41710809D02*
X89040625Y-41710809D01*
X89576339Y-42910809D02*
X89576339Y-41710809D01*
X89576339Y-41710809D02*
X89873958Y-41710809D01*
X89873958Y-41710809D02*
X90052529Y-41767952D01*
X90052529Y-41767952D02*
X90171577Y-41882238D01*
X90171577Y-41882238D02*
X90231100Y-41996524D01*
X90231100Y-41996524D02*
X90290624Y-42225095D01*
X90290624Y-42225095D02*
X90290624Y-42396524D01*
X90290624Y-42396524D02*
X90231100Y-42625095D01*
X90231100Y-42625095D02*
X90171577Y-42739381D01*
X90171577Y-42739381D02*
X90052529Y-42853667D01*
X90052529Y-42853667D02*
X89873958Y-42910809D01*
X89873958Y-42910809D02*
X89576339Y-42910809D01*
X92790624Y-42910809D02*
X92731101Y-42910809D01*
X92731101Y-42910809D02*
X92612053Y-42853667D01*
X92612053Y-42853667D02*
X92433481Y-42682238D01*
X92433481Y-42682238D02*
X92135862Y-42339381D01*
X92135862Y-42339381D02*
X92016815Y-42167952D01*
X92016815Y-42167952D02*
X91957291Y-41996524D01*
X91957291Y-41996524D02*
X91957291Y-41882238D01*
X91957291Y-41882238D02*
X92016815Y-41767952D01*
X92016815Y-41767952D02*
X92135862Y-41710809D01*
X92135862Y-41710809D02*
X92195386Y-41710809D01*
X92195386Y-41710809D02*
X92314434Y-41767952D01*
X92314434Y-41767952D02*
X92373958Y-41882238D01*
X92373958Y-41882238D02*
X92373958Y-41939381D01*
X92373958Y-41939381D02*
X92314434Y-42053667D01*
X92314434Y-42053667D02*
X92254910Y-42110809D01*
X92254910Y-42110809D02*
X91897767Y-42339381D01*
X91897767Y-42339381D02*
X91838243Y-42396524D01*
X91838243Y-42396524D02*
X91778720Y-42510809D01*
X91778720Y-42510809D02*
X91778720Y-42682238D01*
X91778720Y-42682238D02*
X91838243Y-42796524D01*
X91838243Y-42796524D02*
X91897767Y-42853667D01*
X91897767Y-42853667D02*
X92016815Y-42910809D01*
X92016815Y-42910809D02*
X92195386Y-42910809D01*
X92195386Y-42910809D02*
X92314434Y-42853667D01*
X92314434Y-42853667D02*
X92373958Y-42796524D01*
X92373958Y-42796524D02*
X92552529Y-42567952D01*
X92552529Y-42567952D02*
X92612053Y-42396524D01*
X92612053Y-42396524D02*
X92612053Y-42282238D01*
X94278720Y-42910809D02*
X94278720Y-41710809D01*
X94278720Y-41710809D02*
X94695386Y-42567952D01*
X94695386Y-42567952D02*
X95112053Y-41710809D01*
X95112053Y-41710809D02*
X95112053Y-42910809D01*
X95647767Y-42567952D02*
X96243005Y-42567952D01*
X95528719Y-42910809D02*
X95945386Y-41710809D01*
X95945386Y-41710809D02*
X96362052Y-42910809D01*
X96778720Y-42910809D02*
X96778720Y-41710809D01*
X96778720Y-41710809D02*
X97493005Y-42910809D01*
X97493005Y-42910809D02*
X97493005Y-41710809D01*
X98088244Y-41710809D02*
X98088244Y-42682238D01*
X98088244Y-42682238D02*
X98147767Y-42796524D01*
X98147767Y-42796524D02*
X98207291Y-42853667D01*
X98207291Y-42853667D02*
X98326339Y-42910809D01*
X98326339Y-42910809D02*
X98564434Y-42910809D01*
X98564434Y-42910809D02*
X98683482Y-42853667D01*
X98683482Y-42853667D02*
X98743005Y-42796524D01*
X98743005Y-42796524D02*
X98802529Y-42682238D01*
X98802529Y-42682238D02*
X98802529Y-41710809D01*
X99814434Y-42282238D02*
X99397768Y-42282238D01*
X99397768Y-42910809D02*
X99397768Y-41710809D01*
X99397768Y-41710809D02*
X99993006Y-41710809D01*
X100409673Y-42567952D02*
X101004911Y-42567952D01*
X100290625Y-42910809D02*
X100707292Y-41710809D01*
X100707292Y-41710809D02*
X101123958Y-42910809D01*
X102254911Y-42796524D02*
X102195387Y-42853667D01*
X102195387Y-42853667D02*
X102016816Y-42910809D01*
X102016816Y-42910809D02*
X101897768Y-42910809D01*
X101897768Y-42910809D02*
X101719197Y-42853667D01*
X101719197Y-42853667D02*
X101600149Y-42739381D01*
X101600149Y-42739381D02*
X101540626Y-42625095D01*
X101540626Y-42625095D02*
X101481102Y-42396524D01*
X101481102Y-42396524D02*
X101481102Y-42225095D01*
X101481102Y-42225095D02*
X101540626Y-41996524D01*
X101540626Y-41996524D02*
X101600149Y-41882238D01*
X101600149Y-41882238D02*
X101719197Y-41767952D01*
X101719197Y-41767952D02*
X101897768Y-41710809D01*
X101897768Y-41710809D02*
X102016816Y-41710809D01*
X102016816Y-41710809D02*
X102195387Y-41767952D01*
X102195387Y-41767952D02*
X102254911Y-41825095D01*
X102612054Y-41710809D02*
X103326340Y-41710809D01*
X102969197Y-42910809D02*
X102969197Y-41710809D01*
X103743007Y-41710809D02*
X103743007Y-42682238D01*
X103743007Y-42682238D02*
X103802530Y-42796524D01*
X103802530Y-42796524D02*
X103862054Y-42853667D01*
X103862054Y-42853667D02*
X103981102Y-42910809D01*
X103981102Y-42910809D02*
X104219197Y-42910809D01*
X104219197Y-42910809D02*
X104338245Y-42853667D01*
X104338245Y-42853667D02*
X104397768Y-42796524D01*
X104397768Y-42796524D02*
X104457292Y-42682238D01*
X104457292Y-42682238D02*
X104457292Y-41710809D01*
X105766816Y-42910809D02*
X105350150Y-42339381D01*
X105052531Y-42910809D02*
X105052531Y-41710809D01*
X105052531Y-41710809D02*
X105528721Y-41710809D01*
X105528721Y-41710809D02*
X105647769Y-41767952D01*
X105647769Y-41767952D02*
X105707292Y-41825095D01*
X105707292Y-41825095D02*
X105766816Y-41939381D01*
X105766816Y-41939381D02*
X105766816Y-42110809D01*
X105766816Y-42110809D02*
X105707292Y-42225095D01*
X105707292Y-42225095D02*
X105647769Y-42282238D01*
X105647769Y-42282238D02*
X105528721Y-42339381D01*
X105528721Y-42339381D02*
X105052531Y-42339381D01*
X106302531Y-42282238D02*
X106719197Y-42282238D01*
X106897769Y-42910809D02*
X106302531Y-42910809D01*
X106302531Y-42910809D02*
X106302531Y-41710809D01*
X106302531Y-41710809D02*
X106897769Y-41710809D01*
X107433483Y-42910809D02*
X107433483Y-41710809D01*
X107433483Y-41710809D02*
X107731102Y-41710809D01*
X107731102Y-41710809D02*
X107909673Y-41767952D01*
X107909673Y-41767952D02*
X108028721Y-41882238D01*
X108028721Y-41882238D02*
X108088244Y-41996524D01*
X108088244Y-41996524D02*
X108147768Y-42225095D01*
X108147768Y-42225095D02*
X108147768Y-42396524D01*
X108147768Y-42396524D02*
X108088244Y-42625095D01*
X108088244Y-42625095D02*
X108028721Y-42739381D01*
X108028721Y-42739381D02*
X107909673Y-42853667D01*
X107909673Y-42853667D02*
X107731102Y-42910809D01*
X107731102Y-42910809D02*
X107433483Y-42910809D01*
X110052530Y-42282238D02*
X109635864Y-42282238D01*
X109635864Y-42910809D02*
X109635864Y-41710809D01*
X109635864Y-41710809D02*
X110231102Y-41710809D01*
X110945388Y-41710809D02*
X111183483Y-41710809D01*
X111183483Y-41710809D02*
X111302531Y-41767952D01*
X111302531Y-41767952D02*
X111421578Y-41882238D01*
X111421578Y-41882238D02*
X111481102Y-42110809D01*
X111481102Y-42110809D02*
X111481102Y-42510809D01*
X111481102Y-42510809D02*
X111421578Y-42739381D01*
X111421578Y-42739381D02*
X111302531Y-42853667D01*
X111302531Y-42853667D02*
X111183483Y-42910809D01*
X111183483Y-42910809D02*
X110945388Y-42910809D01*
X110945388Y-42910809D02*
X110826340Y-42853667D01*
X110826340Y-42853667D02*
X110707293Y-42739381D01*
X110707293Y-42739381D02*
X110647769Y-42510809D01*
X110647769Y-42510809D02*
X110647769Y-42110809D01*
X110647769Y-42110809D02*
X110707293Y-41882238D01*
X110707293Y-41882238D02*
X110826340Y-41767952D01*
X110826340Y-41767952D02*
X110945388Y-41710809D01*
X112731102Y-42910809D02*
X112314436Y-42339381D01*
X112016817Y-42910809D02*
X112016817Y-41710809D01*
X112016817Y-41710809D02*
X112493007Y-41710809D01*
X112493007Y-41710809D02*
X112612055Y-41767952D01*
X112612055Y-41767952D02*
X112671578Y-41825095D01*
X112671578Y-41825095D02*
X112731102Y-41939381D01*
X112731102Y-41939381D02*
X112731102Y-42110809D01*
X112731102Y-42110809D02*
X112671578Y-42225095D01*
X112671578Y-42225095D02*
X112612055Y-42282238D01*
X112612055Y-42282238D02*
X112493007Y-42339381D01*
X112493007Y-42339381D02*
X112016817Y-42339381D01*
X114219198Y-42910809D02*
X114219198Y-41710809D01*
X114219198Y-41710809D02*
X114635864Y-42567952D01*
X114635864Y-42567952D02*
X115052531Y-41710809D01*
X115052531Y-41710809D02*
X115052531Y-42910809D01*
X115647769Y-42910809D02*
X115647769Y-41710809D01*
X116243007Y-42910809D02*
X116243007Y-41710809D01*
X116243007Y-41710809D02*
X116957292Y-42910809D01*
X116957292Y-42910809D02*
X116957292Y-41710809D01*
X117552531Y-42910809D02*
X117552531Y-41710809D01*
X117552531Y-41710809D02*
X117850150Y-41710809D01*
X117850150Y-41710809D02*
X118028721Y-41767952D01*
X118028721Y-41767952D02*
X118147769Y-41882238D01*
X118147769Y-41882238D02*
X118207292Y-41996524D01*
X118207292Y-41996524D02*
X118266816Y-42225095D01*
X118266816Y-42225095D02*
X118266816Y-42396524D01*
X118266816Y-42396524D02*
X118207292Y-42625095D01*
X118207292Y-42625095D02*
X118147769Y-42739381D01*
X118147769Y-42739381D02*
X118028721Y-42853667D01*
X118028721Y-42853667D02*
X117850150Y-42910809D01*
X117850150Y-42910809D02*
X117552531Y-42910809D01*
X118743007Y-42853667D02*
X118921578Y-42910809D01*
X118921578Y-42910809D02*
X119219197Y-42910809D01*
X119219197Y-42910809D02*
X119338245Y-42853667D01*
X119338245Y-42853667D02*
X119397769Y-42796524D01*
X119397769Y-42796524D02*
X119457292Y-42682238D01*
X119457292Y-42682238D02*
X119457292Y-42567952D01*
X119457292Y-42567952D02*
X119397769Y-42453667D01*
X119397769Y-42453667D02*
X119338245Y-42396524D01*
X119338245Y-42396524D02*
X119219197Y-42339381D01*
X119219197Y-42339381D02*
X118981102Y-42282238D01*
X118981102Y-42282238D02*
X118862054Y-42225095D01*
X118862054Y-42225095D02*
X118802531Y-42167952D01*
X118802531Y-42167952D02*
X118743007Y-42053667D01*
X118743007Y-42053667D02*
X118743007Y-41939381D01*
X118743007Y-41939381D02*
X118802531Y-41825095D01*
X118802531Y-41825095D02*
X118862054Y-41767952D01*
X118862054Y-41767952D02*
X118981102Y-41710809D01*
X118981102Y-41710809D02*
X119278721Y-41710809D01*
X119278721Y-41710809D02*
X119457292Y-41767952D01*
X120707292Y-42796524D02*
X120647768Y-42853667D01*
X120647768Y-42853667D02*
X120469197Y-42910809D01*
X120469197Y-42910809D02*
X120350149Y-42910809D01*
X120350149Y-42910809D02*
X120171578Y-42853667D01*
X120171578Y-42853667D02*
X120052530Y-42739381D01*
X120052530Y-42739381D02*
X119993007Y-42625095D01*
X119993007Y-42625095D02*
X119933483Y-42396524D01*
X119933483Y-42396524D02*
X119933483Y-42225095D01*
X119933483Y-42225095D02*
X119993007Y-41996524D01*
X119993007Y-41996524D02*
X120052530Y-41882238D01*
X120052530Y-41882238D02*
X120171578Y-41767952D01*
X120171578Y-41767952D02*
X120350149Y-41710809D01*
X120350149Y-41710809D02*
X120469197Y-41710809D01*
X120469197Y-41710809D02*
X120647768Y-41767952D01*
X120647768Y-41767952D02*
X120707292Y-41825095D01*
X121183483Y-42567952D02*
X121778721Y-42567952D01*
X121064435Y-42910809D02*
X121481102Y-41710809D01*
X121481102Y-41710809D02*
X121897768Y-42910809D01*
X122314436Y-42910809D02*
X122314436Y-41710809D01*
X122314436Y-41710809D02*
X122790626Y-41710809D01*
X122790626Y-41710809D02*
X122909674Y-41767952D01*
X122909674Y-41767952D02*
X122969197Y-41825095D01*
X122969197Y-41825095D02*
X123028721Y-41939381D01*
X123028721Y-41939381D02*
X123028721Y-42110809D01*
X123028721Y-42110809D02*
X122969197Y-42225095D01*
X122969197Y-42225095D02*
X122909674Y-42282238D01*
X122909674Y-42282238D02*
X122790626Y-42339381D01*
X122790626Y-42339381D02*
X122314436Y-42339381D01*
X123564436Y-42282238D02*
X123981102Y-42282238D01*
X124159674Y-42910809D02*
X123564436Y-42910809D01*
X123564436Y-42910809D02*
X123564436Y-41710809D01*
X123564436Y-41710809D02*
X124159674Y-41710809D01*
X82135863Y-44214171D02*
X82314435Y-44271314D01*
X82314435Y-44271314D02*
X82373958Y-44328457D01*
X82373958Y-44328457D02*
X82433482Y-44442742D01*
X82433482Y-44442742D02*
X82433482Y-44614171D01*
X82433482Y-44614171D02*
X82373958Y-44728457D01*
X82373958Y-44728457D02*
X82314435Y-44785600D01*
X82314435Y-44785600D02*
X82195387Y-44842742D01*
X82195387Y-44842742D02*
X81719197Y-44842742D01*
X81719197Y-44842742D02*
X81719197Y-43642742D01*
X81719197Y-43642742D02*
X82135863Y-43642742D01*
X82135863Y-43642742D02*
X82254911Y-43699885D01*
X82254911Y-43699885D02*
X82314435Y-43757028D01*
X82314435Y-43757028D02*
X82373958Y-43871314D01*
X82373958Y-43871314D02*
X82373958Y-43985600D01*
X82373958Y-43985600D02*
X82314435Y-44099885D01*
X82314435Y-44099885D02*
X82254911Y-44157028D01*
X82254911Y-44157028D02*
X82135863Y-44214171D01*
X82135863Y-44214171D02*
X81719197Y-44214171D01*
X83207292Y-44271314D02*
X83207292Y-44842742D01*
X82790625Y-43642742D02*
X83207292Y-44271314D01*
X83207292Y-44271314D02*
X83623958Y-43642742D01*
X84993007Y-44842742D02*
X84993007Y-43642742D01*
X84993007Y-43642742D02*
X85290626Y-43642742D01*
X85290626Y-43642742D02*
X85469197Y-43699885D01*
X85469197Y-43699885D02*
X85588245Y-43814171D01*
X85588245Y-43814171D02*
X85647768Y-43928457D01*
X85647768Y-43928457D02*
X85707292Y-44157028D01*
X85707292Y-44157028D02*
X85707292Y-44328457D01*
X85707292Y-44328457D02*
X85647768Y-44557028D01*
X85647768Y-44557028D02*
X85588245Y-44671314D01*
X85588245Y-44671314D02*
X85469197Y-44785600D01*
X85469197Y-44785600D02*
X85290626Y-44842742D01*
X85290626Y-44842742D02*
X84993007Y-44842742D01*
X86243007Y-43642742D02*
X86243007Y-44614171D01*
X86243007Y-44614171D02*
X86302530Y-44728457D01*
X86302530Y-44728457D02*
X86362054Y-44785600D01*
X86362054Y-44785600D02*
X86481102Y-44842742D01*
X86481102Y-44842742D02*
X86719197Y-44842742D01*
X86719197Y-44842742D02*
X86838245Y-44785600D01*
X86838245Y-44785600D02*
X86897768Y-44728457D01*
X86897768Y-44728457D02*
X86957292Y-44614171D01*
X86957292Y-44614171D02*
X86957292Y-43642742D01*
X88266816Y-44842742D02*
X87850150Y-44271314D01*
X87552531Y-44842742D02*
X87552531Y-43642742D01*
X87552531Y-43642742D02*
X88028721Y-43642742D01*
X88028721Y-43642742D02*
X88147769Y-43699885D01*
X88147769Y-43699885D02*
X88207292Y-43757028D01*
X88207292Y-43757028D02*
X88266816Y-43871314D01*
X88266816Y-43871314D02*
X88266816Y-44042742D01*
X88266816Y-44042742D02*
X88207292Y-44157028D01*
X88207292Y-44157028D02*
X88147769Y-44214171D01*
X88147769Y-44214171D02*
X88028721Y-44271314D01*
X88028721Y-44271314D02*
X87552531Y-44271314D01*
X88743007Y-44499885D02*
X89338245Y-44499885D01*
X88623959Y-44842742D02*
X89040626Y-43642742D01*
X89040626Y-43642742D02*
X89457292Y-44842742D01*
X90469198Y-44842742D02*
X89873960Y-44842742D01*
X89873960Y-44842742D02*
X89873960Y-43642742D01*
X91123960Y-43642742D02*
X91362055Y-43642742D01*
X91362055Y-43642742D02*
X91481103Y-43699885D01*
X91481103Y-43699885D02*
X91600150Y-43814171D01*
X91600150Y-43814171D02*
X91659674Y-44042742D01*
X91659674Y-44042742D02*
X91659674Y-44442742D01*
X91659674Y-44442742D02*
X91600150Y-44671314D01*
X91600150Y-44671314D02*
X91481103Y-44785600D01*
X91481103Y-44785600D02*
X91362055Y-44842742D01*
X91362055Y-44842742D02*
X91123960Y-44842742D01*
X91123960Y-44842742D02*
X91004912Y-44785600D01*
X91004912Y-44785600D02*
X90885865Y-44671314D01*
X90885865Y-44671314D02*
X90826341Y-44442742D01*
X90826341Y-44442742D02*
X90826341Y-44042742D01*
X90826341Y-44042742D02*
X90885865Y-43814171D01*
X90885865Y-43814171D02*
X91004912Y-43699885D01*
X91004912Y-43699885D02*
X91123960Y-43642742D01*
X92850150Y-43699885D02*
X92731103Y-43642742D01*
X92731103Y-43642742D02*
X92552531Y-43642742D01*
X92552531Y-43642742D02*
X92373960Y-43699885D01*
X92373960Y-43699885D02*
X92254912Y-43814171D01*
X92254912Y-43814171D02*
X92195389Y-43928457D01*
X92195389Y-43928457D02*
X92135865Y-44157028D01*
X92135865Y-44157028D02*
X92135865Y-44328457D01*
X92135865Y-44328457D02*
X92195389Y-44557028D01*
X92195389Y-44557028D02*
X92254912Y-44671314D01*
X92254912Y-44671314D02*
X92373960Y-44785600D01*
X92373960Y-44785600D02*
X92552531Y-44842742D01*
X92552531Y-44842742D02*
X92671579Y-44842742D01*
X92671579Y-44842742D02*
X92850150Y-44785600D01*
X92850150Y-44785600D02*
X92909674Y-44728457D01*
X92909674Y-44728457D02*
X92909674Y-44328457D01*
X92909674Y-44328457D02*
X92671579Y-44328457D01*
X93445389Y-44842742D02*
X93445389Y-43642742D01*
X94754912Y-44728457D02*
X94695388Y-44785600D01*
X94695388Y-44785600D02*
X94516817Y-44842742D01*
X94516817Y-44842742D02*
X94397769Y-44842742D01*
X94397769Y-44842742D02*
X94219198Y-44785600D01*
X94219198Y-44785600D02*
X94100150Y-44671314D01*
X94100150Y-44671314D02*
X94040627Y-44557028D01*
X94040627Y-44557028D02*
X93981103Y-44328457D01*
X93981103Y-44328457D02*
X93981103Y-44157028D01*
X93981103Y-44157028D02*
X94040627Y-43928457D01*
X94040627Y-43928457D02*
X94100150Y-43814171D01*
X94100150Y-43814171D02*
X94219198Y-43699885D01*
X94219198Y-43699885D02*
X94397769Y-43642742D01*
X94397769Y-43642742D02*
X94516817Y-43642742D01*
X94516817Y-43642742D02*
X94695388Y-43699885D01*
X94695388Y-43699885D02*
X94754912Y-43757028D01*
X95350150Y-44785600D02*
X95350150Y-44842742D01*
X95350150Y-44842742D02*
X95290627Y-44957028D01*
X95290627Y-44957028D02*
X95231103Y-45014171D01*
X96778722Y-44785600D02*
X96957293Y-44842742D01*
X96957293Y-44842742D02*
X97254912Y-44842742D01*
X97254912Y-44842742D02*
X97373960Y-44785600D01*
X97373960Y-44785600D02*
X97433484Y-44728457D01*
X97433484Y-44728457D02*
X97493007Y-44614171D01*
X97493007Y-44614171D02*
X97493007Y-44499885D01*
X97493007Y-44499885D02*
X97433484Y-44385600D01*
X97433484Y-44385600D02*
X97373960Y-44328457D01*
X97373960Y-44328457D02*
X97254912Y-44271314D01*
X97254912Y-44271314D02*
X97016817Y-44214171D01*
X97016817Y-44214171D02*
X96897769Y-44157028D01*
X96897769Y-44157028D02*
X96838246Y-44099885D01*
X96838246Y-44099885D02*
X96778722Y-43985600D01*
X96778722Y-43985600D02*
X96778722Y-43871314D01*
X96778722Y-43871314D02*
X96838246Y-43757028D01*
X96838246Y-43757028D02*
X96897769Y-43699885D01*
X96897769Y-43699885D02*
X97016817Y-43642742D01*
X97016817Y-43642742D02*
X97314436Y-43642742D01*
X97314436Y-43642742D02*
X97493007Y-43699885D01*
X97969198Y-44499885D02*
X98564436Y-44499885D01*
X97850150Y-44842742D02*
X98266817Y-43642742D01*
X98266817Y-43642742D02*
X98683483Y-44842742D01*
X99100151Y-44842742D02*
X99100151Y-43642742D01*
X99100151Y-43642742D02*
X99814436Y-44842742D01*
X99814436Y-44842742D02*
X99814436Y-43642742D01*
X101719198Y-43642742D02*
X101719198Y-44499885D01*
X101719198Y-44499885D02*
X101659675Y-44671314D01*
X101659675Y-44671314D02*
X101540627Y-44785600D01*
X101540627Y-44785600D02*
X101362056Y-44842742D01*
X101362056Y-44842742D02*
X101243008Y-44842742D01*
X102552532Y-43642742D02*
X102790627Y-43642742D01*
X102790627Y-43642742D02*
X102909675Y-43699885D01*
X102909675Y-43699885D02*
X103028722Y-43814171D01*
X103028722Y-43814171D02*
X103088246Y-44042742D01*
X103088246Y-44042742D02*
X103088246Y-44442742D01*
X103088246Y-44442742D02*
X103028722Y-44671314D01*
X103028722Y-44671314D02*
X102909675Y-44785600D01*
X102909675Y-44785600D02*
X102790627Y-44842742D01*
X102790627Y-44842742D02*
X102552532Y-44842742D01*
X102552532Y-44842742D02*
X102433484Y-44785600D01*
X102433484Y-44785600D02*
X102314437Y-44671314D01*
X102314437Y-44671314D02*
X102254913Y-44442742D01*
X102254913Y-44442742D02*
X102254913Y-44042742D01*
X102254913Y-44042742D02*
X102314437Y-43814171D01*
X102314437Y-43814171D02*
X102433484Y-43699885D01*
X102433484Y-43699885D02*
X102552532Y-43642742D01*
X103564437Y-44785600D02*
X103743008Y-44842742D01*
X103743008Y-44842742D02*
X104040627Y-44842742D01*
X104040627Y-44842742D02*
X104159675Y-44785600D01*
X104159675Y-44785600D02*
X104219199Y-44728457D01*
X104219199Y-44728457D02*
X104278722Y-44614171D01*
X104278722Y-44614171D02*
X104278722Y-44499885D01*
X104278722Y-44499885D02*
X104219199Y-44385600D01*
X104219199Y-44385600D02*
X104159675Y-44328457D01*
X104159675Y-44328457D02*
X104040627Y-44271314D01*
X104040627Y-44271314D02*
X103802532Y-44214171D01*
X103802532Y-44214171D02*
X103683484Y-44157028D01*
X103683484Y-44157028D02*
X103623961Y-44099885D01*
X103623961Y-44099885D02*
X103564437Y-43985600D01*
X103564437Y-43985600D02*
X103564437Y-43871314D01*
X103564437Y-43871314D02*
X103623961Y-43757028D01*
X103623961Y-43757028D02*
X103683484Y-43699885D01*
X103683484Y-43699885D02*
X103802532Y-43642742D01*
X103802532Y-43642742D02*
X104100151Y-43642742D01*
X104100151Y-43642742D02*
X104278722Y-43699885D01*
X104814437Y-44214171D02*
X105231103Y-44214171D01*
X105409675Y-44842742D02*
X104814437Y-44842742D01*
X104814437Y-44842742D02*
X104814437Y-43642742D01*
X104814437Y-43642742D02*
X105409675Y-43642742D01*
X106004912Y-44785600D02*
X106004912Y-44842742D01*
X106004912Y-44842742D02*
X105945389Y-44957028D01*
X105945389Y-44957028D02*
X105885865Y-45014171D01*
X108207293Y-44728457D02*
X108147769Y-44785600D01*
X108147769Y-44785600D02*
X107969198Y-44842742D01*
X107969198Y-44842742D02*
X107850150Y-44842742D01*
X107850150Y-44842742D02*
X107671579Y-44785600D01*
X107671579Y-44785600D02*
X107552531Y-44671314D01*
X107552531Y-44671314D02*
X107493008Y-44557028D01*
X107493008Y-44557028D02*
X107433484Y-44328457D01*
X107433484Y-44328457D02*
X107433484Y-44157028D01*
X107433484Y-44157028D02*
X107493008Y-43928457D01*
X107493008Y-43928457D02*
X107552531Y-43814171D01*
X107552531Y-43814171D02*
X107671579Y-43699885D01*
X107671579Y-43699885D02*
X107850150Y-43642742D01*
X107850150Y-43642742D02*
X107969198Y-43642742D01*
X107969198Y-43642742D02*
X108147769Y-43699885D01*
X108147769Y-43699885D02*
X108207293Y-43757028D01*
X108683484Y-44499885D02*
X109278722Y-44499885D01*
X108564436Y-44842742D02*
X108981103Y-43642742D01*
X108981103Y-43642742D02*
X109397769Y-44842742D01*
X109814437Y-44728457D02*
X109873960Y-44785600D01*
X109873960Y-44785600D02*
X109814437Y-44842742D01*
X109814437Y-44842742D02*
X109754913Y-44785600D01*
X109754913Y-44785600D02*
X109814437Y-44728457D01*
X109814437Y-44728457D02*
X109814437Y-44842742D01*
X95373958Y-40248457D02*
X95312054Y-40305600D01*
X95312054Y-40305600D02*
X95126339Y-40362742D01*
X95126339Y-40362742D02*
X95002530Y-40362742D01*
X95002530Y-40362742D02*
X94816816Y-40305600D01*
X94816816Y-40305600D02*
X94693006Y-40191314D01*
X94693006Y-40191314D02*
X94631101Y-40077028D01*
X94631101Y-40077028D02*
X94569197Y-39848457D01*
X94569197Y-39848457D02*
X94569197Y-39677028D01*
X94569197Y-39677028D02*
X94631101Y-39448457D01*
X94631101Y-39448457D02*
X94693006Y-39334171D01*
X94693006Y-39334171D02*
X94816816Y-39219885D01*
X94816816Y-39219885D02*
X95002530Y-39162742D01*
X95002530Y-39162742D02*
X95126339Y-39162742D01*
X95126339Y-39162742D02*
X95312054Y-39219885D01*
X95312054Y-39219885D02*
X95373958Y-39277028D01*
X98842054Y-40362742D02*
X98099197Y-40362742D01*
X98470625Y-40362742D02*
X98470625Y-39162742D01*
X98470625Y-39162742D02*
X98346816Y-39334171D01*
X98346816Y-39334171D02*
X98223006Y-39448457D01*
X98223006Y-39448457D02*
X98099197Y-39505600D01*
X99461101Y-40362742D02*
X99708720Y-40362742D01*
X99708720Y-40362742D02*
X99832530Y-40305600D01*
X99832530Y-40305600D02*
X99894434Y-40248457D01*
X99894434Y-40248457D02*
X100018244Y-40077028D01*
X100018244Y-40077028D02*
X100080149Y-39848457D01*
X100080149Y-39848457D02*
X100080149Y-39391314D01*
X100080149Y-39391314D02*
X100018244Y-39277028D01*
X100018244Y-39277028D02*
X99956339Y-39219885D01*
X99956339Y-39219885D02*
X99832530Y-39162742D01*
X99832530Y-39162742D02*
X99584911Y-39162742D01*
X99584911Y-39162742D02*
X99461101Y-39219885D01*
X99461101Y-39219885D02*
X99399196Y-39277028D01*
X99399196Y-39277028D02*
X99337292Y-39391314D01*
X99337292Y-39391314D02*
X99337292Y-39677028D01*
X99337292Y-39677028D02*
X99399196Y-39791314D01*
X99399196Y-39791314D02*
X99461101Y-39848457D01*
X99461101Y-39848457D02*
X99584911Y-39905600D01*
X99584911Y-39905600D02*
X99832530Y-39905600D01*
X99832530Y-39905600D02*
X99956339Y-39848457D01*
X99956339Y-39848457D02*
X100018244Y-39791314D01*
X100018244Y-39791314D02*
X100080149Y-39677028D01*
X100823006Y-39677028D02*
X100699196Y-39619885D01*
X100699196Y-39619885D02*
X100637291Y-39562742D01*
X100637291Y-39562742D02*
X100575387Y-39448457D01*
X100575387Y-39448457D02*
X100575387Y-39391314D01*
X100575387Y-39391314D02*
X100637291Y-39277028D01*
X100637291Y-39277028D02*
X100699196Y-39219885D01*
X100699196Y-39219885D02*
X100823006Y-39162742D01*
X100823006Y-39162742D02*
X101070625Y-39162742D01*
X101070625Y-39162742D02*
X101194434Y-39219885D01*
X101194434Y-39219885D02*
X101256339Y-39277028D01*
X101256339Y-39277028D02*
X101318244Y-39391314D01*
X101318244Y-39391314D02*
X101318244Y-39448457D01*
X101318244Y-39448457D02*
X101256339Y-39562742D01*
X101256339Y-39562742D02*
X101194434Y-39619885D01*
X101194434Y-39619885D02*
X101070625Y-39677028D01*
X101070625Y-39677028D02*
X100823006Y-39677028D01*
X100823006Y-39677028D02*
X100699196Y-39734171D01*
X100699196Y-39734171D02*
X100637291Y-39791314D01*
X100637291Y-39791314D02*
X100575387Y-39905600D01*
X100575387Y-39905600D02*
X100575387Y-40134171D01*
X100575387Y-40134171D02*
X100637291Y-40248457D01*
X100637291Y-40248457D02*
X100699196Y-40305600D01*
X100699196Y-40305600D02*
X100823006Y-40362742D01*
X100823006Y-40362742D02*
X101070625Y-40362742D01*
X101070625Y-40362742D02*
X101194434Y-40305600D01*
X101194434Y-40305600D02*
X101256339Y-40248457D01*
X101256339Y-40248457D02*
X101318244Y-40134171D01*
X101318244Y-40134171D02*
X101318244Y-39905600D01*
X101318244Y-39905600D02*
X101256339Y-39791314D01*
X101256339Y-39791314D02*
X101194434Y-39734171D01*
X101194434Y-39734171D02*
X101070625Y-39677028D01*
X102432529Y-39162742D02*
X102184910Y-39162742D01*
X102184910Y-39162742D02*
X102061101Y-39219885D01*
X102061101Y-39219885D02*
X101999196Y-39277028D01*
X101999196Y-39277028D02*
X101875386Y-39448457D01*
X101875386Y-39448457D02*
X101813482Y-39677028D01*
X101813482Y-39677028D02*
X101813482Y-40134171D01*
X101813482Y-40134171D02*
X101875386Y-40248457D01*
X101875386Y-40248457D02*
X101937291Y-40305600D01*
X101937291Y-40305600D02*
X102061101Y-40362742D01*
X102061101Y-40362742D02*
X102308720Y-40362742D01*
X102308720Y-40362742D02*
X102432529Y-40305600D01*
X102432529Y-40305600D02*
X102494434Y-40248457D01*
X102494434Y-40248457D02*
X102556339Y-40134171D01*
X102556339Y-40134171D02*
X102556339Y-39848457D01*
X102556339Y-39848457D02*
X102494434Y-39734171D01*
X102494434Y-39734171D02*
X102432529Y-39677028D01*
X102432529Y-39677028D02*
X102308720Y-39619885D01*
X102308720Y-39619885D02*
X102061101Y-39619885D01*
X102061101Y-39619885D02*
X101937291Y-39677028D01*
X101937291Y-39677028D02*
X101875386Y-39734171D01*
X101875386Y-39734171D02*
X101813482Y-39848457D01*
X105094433Y-40362742D02*
X105094433Y-39162742D01*
X105094433Y-39162742D02*
X105527767Y-40019885D01*
X105527767Y-40019885D02*
X105961100Y-39162742D01*
X105961100Y-39162742D02*
X105961100Y-40362742D01*
X106580147Y-40362742D02*
X106580147Y-39162742D01*
X107199195Y-40362742D02*
X107199195Y-39162742D01*
X107199195Y-39162742D02*
X107942052Y-40362742D01*
X107942052Y-40362742D02*
X107942052Y-39162742D01*
X108561100Y-40362742D02*
X108561100Y-39162742D01*
X108561100Y-39162742D02*
X108870624Y-39162742D01*
X108870624Y-39162742D02*
X109056338Y-39219885D01*
X109056338Y-39219885D02*
X109180148Y-39334171D01*
X109180148Y-39334171D02*
X109242053Y-39448457D01*
X109242053Y-39448457D02*
X109303957Y-39677028D01*
X109303957Y-39677028D02*
X109303957Y-39848457D01*
X109303957Y-39848457D02*
X109242053Y-40077028D01*
X109242053Y-40077028D02*
X109180148Y-40191314D01*
X109180148Y-40191314D02*
X109056338Y-40305600D01*
X109056338Y-40305600D02*
X108870624Y-40362742D01*
X108870624Y-40362742D02*
X108561100Y-40362742D01*
X109799196Y-40305600D02*
X109984910Y-40362742D01*
X109984910Y-40362742D02*
X110294434Y-40362742D01*
X110294434Y-40362742D02*
X110418243Y-40305600D01*
X110418243Y-40305600D02*
X110480148Y-40248457D01*
X110480148Y-40248457D02*
X110542053Y-40134171D01*
X110542053Y-40134171D02*
X110542053Y-40019885D01*
X110542053Y-40019885D02*
X110480148Y-39905600D01*
X110480148Y-39905600D02*
X110418243Y-39848457D01*
X110418243Y-39848457D02*
X110294434Y-39791314D01*
X110294434Y-39791314D02*
X110046815Y-39734171D01*
X110046815Y-39734171D02*
X109923005Y-39677028D01*
X109923005Y-39677028D02*
X109861100Y-39619885D01*
X109861100Y-39619885D02*
X109799196Y-39505600D01*
X109799196Y-39505600D02*
X109799196Y-39391314D01*
X109799196Y-39391314D02*
X109861100Y-39277028D01*
X109861100Y-39277028D02*
X109923005Y-39219885D01*
X109923005Y-39219885D02*
X110046815Y-39162742D01*
X110046815Y-39162742D02*
X110356338Y-39162742D01*
X110356338Y-39162742D02*
X110542053Y-39219885D01*
X111842052Y-40248457D02*
X111780148Y-40305600D01*
X111780148Y-40305600D02*
X111594433Y-40362742D01*
X111594433Y-40362742D02*
X111470624Y-40362742D01*
X111470624Y-40362742D02*
X111284910Y-40305600D01*
X111284910Y-40305600D02*
X111161100Y-40191314D01*
X111161100Y-40191314D02*
X111099195Y-40077028D01*
X111099195Y-40077028D02*
X111037291Y-39848457D01*
X111037291Y-39848457D02*
X111037291Y-39677028D01*
X111037291Y-39677028D02*
X111099195Y-39448457D01*
X111099195Y-39448457D02*
X111161100Y-39334171D01*
X111161100Y-39334171D02*
X111284910Y-39219885D01*
X111284910Y-39219885D02*
X111470624Y-39162742D01*
X111470624Y-39162742D02*
X111594433Y-39162742D01*
X111594433Y-39162742D02*
X111780148Y-39219885D01*
X111780148Y-39219885D02*
X111842052Y-39277028D01*
X112337291Y-40019885D02*
X112956338Y-40019885D01*
X112213481Y-40362742D02*
X112646814Y-39162742D01*
X112646814Y-39162742D02*
X113080148Y-40362742D01*
X113513481Y-40362742D02*
X113513481Y-39162742D01*
X113513481Y-39162742D02*
X114008719Y-39162742D01*
X114008719Y-39162742D02*
X114132529Y-39219885D01*
X114132529Y-39219885D02*
X114194434Y-39277028D01*
X114194434Y-39277028D02*
X114256338Y-39391314D01*
X114256338Y-39391314D02*
X114256338Y-39562742D01*
X114256338Y-39562742D02*
X114194434Y-39677028D01*
X114194434Y-39677028D02*
X114132529Y-39734171D01*
X114132529Y-39734171D02*
X114008719Y-39791314D01*
X114008719Y-39791314D02*
X113513481Y-39791314D01*
X114813481Y-39734171D02*
X115246815Y-39734171D01*
X115432529Y-40362742D02*
X114813481Y-40362742D01*
X114813481Y-40362742D02*
X114813481Y-39162742D01*
X114813481Y-39162742D02*
X115432529Y-39162742D01*
X116051576Y-40305600D02*
X116051576Y-40362742D01*
X116051576Y-40362742D02*
X115989671Y-40477028D01*
X115989671Y-40477028D02*
X115927767Y-40534171D01*
X116608719Y-40362742D02*
X116608719Y-39162742D01*
X117227767Y-40362742D02*
X117227767Y-39162742D01*
X117227767Y-39162742D02*
X117970624Y-40362742D01*
X117970624Y-40362742D02*
X117970624Y-39162742D01*
X119332529Y-40248457D02*
X119270625Y-40305600D01*
X119270625Y-40305600D02*
X119084910Y-40362742D01*
X119084910Y-40362742D02*
X118961101Y-40362742D01*
X118961101Y-40362742D02*
X118775387Y-40305600D01*
X118775387Y-40305600D02*
X118651577Y-40191314D01*
X118651577Y-40191314D02*
X118589672Y-40077028D01*
X118589672Y-40077028D02*
X118527768Y-39848457D01*
X118527768Y-39848457D02*
X118527768Y-39677028D01*
X118527768Y-39677028D02*
X118589672Y-39448457D01*
X118589672Y-39448457D02*
X118651577Y-39334171D01*
X118651577Y-39334171D02*
X118775387Y-39219885D01*
X118775387Y-39219885D02*
X118961101Y-39162742D01*
X118961101Y-39162742D02*
X119084910Y-39162742D01*
X119084910Y-39162742D02*
X119270625Y-39219885D01*
X119270625Y-39219885D02*
X119332529Y-39277028D01*
X119889672Y-40248457D02*
X119951577Y-40305600D01*
X119951577Y-40305600D02*
X119889672Y-40362742D01*
X119889672Y-40362742D02*
X119827768Y-40305600D01*
X119827768Y-40305600D02*
X119889672Y-40248457D01*
X119889672Y-40248457D02*
X119889672Y-40362742D01*
X59547863Y-53310504D02*
X59547863Y-52010504D01*
X59547863Y-52010504D02*
X60087863Y-52939076D01*
X60087863Y-52939076D02*
X60627863Y-52010504D01*
X60627863Y-52010504D02*
X60627863Y-53310504D01*
X61399292Y-52010504D02*
X61399292Y-53062885D01*
X61399292Y-53062885D02*
X61476435Y-53186695D01*
X61476435Y-53186695D02*
X61553578Y-53248600D01*
X61553578Y-53248600D02*
X61707863Y-53310504D01*
X61707863Y-53310504D02*
X62016435Y-53310504D01*
X62016435Y-53310504D02*
X62170720Y-53248600D01*
X62170720Y-53248600D02*
X62247863Y-53186695D01*
X62247863Y-53186695D02*
X62325006Y-53062885D01*
X62325006Y-53062885D02*
X62325006Y-52010504D01*
X63019292Y-53248600D02*
X63250721Y-53310504D01*
X63250721Y-53310504D02*
X63636435Y-53310504D01*
X63636435Y-53310504D02*
X63790721Y-53248600D01*
X63790721Y-53248600D02*
X63867863Y-53186695D01*
X63867863Y-53186695D02*
X63945006Y-53062885D01*
X63945006Y-53062885D02*
X63945006Y-52939076D01*
X63945006Y-52939076D02*
X63867863Y-52815266D01*
X63867863Y-52815266D02*
X63790721Y-52753361D01*
X63790721Y-52753361D02*
X63636435Y-52691457D01*
X63636435Y-52691457D02*
X63327863Y-52629552D01*
X63327863Y-52629552D02*
X63173578Y-52567647D01*
X63173578Y-52567647D02*
X63096435Y-52505742D01*
X63096435Y-52505742D02*
X63019292Y-52381933D01*
X63019292Y-52381933D02*
X63019292Y-52258123D01*
X63019292Y-52258123D02*
X63096435Y-52134314D01*
X63096435Y-52134314D02*
X63173578Y-52072409D01*
X63173578Y-52072409D02*
X63327863Y-52010504D01*
X63327863Y-52010504D02*
X63713578Y-52010504D01*
X63713578Y-52010504D02*
X63945006Y-52072409D01*
X64639292Y-53310504D02*
X64639292Y-52010504D01*
X66336435Y-53186695D02*
X66259292Y-53248600D01*
X66259292Y-53248600D02*
X66027864Y-53310504D01*
X66027864Y-53310504D02*
X65873578Y-53310504D01*
X65873578Y-53310504D02*
X65642149Y-53248600D01*
X65642149Y-53248600D02*
X65487864Y-53124790D01*
X65487864Y-53124790D02*
X65410721Y-53000980D01*
X65410721Y-53000980D02*
X65333578Y-52753361D01*
X65333578Y-52753361D02*
X65333578Y-52567647D01*
X65333578Y-52567647D02*
X65410721Y-52320028D01*
X65410721Y-52320028D02*
X65487864Y-52196219D01*
X65487864Y-52196219D02*
X65642149Y-52072409D01*
X65642149Y-52072409D02*
X65873578Y-52010504D01*
X65873578Y-52010504D02*
X66027864Y-52010504D01*
X66027864Y-52010504D02*
X66259292Y-52072409D01*
X66259292Y-52072409D02*
X66336435Y-52134314D01*
X68805007Y-52629552D02*
X69036435Y-52691457D01*
X69036435Y-52691457D02*
X69113578Y-52753361D01*
X69113578Y-52753361D02*
X69190721Y-52877171D01*
X69190721Y-52877171D02*
X69190721Y-53062885D01*
X69190721Y-53062885D02*
X69113578Y-53186695D01*
X69113578Y-53186695D02*
X69036435Y-53248600D01*
X69036435Y-53248600D02*
X68882150Y-53310504D01*
X68882150Y-53310504D02*
X68265007Y-53310504D01*
X68265007Y-53310504D02*
X68265007Y-52010504D01*
X68265007Y-52010504D02*
X68805007Y-52010504D01*
X68805007Y-52010504D02*
X68959293Y-52072409D01*
X68959293Y-52072409D02*
X69036435Y-52134314D01*
X69036435Y-52134314D02*
X69113578Y-52258123D01*
X69113578Y-52258123D02*
X69113578Y-52381933D01*
X69113578Y-52381933D02*
X69036435Y-52505742D01*
X69036435Y-52505742D02*
X68959293Y-52567647D01*
X68959293Y-52567647D02*
X68805007Y-52629552D01*
X68805007Y-52629552D02*
X68265007Y-52629552D01*
X70193578Y-52010504D02*
X70502150Y-52010504D01*
X70502150Y-52010504D02*
X70656435Y-52072409D01*
X70656435Y-52072409D02*
X70810721Y-52196219D01*
X70810721Y-52196219D02*
X70887864Y-52443838D01*
X70887864Y-52443838D02*
X70887864Y-52877171D01*
X70887864Y-52877171D02*
X70810721Y-53124790D01*
X70810721Y-53124790D02*
X70656435Y-53248600D01*
X70656435Y-53248600D02*
X70502150Y-53310504D01*
X70502150Y-53310504D02*
X70193578Y-53310504D01*
X70193578Y-53310504D02*
X70039293Y-53248600D01*
X70039293Y-53248600D02*
X69885007Y-53124790D01*
X69885007Y-53124790D02*
X69807864Y-52877171D01*
X69807864Y-52877171D02*
X69807864Y-52443838D01*
X69807864Y-52443838D02*
X69885007Y-52196219D01*
X69885007Y-52196219D02*
X70039293Y-52072409D01*
X70039293Y-52072409D02*
X70193578Y-52010504D01*
X71505007Y-52939076D02*
X72276436Y-52939076D01*
X71350721Y-53310504D02*
X71890721Y-52010504D01*
X71890721Y-52010504D02*
X72430721Y-53310504D01*
X73896435Y-53310504D02*
X73356435Y-52691457D01*
X72970721Y-53310504D02*
X72970721Y-52010504D01*
X72970721Y-52010504D02*
X73587864Y-52010504D01*
X73587864Y-52010504D02*
X73742149Y-52072409D01*
X73742149Y-52072409D02*
X73819292Y-52134314D01*
X73819292Y-52134314D02*
X73896435Y-52258123D01*
X73896435Y-52258123D02*
X73896435Y-52443838D01*
X73896435Y-52443838D02*
X73819292Y-52567647D01*
X73819292Y-52567647D02*
X73742149Y-52629552D01*
X73742149Y-52629552D02*
X73587864Y-52691457D01*
X73587864Y-52691457D02*
X72970721Y-52691457D01*
X74590721Y-53310504D02*
X74590721Y-52010504D01*
X74590721Y-52010504D02*
X74976435Y-52010504D01*
X74976435Y-52010504D02*
X75207864Y-52072409D01*
X75207864Y-52072409D02*
X75362149Y-52196219D01*
X75362149Y-52196219D02*
X75439292Y-52320028D01*
X75439292Y-52320028D02*
X75516435Y-52567647D01*
X75516435Y-52567647D02*
X75516435Y-52753361D01*
X75516435Y-52753361D02*
X75439292Y-53000980D01*
X75439292Y-53000980D02*
X75362149Y-53124790D01*
X75362149Y-53124790D02*
X75207864Y-53248600D01*
X75207864Y-53248600D02*
X74976435Y-53310504D01*
X74976435Y-53310504D02*
X74590721Y-53310504D01*
X59590001Y-50780504D02*
X59590001Y-49480504D01*
X59590001Y-49480504D02*
X59966668Y-50409076D01*
X59966668Y-50409076D02*
X60343334Y-49480504D01*
X60343334Y-49480504D02*
X60343334Y-50780504D01*
X61742382Y-50780504D02*
X61742382Y-49480504D01*
X63141429Y-50780504D02*
X63141429Y-49480504D01*
X63141429Y-49480504D02*
X63787143Y-50780504D01*
X63787143Y-50780504D02*
X63787143Y-49480504D01*
X65186191Y-50780504D02*
X65186191Y-49480504D01*
X65186191Y-49480504D02*
X65455239Y-49480504D01*
X65455239Y-49480504D02*
X65616667Y-49542409D01*
X65616667Y-49542409D02*
X65724286Y-49666219D01*
X65724286Y-49666219D02*
X65778096Y-49790028D01*
X65778096Y-49790028D02*
X65831905Y-50037647D01*
X65831905Y-50037647D02*
X65831905Y-50223361D01*
X65831905Y-50223361D02*
X65778096Y-50470980D01*
X65778096Y-50470980D02*
X65724286Y-50594790D01*
X65724286Y-50594790D02*
X65616667Y-50718600D01*
X65616667Y-50718600D02*
X65455239Y-50780504D01*
X65455239Y-50780504D02*
X65186191Y-50780504D01*
X67123334Y-50718600D02*
X67284762Y-50780504D01*
X67284762Y-50780504D02*
X67553810Y-50780504D01*
X67553810Y-50780504D02*
X67661429Y-50718600D01*
X67661429Y-50718600D02*
X67715238Y-50656695D01*
X67715238Y-50656695D02*
X67769048Y-50532885D01*
X67769048Y-50532885D02*
X67769048Y-50409076D01*
X67769048Y-50409076D02*
X67715238Y-50285266D01*
X67715238Y-50285266D02*
X67661429Y-50223361D01*
X67661429Y-50223361D02*
X67553810Y-50161457D01*
X67553810Y-50161457D02*
X67338572Y-50099552D01*
X67338572Y-50099552D02*
X67230953Y-50037647D01*
X67230953Y-50037647D02*
X67177143Y-49975742D01*
X67177143Y-49975742D02*
X67123334Y-49851933D01*
X67123334Y-49851933D02*
X67123334Y-49728123D01*
X67123334Y-49728123D02*
X67177143Y-49604314D01*
X67177143Y-49604314D02*
X67230953Y-49542409D01*
X67230953Y-49542409D02*
X67338572Y-49480504D01*
X67338572Y-49480504D02*
X67607619Y-49480504D01*
X67607619Y-49480504D02*
X67769048Y-49542409D01*
X69759999Y-50656695D02*
X69706190Y-50718600D01*
X69706190Y-50718600D02*
X69544761Y-50780504D01*
X69544761Y-50780504D02*
X69437142Y-50780504D01*
X69437142Y-50780504D02*
X69275714Y-50718600D01*
X69275714Y-50718600D02*
X69168095Y-50594790D01*
X69168095Y-50594790D02*
X69114285Y-50470980D01*
X69114285Y-50470980D02*
X69060476Y-50223361D01*
X69060476Y-50223361D02*
X69060476Y-50037647D01*
X69060476Y-50037647D02*
X69114285Y-49790028D01*
X69114285Y-49790028D02*
X69168095Y-49666219D01*
X69168095Y-49666219D02*
X69275714Y-49542409D01*
X69275714Y-49542409D02*
X69437142Y-49480504D01*
X69437142Y-49480504D02*
X69544761Y-49480504D01*
X69544761Y-49480504D02*
X69706190Y-49542409D01*
X69706190Y-49542409D02*
X69759999Y-49604314D01*
X71051428Y-50409076D02*
X71589523Y-50409076D01*
X70943809Y-50780504D02*
X71320475Y-49480504D01*
X71320475Y-49480504D02*
X71697142Y-50780504D01*
X72934760Y-50780504D02*
X72934760Y-49480504D01*
X72934760Y-49480504D02*
X73365236Y-49480504D01*
X73365236Y-49480504D02*
X73472855Y-49542409D01*
X73472855Y-49542409D02*
X73526665Y-49604314D01*
X73526665Y-49604314D02*
X73580474Y-49728123D01*
X73580474Y-49728123D02*
X73580474Y-49913838D01*
X73580474Y-49913838D02*
X73526665Y-50037647D01*
X73526665Y-50037647D02*
X73472855Y-50099552D01*
X73472855Y-50099552D02*
X73365236Y-50161457D01*
X73365236Y-50161457D02*
X72934760Y-50161457D01*
X74925712Y-50099552D02*
X75302379Y-50099552D01*
X75463807Y-50780504D02*
X74925712Y-50780504D01*
X74925712Y-50780504D02*
X74925712Y-49480504D01*
X74925712Y-49480504D02*
X75463807Y-49480504D01*
X81719673Y-47905600D02*
X81898244Y-47962742D01*
X81898244Y-47962742D02*
X82195863Y-47962742D01*
X82195863Y-47962742D02*
X82314911Y-47905600D01*
X82314911Y-47905600D02*
X82374435Y-47848457D01*
X82374435Y-47848457D02*
X82433958Y-47734171D01*
X82433958Y-47734171D02*
X82433958Y-47619885D01*
X82433958Y-47619885D02*
X82374435Y-47505600D01*
X82374435Y-47505600D02*
X82314911Y-47448457D01*
X82314911Y-47448457D02*
X82195863Y-47391314D01*
X82195863Y-47391314D02*
X81957768Y-47334171D01*
X81957768Y-47334171D02*
X81838720Y-47277028D01*
X81838720Y-47277028D02*
X81779197Y-47219885D01*
X81779197Y-47219885D02*
X81719673Y-47105600D01*
X81719673Y-47105600D02*
X81719673Y-46991314D01*
X81719673Y-46991314D02*
X81779197Y-46877028D01*
X81779197Y-46877028D02*
X81838720Y-46819885D01*
X81838720Y-46819885D02*
X81957768Y-46762742D01*
X81957768Y-46762742D02*
X82255387Y-46762742D01*
X82255387Y-46762742D02*
X82433958Y-46819885D01*
X82969673Y-47334171D02*
X83386339Y-47334171D01*
X83564911Y-47962742D02*
X82969673Y-47962742D01*
X82969673Y-47962742D02*
X82969673Y-46762742D01*
X82969673Y-46762742D02*
X83564911Y-46762742D01*
X84814910Y-47962742D02*
X84398244Y-47391314D01*
X84100625Y-47962742D02*
X84100625Y-46762742D01*
X84100625Y-46762742D02*
X84576815Y-46762742D01*
X84576815Y-46762742D02*
X84695863Y-46819885D01*
X84695863Y-46819885D02*
X84755386Y-46877028D01*
X84755386Y-46877028D02*
X84814910Y-46991314D01*
X84814910Y-46991314D02*
X84814910Y-47162742D01*
X84814910Y-47162742D02*
X84755386Y-47277028D01*
X84755386Y-47277028D02*
X84695863Y-47334171D01*
X84695863Y-47334171D02*
X84576815Y-47391314D01*
X84576815Y-47391314D02*
X84100625Y-47391314D01*
X85350625Y-47962742D02*
X85350625Y-46762742D01*
X85886339Y-47619885D02*
X86481577Y-47619885D01*
X85767291Y-47962742D02*
X86183958Y-46762742D01*
X86183958Y-46762742D02*
X86600624Y-47962742D01*
X87612530Y-47962742D02*
X87017292Y-47962742D01*
X87017292Y-47962742D02*
X87017292Y-46762742D01*
X88981578Y-47962742D02*
X88981578Y-46762742D01*
X88981578Y-46762742D02*
X89695863Y-47962742D01*
X89695863Y-47962742D02*
X89695863Y-46762742D01*
X90529197Y-46762742D02*
X90767292Y-46762742D01*
X90767292Y-46762742D02*
X90886340Y-46819885D01*
X90886340Y-46819885D02*
X91005387Y-46934171D01*
X91005387Y-46934171D02*
X91064911Y-47162742D01*
X91064911Y-47162742D02*
X91064911Y-47562742D01*
X91064911Y-47562742D02*
X91005387Y-47791314D01*
X91005387Y-47791314D02*
X90886340Y-47905600D01*
X90886340Y-47905600D02*
X90767292Y-47962742D01*
X90767292Y-47962742D02*
X90529197Y-47962742D01*
X90529197Y-47962742D02*
X90410149Y-47905600D01*
X90410149Y-47905600D02*
X90291102Y-47791314D01*
X90291102Y-47791314D02*
X90231578Y-47562742D01*
X90231578Y-47562742D02*
X90231578Y-47162742D01*
X90231578Y-47162742D02*
X90291102Y-46934171D01*
X90291102Y-46934171D02*
X90410149Y-46819885D01*
X90410149Y-46819885D02*
X90529197Y-46762742D01*
X91600626Y-47848457D02*
X91660149Y-47905600D01*
X91660149Y-47905600D02*
X91600626Y-47962742D01*
X91600626Y-47962742D02*
X91541102Y-47905600D01*
X91541102Y-47905600D02*
X91600626Y-47848457D01*
X91600626Y-47848457D02*
X91600626Y-47962742D01*
D15*
X153246667Y-67906533D02*
X153180000Y-67973200D01*
X153180000Y-67973200D02*
X152980000Y-68039866D01*
X152980000Y-68039866D02*
X152846667Y-68039866D01*
X152846667Y-68039866D02*
X152646667Y-67973200D01*
X152646667Y-67973200D02*
X152513334Y-67839866D01*
X152513334Y-67839866D02*
X152446667Y-67706533D01*
X152446667Y-67706533D02*
X152380000Y-67439866D01*
X152380000Y-67439866D02*
X152380000Y-67239866D01*
X152380000Y-67239866D02*
X152446667Y-66973200D01*
X152446667Y-66973200D02*
X152513334Y-66839866D01*
X152513334Y-66839866D02*
X152646667Y-66706533D01*
X152646667Y-66706533D02*
X152846667Y-66639866D01*
X152846667Y-66639866D02*
X152980000Y-66639866D01*
X152980000Y-66639866D02*
X153180000Y-66706533D01*
X153180000Y-66706533D02*
X153246667Y-66773200D01*
X154446667Y-66639866D02*
X154180000Y-66639866D01*
X154180000Y-66639866D02*
X154046667Y-66706533D01*
X154046667Y-66706533D02*
X153980000Y-66773200D01*
X153980000Y-66773200D02*
X153846667Y-66973200D01*
X153846667Y-66973200D02*
X153780000Y-67239866D01*
X153780000Y-67239866D02*
X153780000Y-67773200D01*
X153780000Y-67773200D02*
X153846667Y-67906533D01*
X153846667Y-67906533D02*
X153913334Y-67973200D01*
X153913334Y-67973200D02*
X154046667Y-68039866D01*
X154046667Y-68039866D02*
X154313334Y-68039866D01*
X154313334Y-68039866D02*
X154446667Y-67973200D01*
X154446667Y-67973200D02*
X154513334Y-67906533D01*
X154513334Y-67906533D02*
X154580000Y-67773200D01*
X154580000Y-67773200D02*
X154580000Y-67439866D01*
X154580000Y-67439866D02*
X154513334Y-67306533D01*
X154513334Y-67306533D02*
X154446667Y-67239866D01*
X154446667Y-67239866D02*
X154313334Y-67173200D01*
X154313334Y-67173200D02*
X154046667Y-67173200D01*
X154046667Y-67173200D02*
X153913334Y-67239866D01*
X153913334Y-67239866D02*
X153846667Y-67306533D01*
X153846667Y-67306533D02*
X153780000Y-67439866D01*
D14*
X143290149Y-66723600D02*
X144661578Y-66723600D01*
X143975863Y-67409314D02*
X143975863Y-66037885D01*
D15*
X154136533Y-102299999D02*
X154203200Y-102366666D01*
X154203200Y-102366666D02*
X154269866Y-102566666D01*
X154269866Y-102566666D02*
X154269866Y-102699999D01*
X154269866Y-102699999D02*
X154203200Y-102899999D01*
X154203200Y-102899999D02*
X154069866Y-103033333D01*
X154069866Y-103033333D02*
X153936533Y-103099999D01*
X153936533Y-103099999D02*
X153669866Y-103166666D01*
X153669866Y-103166666D02*
X153469866Y-103166666D01*
X153469866Y-103166666D02*
X153203200Y-103099999D01*
X153203200Y-103099999D02*
X153069866Y-103033333D01*
X153069866Y-103033333D02*
X152936533Y-102899999D01*
X152936533Y-102899999D02*
X152869866Y-102699999D01*
X152869866Y-102699999D02*
X152869866Y-102566666D01*
X152869866Y-102566666D02*
X152936533Y-102366666D01*
X152936533Y-102366666D02*
X153003200Y-102299999D01*
X154269866Y-100966666D02*
X154269866Y-101766666D01*
X154269866Y-101366666D02*
X152869866Y-101366666D01*
X152869866Y-101366666D02*
X153069866Y-101499999D01*
X153069866Y-101499999D02*
X153203200Y-101633333D01*
X153203200Y-101633333D02*
X153269866Y-101766666D01*
X152869866Y-100500000D02*
X152869866Y-99633333D01*
X152869866Y-99633333D02*
X153403200Y-100100000D01*
X153403200Y-100100000D02*
X153403200Y-99900000D01*
X153403200Y-99900000D02*
X153469866Y-99766666D01*
X153469866Y-99766666D02*
X153536533Y-99700000D01*
X153536533Y-99700000D02*
X153669866Y-99633333D01*
X153669866Y-99633333D02*
X154003200Y-99633333D01*
X154003200Y-99633333D02*
X154136533Y-99700000D01*
X154136533Y-99700000D02*
X154203200Y-99766666D01*
X154203200Y-99766666D02*
X154269866Y-99900000D01*
X154269866Y-99900000D02*
X154269866Y-100300000D01*
X154269866Y-100300000D02*
X154203200Y-100433333D01*
X154203200Y-100433333D02*
X154136533Y-100500000D01*
D14*
X160583600Y-103599850D02*
X160583600Y-102228422D01*
X161269314Y-102914136D02*
X159897885Y-102914136D01*
D15*
X139666667Y-51826533D02*
X139600000Y-51893200D01*
X139600000Y-51893200D02*
X139400000Y-51959866D01*
X139400000Y-51959866D02*
X139266667Y-51959866D01*
X139266667Y-51959866D02*
X139066667Y-51893200D01*
X139066667Y-51893200D02*
X138933334Y-51759866D01*
X138933334Y-51759866D02*
X138866667Y-51626533D01*
X138866667Y-51626533D02*
X138800000Y-51359866D01*
X138800000Y-51359866D02*
X138800000Y-51159866D01*
X138800000Y-51159866D02*
X138866667Y-50893200D01*
X138866667Y-50893200D02*
X138933334Y-50759866D01*
X138933334Y-50759866D02*
X139066667Y-50626533D01*
X139066667Y-50626533D02*
X139266667Y-50559866D01*
X139266667Y-50559866D02*
X139400000Y-50559866D01*
X139400000Y-50559866D02*
X139600000Y-50626533D01*
X139600000Y-50626533D02*
X139666667Y-50693200D01*
X140133334Y-50559866D02*
X141000000Y-50559866D01*
X141000000Y-50559866D02*
X140533334Y-51093200D01*
X140533334Y-51093200D02*
X140733334Y-51093200D01*
X140733334Y-51093200D02*
X140866667Y-51159866D01*
X140866667Y-51159866D02*
X140933334Y-51226533D01*
X140933334Y-51226533D02*
X141000000Y-51359866D01*
X141000000Y-51359866D02*
X141000000Y-51693200D01*
X141000000Y-51693200D02*
X140933334Y-51826533D01*
X140933334Y-51826533D02*
X140866667Y-51893200D01*
X140866667Y-51893200D02*
X140733334Y-51959866D01*
X140733334Y-51959866D02*
X140333334Y-51959866D01*
X140333334Y-51959866D02*
X140200000Y-51893200D01*
X140200000Y-51893200D02*
X140133334Y-51826533D01*
D14*
X145439850Y-54266400D02*
X144068422Y-54266400D01*
X144754136Y-53580685D02*
X144754136Y-54952114D01*
D15*
X148846667Y-59356533D02*
X148780000Y-59423200D01*
X148780000Y-59423200D02*
X148580000Y-59489866D01*
X148580000Y-59489866D02*
X148446667Y-59489866D01*
X148446667Y-59489866D02*
X148246667Y-59423200D01*
X148246667Y-59423200D02*
X148113334Y-59289866D01*
X148113334Y-59289866D02*
X148046667Y-59156533D01*
X148046667Y-59156533D02*
X147980000Y-58889866D01*
X147980000Y-58889866D02*
X147980000Y-58689866D01*
X147980000Y-58689866D02*
X148046667Y-58423200D01*
X148046667Y-58423200D02*
X148113334Y-58289866D01*
X148113334Y-58289866D02*
X148246667Y-58156533D01*
X148246667Y-58156533D02*
X148446667Y-58089866D01*
X148446667Y-58089866D02*
X148580000Y-58089866D01*
X148580000Y-58089866D02*
X148780000Y-58156533D01*
X148780000Y-58156533D02*
X148846667Y-58223200D01*
X149646667Y-58689866D02*
X149513334Y-58623200D01*
X149513334Y-58623200D02*
X149446667Y-58556533D01*
X149446667Y-58556533D02*
X149380000Y-58423200D01*
X149380000Y-58423200D02*
X149380000Y-58356533D01*
X149380000Y-58356533D02*
X149446667Y-58223200D01*
X149446667Y-58223200D02*
X149513334Y-58156533D01*
X149513334Y-58156533D02*
X149646667Y-58089866D01*
X149646667Y-58089866D02*
X149913334Y-58089866D01*
X149913334Y-58089866D02*
X150046667Y-58156533D01*
X150046667Y-58156533D02*
X150113334Y-58223200D01*
X150113334Y-58223200D02*
X150180000Y-58356533D01*
X150180000Y-58356533D02*
X150180000Y-58423200D01*
X150180000Y-58423200D02*
X150113334Y-58556533D01*
X150113334Y-58556533D02*
X150046667Y-58623200D01*
X150046667Y-58623200D02*
X149913334Y-58689866D01*
X149913334Y-58689866D02*
X149646667Y-58689866D01*
X149646667Y-58689866D02*
X149513334Y-58756533D01*
X149513334Y-58756533D02*
X149446667Y-58823200D01*
X149446667Y-58823200D02*
X149380000Y-58956533D01*
X149380000Y-58956533D02*
X149380000Y-59223200D01*
X149380000Y-59223200D02*
X149446667Y-59356533D01*
X149446667Y-59356533D02*
X149513334Y-59423200D01*
X149513334Y-59423200D02*
X149646667Y-59489866D01*
X149646667Y-59489866D02*
X149913334Y-59489866D01*
X149913334Y-59489866D02*
X150046667Y-59423200D01*
X150046667Y-59423200D02*
X150113334Y-59356533D01*
X150113334Y-59356533D02*
X150180000Y-59223200D01*
X150180000Y-59223200D02*
X150180000Y-58956533D01*
X150180000Y-58956533D02*
X150113334Y-58823200D01*
X150113334Y-58823200D02*
X150046667Y-58756533D01*
X150046667Y-58756533D02*
X149913334Y-58689866D01*
D14*
X145820149Y-58623600D02*
X147191578Y-58623600D01*
X146505863Y-59309314D02*
X146505863Y-57937885D01*
D15*
X157228571Y-131563057D02*
X157171428Y-131620200D01*
X157171428Y-131620200D02*
X157000000Y-131677342D01*
X157000000Y-131677342D02*
X156885714Y-131677342D01*
X156885714Y-131677342D02*
X156714285Y-131620200D01*
X156714285Y-131620200D02*
X156600000Y-131505914D01*
X156600000Y-131505914D02*
X156542857Y-131391628D01*
X156542857Y-131391628D02*
X156485714Y-131163057D01*
X156485714Y-131163057D02*
X156485714Y-130991628D01*
X156485714Y-130991628D02*
X156542857Y-130763057D01*
X156542857Y-130763057D02*
X156600000Y-130648771D01*
X156600000Y-130648771D02*
X156714285Y-130534485D01*
X156714285Y-130534485D02*
X156885714Y-130477342D01*
X156885714Y-130477342D02*
X157000000Y-130477342D01*
X157000000Y-130477342D02*
X157171428Y-130534485D01*
X157171428Y-130534485D02*
X157228571Y-130591628D01*
X158371428Y-131677342D02*
X157685714Y-131677342D01*
X158028571Y-131677342D02*
X158028571Y-130477342D01*
X158028571Y-130477342D02*
X157914285Y-130648771D01*
X157914285Y-130648771D02*
X157800000Y-130763057D01*
X157800000Y-130763057D02*
X157685714Y-130820200D01*
X159457142Y-130477342D02*
X158885714Y-130477342D01*
X158885714Y-130477342D02*
X158828571Y-131048771D01*
X158828571Y-131048771D02*
X158885714Y-130991628D01*
X158885714Y-130991628D02*
X159000000Y-130934485D01*
X159000000Y-130934485D02*
X159285714Y-130934485D01*
X159285714Y-130934485D02*
X159400000Y-130991628D01*
X159400000Y-130991628D02*
X159457142Y-131048771D01*
X159457142Y-131048771D02*
X159514285Y-131163057D01*
X159514285Y-131163057D02*
X159514285Y-131448771D01*
X159514285Y-131448771D02*
X159457142Y-131563057D01*
X159457142Y-131563057D02*
X159400000Y-131620200D01*
X159400000Y-131620200D02*
X159285714Y-131677342D01*
X159285714Y-131677342D02*
X159000000Y-131677342D01*
X159000000Y-131677342D02*
X158885714Y-131620200D01*
X158885714Y-131620200D02*
X158828571Y-131563057D01*
X135578571Y-129183057D02*
X135521428Y-129240200D01*
X135521428Y-129240200D02*
X135350000Y-129297342D01*
X135350000Y-129297342D02*
X135235714Y-129297342D01*
X135235714Y-129297342D02*
X135064285Y-129240200D01*
X135064285Y-129240200D02*
X134950000Y-129125914D01*
X134950000Y-129125914D02*
X134892857Y-129011628D01*
X134892857Y-129011628D02*
X134835714Y-128783057D01*
X134835714Y-128783057D02*
X134835714Y-128611628D01*
X134835714Y-128611628D02*
X134892857Y-128383057D01*
X134892857Y-128383057D02*
X134950000Y-128268771D01*
X134950000Y-128268771D02*
X135064285Y-128154485D01*
X135064285Y-128154485D02*
X135235714Y-128097342D01*
X135235714Y-128097342D02*
X135350000Y-128097342D01*
X135350000Y-128097342D02*
X135521428Y-128154485D01*
X135521428Y-128154485D02*
X135578571Y-128211628D01*
X136721428Y-129297342D02*
X136035714Y-129297342D01*
X136378571Y-129297342D02*
X136378571Y-128097342D01*
X136378571Y-128097342D02*
X136264285Y-128268771D01*
X136264285Y-128268771D02*
X136150000Y-128383057D01*
X136150000Y-128383057D02*
X136035714Y-128440200D01*
X137750000Y-128497342D02*
X137750000Y-129297342D01*
X137464285Y-128040200D02*
X137178571Y-128897342D01*
X137178571Y-128897342D02*
X137921428Y-128897342D01*
X161826667Y-63499866D02*
X161360000Y-62833200D01*
X161026667Y-63499866D02*
X161026667Y-62099866D01*
X161026667Y-62099866D02*
X161560000Y-62099866D01*
X161560000Y-62099866D02*
X161693334Y-62166533D01*
X161693334Y-62166533D02*
X161760000Y-62233200D01*
X161760000Y-62233200D02*
X161826667Y-62366533D01*
X161826667Y-62366533D02*
X161826667Y-62566533D01*
X161826667Y-62566533D02*
X161760000Y-62699866D01*
X161760000Y-62699866D02*
X161693334Y-62766533D01*
X161693334Y-62766533D02*
X161560000Y-62833200D01*
X161560000Y-62833200D02*
X161026667Y-62833200D01*
X163026667Y-62566533D02*
X163026667Y-63499866D01*
X162693334Y-62033200D02*
X162360000Y-63033200D01*
X162360000Y-63033200D02*
X163226667Y-63033200D01*
X132183333Y-92179866D02*
X132183333Y-93313200D01*
X132183333Y-93313200D02*
X132250000Y-93446533D01*
X132250000Y-93446533D02*
X132316666Y-93513200D01*
X132316666Y-93513200D02*
X132450000Y-93579866D01*
X132450000Y-93579866D02*
X132716666Y-93579866D01*
X132716666Y-93579866D02*
X132850000Y-93513200D01*
X132850000Y-93513200D02*
X132916666Y-93446533D01*
X132916666Y-93446533D02*
X132983333Y-93313200D01*
X132983333Y-93313200D02*
X132983333Y-92179866D01*
X133716667Y-93579866D02*
X133983333Y-93579866D01*
X133983333Y-93579866D02*
X134116667Y-93513200D01*
X134116667Y-93513200D02*
X134183333Y-93446533D01*
X134183333Y-93446533D02*
X134316667Y-93246533D01*
X134316667Y-93246533D02*
X134383333Y-92979866D01*
X134383333Y-92979866D02*
X134383333Y-92446533D01*
X134383333Y-92446533D02*
X134316667Y-92313200D01*
X134316667Y-92313200D02*
X134250000Y-92246533D01*
X134250000Y-92246533D02*
X134116667Y-92179866D01*
X134116667Y-92179866D02*
X133850000Y-92179866D01*
X133850000Y-92179866D02*
X133716667Y-92246533D01*
X133716667Y-92246533D02*
X133650000Y-92313200D01*
X133650000Y-92313200D02*
X133583333Y-92446533D01*
X133583333Y-92446533D02*
X133583333Y-92779866D01*
X133583333Y-92779866D02*
X133650000Y-92913200D01*
X133650000Y-92913200D02*
X133716667Y-92979866D01*
X133716667Y-92979866D02*
X133850000Y-93046533D01*
X133850000Y-93046533D02*
X134116667Y-93046533D01*
X134116667Y-93046533D02*
X134250000Y-92979866D01*
X134250000Y-92979866D02*
X134316667Y-92913200D01*
X134316667Y-92913200D02*
X134383333Y-92779866D01*
X121163333Y-91299866D02*
X121163333Y-92433200D01*
X121163333Y-92433200D02*
X121230000Y-92566533D01*
X121230000Y-92566533D02*
X121296666Y-92633200D01*
X121296666Y-92633200D02*
X121430000Y-92699866D01*
X121430000Y-92699866D02*
X121696666Y-92699866D01*
X121696666Y-92699866D02*
X121830000Y-92633200D01*
X121830000Y-92633200D02*
X121896666Y-92566533D01*
X121896666Y-92566533D02*
X121963333Y-92433200D01*
X121963333Y-92433200D02*
X121963333Y-91299866D01*
X122830000Y-91899866D02*
X122696667Y-91833200D01*
X122696667Y-91833200D02*
X122630000Y-91766533D01*
X122630000Y-91766533D02*
X122563333Y-91633200D01*
X122563333Y-91633200D02*
X122563333Y-91566533D01*
X122563333Y-91566533D02*
X122630000Y-91433200D01*
X122630000Y-91433200D02*
X122696667Y-91366533D01*
X122696667Y-91366533D02*
X122830000Y-91299866D01*
X122830000Y-91299866D02*
X123096667Y-91299866D01*
X123096667Y-91299866D02*
X123230000Y-91366533D01*
X123230000Y-91366533D02*
X123296667Y-91433200D01*
X123296667Y-91433200D02*
X123363333Y-91566533D01*
X123363333Y-91566533D02*
X123363333Y-91633200D01*
X123363333Y-91633200D02*
X123296667Y-91766533D01*
X123296667Y-91766533D02*
X123230000Y-91833200D01*
X123230000Y-91833200D02*
X123096667Y-91899866D01*
X123096667Y-91899866D02*
X122830000Y-91899866D01*
X122830000Y-91899866D02*
X122696667Y-91966533D01*
X122696667Y-91966533D02*
X122630000Y-92033200D01*
X122630000Y-92033200D02*
X122563333Y-92166533D01*
X122563333Y-92166533D02*
X122563333Y-92433200D01*
X122563333Y-92433200D02*
X122630000Y-92566533D01*
X122630000Y-92566533D02*
X122696667Y-92633200D01*
X122696667Y-92633200D02*
X122830000Y-92699866D01*
X122830000Y-92699866D02*
X123096667Y-92699866D01*
X123096667Y-92699866D02*
X123230000Y-92633200D01*
X123230000Y-92633200D02*
X123296667Y-92566533D01*
X123296667Y-92566533D02*
X123363333Y-92433200D01*
X123363333Y-92433200D02*
X123363333Y-92166533D01*
X123363333Y-92166533D02*
X123296667Y-92033200D01*
X123296667Y-92033200D02*
X123230000Y-91966533D01*
X123230000Y-91966533D02*
X123096667Y-91899866D01*
X158280000Y-133327342D02*
X158280000Y-134184485D01*
X158280000Y-134184485D02*
X158222857Y-134355914D01*
X158222857Y-134355914D02*
X158108571Y-134470200D01*
X158108571Y-134470200D02*
X157937143Y-134527342D01*
X157937143Y-134527342D02*
X157822857Y-134527342D01*
X159480000Y-134527342D02*
X158794286Y-134527342D01*
X159137143Y-134527342D02*
X159137143Y-133327342D01*
X159137143Y-133327342D02*
X159022857Y-133498771D01*
X159022857Y-133498771D02*
X158908572Y-133613057D01*
X158908572Y-133613057D02*
X158794286Y-133670200D01*
X75187255Y-134472485D02*
X75758684Y-134472485D01*
X75072969Y-134815342D02*
X75472969Y-133615342D01*
X75472969Y-133615342D02*
X75872969Y-134815342D01*
X76158683Y-133615342D02*
X76901540Y-133615342D01*
X76901540Y-133615342D02*
X76501540Y-134072485D01*
X76501540Y-134072485D02*
X76672969Y-134072485D01*
X76672969Y-134072485D02*
X76787255Y-134129628D01*
X76787255Y-134129628D02*
X76844397Y-134186771D01*
X76844397Y-134186771D02*
X76901540Y-134301057D01*
X76901540Y-134301057D02*
X76901540Y-134586771D01*
X76901540Y-134586771D02*
X76844397Y-134701057D01*
X76844397Y-134701057D02*
X76787255Y-134758200D01*
X76787255Y-134758200D02*
X76672969Y-134815342D01*
X76672969Y-134815342D02*
X76330112Y-134815342D01*
X76330112Y-134815342D02*
X76215826Y-134758200D01*
X76215826Y-134758200D02*
X76158683Y-134701057D01*
X78044397Y-134815342D02*
X77358683Y-134815342D01*
X77701540Y-134815342D02*
X77701540Y-133615342D01*
X77701540Y-133615342D02*
X77587254Y-133786771D01*
X77587254Y-133786771D02*
X77472969Y-133901057D01*
X77472969Y-133901057D02*
X77358683Y-133958200D01*
X154027255Y-134302485D02*
X154598684Y-134302485D01*
X153912969Y-134645342D02*
X154312969Y-133445342D01*
X154312969Y-133445342D02*
X154712969Y-134645342D01*
X155741540Y-134645342D02*
X155055826Y-134645342D01*
X155398683Y-134645342D02*
X155398683Y-133445342D01*
X155398683Y-133445342D02*
X155284397Y-133616771D01*
X155284397Y-133616771D02*
X155170112Y-133731057D01*
X155170112Y-133731057D02*
X155055826Y-133788200D01*
X158103333Y-111519866D02*
X158103333Y-112519866D01*
X158103333Y-112519866D02*
X158036666Y-112719866D01*
X158036666Y-112719866D02*
X157903333Y-112853200D01*
X157903333Y-112853200D02*
X157703333Y-112919866D01*
X157703333Y-112919866D02*
X157570000Y-112919866D01*
X158703333Y-111653200D02*
X158770000Y-111586533D01*
X158770000Y-111586533D02*
X158903333Y-111519866D01*
X158903333Y-111519866D02*
X159236667Y-111519866D01*
X159236667Y-111519866D02*
X159370000Y-111586533D01*
X159370000Y-111586533D02*
X159436667Y-111653200D01*
X159436667Y-111653200D02*
X159503333Y-111786533D01*
X159503333Y-111786533D02*
X159503333Y-111919866D01*
X159503333Y-111919866D02*
X159436667Y-112119866D01*
X159436667Y-112119866D02*
X158636667Y-112919866D01*
X158636667Y-112919866D02*
X159503333Y-112919866D01*
X84203333Y-102873200D02*
X84403333Y-102939866D01*
X84403333Y-102939866D02*
X84736667Y-102939866D01*
X84736667Y-102939866D02*
X84870000Y-102873200D01*
X84870000Y-102873200D02*
X84936667Y-102806533D01*
X84936667Y-102806533D02*
X85003333Y-102673200D01*
X85003333Y-102673200D02*
X85003333Y-102539866D01*
X85003333Y-102539866D02*
X84936667Y-102406533D01*
X84936667Y-102406533D02*
X84870000Y-102339866D01*
X84870000Y-102339866D02*
X84736667Y-102273200D01*
X84736667Y-102273200D02*
X84470000Y-102206533D01*
X84470000Y-102206533D02*
X84336667Y-102139866D01*
X84336667Y-102139866D02*
X84270000Y-102073200D01*
X84270000Y-102073200D02*
X84203333Y-101939866D01*
X84203333Y-101939866D02*
X84203333Y-101806533D01*
X84203333Y-101806533D02*
X84270000Y-101673200D01*
X84270000Y-101673200D02*
X84336667Y-101606533D01*
X84336667Y-101606533D02*
X84470000Y-101539866D01*
X84470000Y-101539866D02*
X84803333Y-101539866D01*
X84803333Y-101539866D02*
X85003333Y-101606533D01*
X85470000Y-101539866D02*
X85803333Y-102939866D01*
X85803333Y-102939866D02*
X86070000Y-101939866D01*
X86070000Y-101939866D02*
X86336666Y-102939866D01*
X86336666Y-102939866D02*
X86670000Y-101539866D01*
X87936666Y-102939866D02*
X87136666Y-102939866D01*
X87536666Y-102939866D02*
X87536666Y-101539866D01*
X87536666Y-101539866D02*
X87403333Y-101739866D01*
X87403333Y-101739866D02*
X87270000Y-101873200D01*
X87270000Y-101873200D02*
X87136666Y-101939866D01*
X85450000Y-75243057D02*
X85392857Y-75300200D01*
X85392857Y-75300200D02*
X85221429Y-75357342D01*
X85221429Y-75357342D02*
X85107143Y-75357342D01*
X85107143Y-75357342D02*
X84935714Y-75300200D01*
X84935714Y-75300200D02*
X84821429Y-75185914D01*
X84821429Y-75185914D02*
X84764286Y-75071628D01*
X84764286Y-75071628D02*
X84707143Y-74843057D01*
X84707143Y-74843057D02*
X84707143Y-74671628D01*
X84707143Y-74671628D02*
X84764286Y-74443057D01*
X84764286Y-74443057D02*
X84821429Y-74328771D01*
X84821429Y-74328771D02*
X84935714Y-74214485D01*
X84935714Y-74214485D02*
X85107143Y-74157342D01*
X85107143Y-74157342D02*
X85221429Y-74157342D01*
X85221429Y-74157342D02*
X85392857Y-74214485D01*
X85392857Y-74214485D02*
X85450000Y-74271628D01*
X86478572Y-74557342D02*
X86478572Y-75357342D01*
X86192857Y-74100200D02*
X85907143Y-74957342D01*
X85907143Y-74957342D02*
X86650000Y-74957342D01*
X126150000Y-84067342D02*
X125750000Y-83495914D01*
X125464286Y-84067342D02*
X125464286Y-82867342D01*
X125464286Y-82867342D02*
X125921429Y-82867342D01*
X125921429Y-82867342D02*
X126035714Y-82924485D01*
X126035714Y-82924485D02*
X126092857Y-82981628D01*
X126092857Y-82981628D02*
X126150000Y-83095914D01*
X126150000Y-83095914D02*
X126150000Y-83267342D01*
X126150000Y-83267342D02*
X126092857Y-83381628D01*
X126092857Y-83381628D02*
X126035714Y-83438771D01*
X126035714Y-83438771D02*
X125921429Y-83495914D01*
X125921429Y-83495914D02*
X125464286Y-83495914D01*
X127292857Y-84067342D02*
X126607143Y-84067342D01*
X126950000Y-84067342D02*
X126950000Y-82867342D01*
X126950000Y-82867342D02*
X126835714Y-83038771D01*
X126835714Y-83038771D02*
X126721429Y-83153057D01*
X126721429Y-83153057D02*
X126607143Y-83210200D01*
X68408571Y-100623057D02*
X68351428Y-100680200D01*
X68351428Y-100680200D02*
X68180000Y-100737342D01*
X68180000Y-100737342D02*
X68065714Y-100737342D01*
X68065714Y-100737342D02*
X67894285Y-100680200D01*
X67894285Y-100680200D02*
X67780000Y-100565914D01*
X67780000Y-100565914D02*
X67722857Y-100451628D01*
X67722857Y-100451628D02*
X67665714Y-100223057D01*
X67665714Y-100223057D02*
X67665714Y-100051628D01*
X67665714Y-100051628D02*
X67722857Y-99823057D01*
X67722857Y-99823057D02*
X67780000Y-99708771D01*
X67780000Y-99708771D02*
X67894285Y-99594485D01*
X67894285Y-99594485D02*
X68065714Y-99537342D01*
X68065714Y-99537342D02*
X68180000Y-99537342D01*
X68180000Y-99537342D02*
X68351428Y-99594485D01*
X68351428Y-99594485D02*
X68408571Y-99651628D01*
X69551428Y-100737342D02*
X68865714Y-100737342D01*
X69208571Y-100737342D02*
X69208571Y-99537342D01*
X69208571Y-99537342D02*
X69094285Y-99708771D01*
X69094285Y-99708771D02*
X68980000Y-99823057D01*
X68980000Y-99823057D02*
X68865714Y-99880200D01*
X70694285Y-100737342D02*
X70008571Y-100737342D01*
X70351428Y-100737342D02*
X70351428Y-99537342D01*
X70351428Y-99537342D02*
X70237142Y-99708771D01*
X70237142Y-99708771D02*
X70122857Y-99823057D01*
X70122857Y-99823057D02*
X70008571Y-99880200D01*
X133503333Y-58369866D02*
X133503333Y-59503200D01*
X133503333Y-59503200D02*
X133570000Y-59636533D01*
X133570000Y-59636533D02*
X133636666Y-59703200D01*
X133636666Y-59703200D02*
X133770000Y-59769866D01*
X133770000Y-59769866D02*
X134036666Y-59769866D01*
X134036666Y-59769866D02*
X134170000Y-59703200D01*
X134170000Y-59703200D02*
X134236666Y-59636533D01*
X134236666Y-59636533D02*
X134303333Y-59503200D01*
X134303333Y-59503200D02*
X134303333Y-58369866D01*
X134836667Y-58369866D02*
X135703333Y-58369866D01*
X135703333Y-58369866D02*
X135236667Y-58903200D01*
X135236667Y-58903200D02*
X135436667Y-58903200D01*
X135436667Y-58903200D02*
X135570000Y-58969866D01*
X135570000Y-58969866D02*
X135636667Y-59036533D01*
X135636667Y-59036533D02*
X135703333Y-59169866D01*
X135703333Y-59169866D02*
X135703333Y-59503200D01*
X135703333Y-59503200D02*
X135636667Y-59636533D01*
X135636667Y-59636533D02*
X135570000Y-59703200D01*
X135570000Y-59703200D02*
X135436667Y-59769866D01*
X135436667Y-59769866D02*
X135036667Y-59769866D01*
X135036667Y-59769866D02*
X134903333Y-59703200D01*
X134903333Y-59703200D02*
X134836667Y-59636533D01*
X130648571Y-89853057D02*
X130591428Y-89910200D01*
X130591428Y-89910200D02*
X130420000Y-89967342D01*
X130420000Y-89967342D02*
X130305714Y-89967342D01*
X130305714Y-89967342D02*
X130134285Y-89910200D01*
X130134285Y-89910200D02*
X130020000Y-89795914D01*
X130020000Y-89795914D02*
X129962857Y-89681628D01*
X129962857Y-89681628D02*
X129905714Y-89453057D01*
X129905714Y-89453057D02*
X129905714Y-89281628D01*
X129905714Y-89281628D02*
X129962857Y-89053057D01*
X129962857Y-89053057D02*
X130020000Y-88938771D01*
X130020000Y-88938771D02*
X130134285Y-88824485D01*
X130134285Y-88824485D02*
X130305714Y-88767342D01*
X130305714Y-88767342D02*
X130420000Y-88767342D01*
X130420000Y-88767342D02*
X130591428Y-88824485D01*
X130591428Y-88824485D02*
X130648571Y-88881628D01*
X131791428Y-89967342D02*
X131105714Y-89967342D01*
X131448571Y-89967342D02*
X131448571Y-88767342D01*
X131448571Y-88767342D02*
X131334285Y-88938771D01*
X131334285Y-88938771D02*
X131220000Y-89053057D01*
X131220000Y-89053057D02*
X131105714Y-89110200D01*
X132534285Y-88767342D02*
X132648571Y-88767342D01*
X132648571Y-88767342D02*
X132762857Y-88824485D01*
X132762857Y-88824485D02*
X132820000Y-88881628D01*
X132820000Y-88881628D02*
X132877142Y-88995914D01*
X132877142Y-88995914D02*
X132934285Y-89224485D01*
X132934285Y-89224485D02*
X132934285Y-89510200D01*
X132934285Y-89510200D02*
X132877142Y-89738771D01*
X132877142Y-89738771D02*
X132820000Y-89853057D01*
X132820000Y-89853057D02*
X132762857Y-89910200D01*
X132762857Y-89910200D02*
X132648571Y-89967342D01*
X132648571Y-89967342D02*
X132534285Y-89967342D01*
X132534285Y-89967342D02*
X132420000Y-89910200D01*
X132420000Y-89910200D02*
X132362857Y-89853057D01*
X132362857Y-89853057D02*
X132305714Y-89738771D01*
X132305714Y-89738771D02*
X132248571Y-89510200D01*
X132248571Y-89510200D02*
X132248571Y-89224485D01*
X132248571Y-89224485D02*
X132305714Y-88995914D01*
X132305714Y-88995914D02*
X132362857Y-88881628D01*
X132362857Y-88881628D02*
X132420000Y-88824485D01*
X132420000Y-88824485D02*
X132534285Y-88767342D01*
X60203333Y-104449866D02*
X60203333Y-105583200D01*
X60203333Y-105583200D02*
X60270000Y-105716533D01*
X60270000Y-105716533D02*
X60336666Y-105783200D01*
X60336666Y-105783200D02*
X60470000Y-105849866D01*
X60470000Y-105849866D02*
X60736666Y-105849866D01*
X60736666Y-105849866D02*
X60870000Y-105783200D01*
X60870000Y-105783200D02*
X60936666Y-105716533D01*
X60936666Y-105716533D02*
X61003333Y-105583200D01*
X61003333Y-105583200D02*
X61003333Y-104449866D01*
X62270000Y-104449866D02*
X62003333Y-104449866D01*
X62003333Y-104449866D02*
X61870000Y-104516533D01*
X61870000Y-104516533D02*
X61803333Y-104583200D01*
X61803333Y-104583200D02*
X61670000Y-104783200D01*
X61670000Y-104783200D02*
X61603333Y-105049866D01*
X61603333Y-105049866D02*
X61603333Y-105583200D01*
X61603333Y-105583200D02*
X61670000Y-105716533D01*
X61670000Y-105716533D02*
X61736667Y-105783200D01*
X61736667Y-105783200D02*
X61870000Y-105849866D01*
X61870000Y-105849866D02*
X62136667Y-105849866D01*
X62136667Y-105849866D02*
X62270000Y-105783200D01*
X62270000Y-105783200D02*
X62336667Y-105716533D01*
X62336667Y-105716533D02*
X62403333Y-105583200D01*
X62403333Y-105583200D02*
X62403333Y-105249866D01*
X62403333Y-105249866D02*
X62336667Y-105116533D01*
X62336667Y-105116533D02*
X62270000Y-105049866D01*
X62270000Y-105049866D02*
X62136667Y-104983200D01*
X62136667Y-104983200D02*
X61870000Y-104983200D01*
X61870000Y-104983200D02*
X61736667Y-105049866D01*
X61736667Y-105049866D02*
X61670000Y-105116533D01*
X61670000Y-105116533D02*
X61603333Y-105249866D01*
X148530000Y-71103057D02*
X148472857Y-71160200D01*
X148472857Y-71160200D02*
X148301429Y-71217342D01*
X148301429Y-71217342D02*
X148187143Y-71217342D01*
X148187143Y-71217342D02*
X148015714Y-71160200D01*
X148015714Y-71160200D02*
X147901429Y-71045914D01*
X147901429Y-71045914D02*
X147844286Y-70931628D01*
X147844286Y-70931628D02*
X147787143Y-70703057D01*
X147787143Y-70703057D02*
X147787143Y-70531628D01*
X147787143Y-70531628D02*
X147844286Y-70303057D01*
X147844286Y-70303057D02*
X147901429Y-70188771D01*
X147901429Y-70188771D02*
X148015714Y-70074485D01*
X148015714Y-70074485D02*
X148187143Y-70017342D01*
X148187143Y-70017342D02*
X148301429Y-70017342D01*
X148301429Y-70017342D02*
X148472857Y-70074485D01*
X148472857Y-70074485D02*
X148530000Y-70131628D01*
X148930000Y-70017342D02*
X149730000Y-70017342D01*
X149730000Y-70017342D02*
X149215714Y-71217342D01*
X93968095Y-56884819D02*
X93968095Y-57694342D01*
X93968095Y-57694342D02*
X94015714Y-57789580D01*
X94015714Y-57789580D02*
X94063333Y-57837200D01*
X94063333Y-57837200D02*
X94158571Y-57884819D01*
X94158571Y-57884819D02*
X94349047Y-57884819D01*
X94349047Y-57884819D02*
X94444285Y-57837200D01*
X94444285Y-57837200D02*
X94491904Y-57789580D01*
X94491904Y-57789580D02*
X94539523Y-57694342D01*
X94539523Y-57694342D02*
X94539523Y-56884819D01*
X95539523Y-57884819D02*
X94968095Y-57884819D01*
X95253809Y-57884819D02*
X95253809Y-56884819D01*
X95253809Y-56884819D02*
X95158571Y-57027676D01*
X95158571Y-57027676D02*
X95063333Y-57122914D01*
X95063333Y-57122914D02*
X94968095Y-57170533D01*
X129990000Y-75253057D02*
X129932857Y-75310200D01*
X129932857Y-75310200D02*
X129761429Y-75367342D01*
X129761429Y-75367342D02*
X129647143Y-75367342D01*
X129647143Y-75367342D02*
X129475714Y-75310200D01*
X129475714Y-75310200D02*
X129361429Y-75195914D01*
X129361429Y-75195914D02*
X129304286Y-75081628D01*
X129304286Y-75081628D02*
X129247143Y-74853057D01*
X129247143Y-74853057D02*
X129247143Y-74681628D01*
X129247143Y-74681628D02*
X129304286Y-74453057D01*
X129304286Y-74453057D02*
X129361429Y-74338771D01*
X129361429Y-74338771D02*
X129475714Y-74224485D01*
X129475714Y-74224485D02*
X129647143Y-74167342D01*
X129647143Y-74167342D02*
X129761429Y-74167342D01*
X129761429Y-74167342D02*
X129932857Y-74224485D01*
X129932857Y-74224485D02*
X129990000Y-74281628D01*
X130561429Y-75367342D02*
X130790000Y-75367342D01*
X130790000Y-75367342D02*
X130904286Y-75310200D01*
X130904286Y-75310200D02*
X130961429Y-75253057D01*
X130961429Y-75253057D02*
X131075714Y-75081628D01*
X131075714Y-75081628D02*
X131132857Y-74853057D01*
X131132857Y-74853057D02*
X131132857Y-74395914D01*
X131132857Y-74395914D02*
X131075714Y-74281628D01*
X131075714Y-74281628D02*
X131018572Y-74224485D01*
X131018572Y-74224485D02*
X130904286Y-74167342D01*
X130904286Y-74167342D02*
X130675714Y-74167342D01*
X130675714Y-74167342D02*
X130561429Y-74224485D01*
X130561429Y-74224485D02*
X130504286Y-74281628D01*
X130504286Y-74281628D02*
X130447143Y-74395914D01*
X130447143Y-74395914D02*
X130447143Y-74681628D01*
X130447143Y-74681628D02*
X130504286Y-74795914D01*
X130504286Y-74795914D02*
X130561429Y-74853057D01*
X130561429Y-74853057D02*
X130675714Y-74910200D01*
X130675714Y-74910200D02*
X130904286Y-74910200D01*
X130904286Y-74910200D02*
X131018572Y-74853057D01*
X131018572Y-74853057D02*
X131075714Y-74795914D01*
X131075714Y-74795914D02*
X131132857Y-74681628D01*
X101508571Y-100683057D02*
X101451428Y-100740200D01*
X101451428Y-100740200D02*
X101280000Y-100797342D01*
X101280000Y-100797342D02*
X101165714Y-100797342D01*
X101165714Y-100797342D02*
X100994285Y-100740200D01*
X100994285Y-100740200D02*
X100880000Y-100625914D01*
X100880000Y-100625914D02*
X100822857Y-100511628D01*
X100822857Y-100511628D02*
X100765714Y-100283057D01*
X100765714Y-100283057D02*
X100765714Y-100111628D01*
X100765714Y-100111628D02*
X100822857Y-99883057D01*
X100822857Y-99883057D02*
X100880000Y-99768771D01*
X100880000Y-99768771D02*
X100994285Y-99654485D01*
X100994285Y-99654485D02*
X101165714Y-99597342D01*
X101165714Y-99597342D02*
X101280000Y-99597342D01*
X101280000Y-99597342D02*
X101451428Y-99654485D01*
X101451428Y-99654485D02*
X101508571Y-99711628D01*
X102651428Y-100797342D02*
X101965714Y-100797342D01*
X102308571Y-100797342D02*
X102308571Y-99597342D01*
X102308571Y-99597342D02*
X102194285Y-99768771D01*
X102194285Y-99768771D02*
X102080000Y-99883057D01*
X102080000Y-99883057D02*
X101965714Y-99940200D01*
X103108571Y-99711628D02*
X103165714Y-99654485D01*
X103165714Y-99654485D02*
X103280000Y-99597342D01*
X103280000Y-99597342D02*
X103565714Y-99597342D01*
X103565714Y-99597342D02*
X103680000Y-99654485D01*
X103680000Y-99654485D02*
X103737142Y-99711628D01*
X103737142Y-99711628D02*
X103794285Y-99825914D01*
X103794285Y-99825914D02*
X103794285Y-99940200D01*
X103794285Y-99940200D02*
X103737142Y-100111628D01*
X103737142Y-100111628D02*
X103051428Y-100797342D01*
X103051428Y-100797342D02*
X103794285Y-100797342D01*
X107313333Y-105869866D02*
X107313333Y-107003200D01*
X107313333Y-107003200D02*
X107380000Y-107136533D01*
X107380000Y-107136533D02*
X107446666Y-107203200D01*
X107446666Y-107203200D02*
X107580000Y-107269866D01*
X107580000Y-107269866D02*
X107846666Y-107269866D01*
X107846666Y-107269866D02*
X107980000Y-107203200D01*
X107980000Y-107203200D02*
X108046666Y-107136533D01*
X108046666Y-107136533D02*
X108113333Y-107003200D01*
X108113333Y-107003200D02*
X108113333Y-105869866D01*
X108646667Y-105869866D02*
X109580000Y-105869866D01*
X109580000Y-105869866D02*
X108980000Y-107269866D01*
X92136667Y-97949866D02*
X91670000Y-97283200D01*
X91336667Y-97949866D02*
X91336667Y-96549866D01*
X91336667Y-96549866D02*
X91870000Y-96549866D01*
X91870000Y-96549866D02*
X92003334Y-96616533D01*
X92003334Y-96616533D02*
X92070000Y-96683200D01*
X92070000Y-96683200D02*
X92136667Y-96816533D01*
X92136667Y-96816533D02*
X92136667Y-97016533D01*
X92136667Y-97016533D02*
X92070000Y-97149866D01*
X92070000Y-97149866D02*
X92003334Y-97216533D01*
X92003334Y-97216533D02*
X91870000Y-97283200D01*
X91870000Y-97283200D02*
X91336667Y-97283200D01*
X92736667Y-97949866D02*
X92736667Y-96549866D01*
X92736667Y-96549866D02*
X93270000Y-96549866D01*
X93270000Y-96549866D02*
X93403334Y-96616533D01*
X93403334Y-96616533D02*
X93470000Y-96683200D01*
X93470000Y-96683200D02*
X93536667Y-96816533D01*
X93536667Y-96816533D02*
X93536667Y-97016533D01*
X93536667Y-97016533D02*
X93470000Y-97149866D01*
X93470000Y-97149866D02*
X93403334Y-97216533D01*
X93403334Y-97216533D02*
X93270000Y-97283200D01*
X93270000Y-97283200D02*
X92736667Y-97283200D01*
X94870000Y-97949866D02*
X94070000Y-97949866D01*
X94470000Y-97949866D02*
X94470000Y-96549866D01*
X94470000Y-96549866D02*
X94336667Y-96749866D01*
X94336667Y-96749866D02*
X94203334Y-96883200D01*
X94203334Y-96883200D02*
X94070000Y-96949866D01*
X156520000Y-78287342D02*
X156120000Y-77715914D01*
X155834286Y-78287342D02*
X155834286Y-77087342D01*
X155834286Y-77087342D02*
X156291429Y-77087342D01*
X156291429Y-77087342D02*
X156405714Y-77144485D01*
X156405714Y-77144485D02*
X156462857Y-77201628D01*
X156462857Y-77201628D02*
X156520000Y-77315914D01*
X156520000Y-77315914D02*
X156520000Y-77487342D01*
X156520000Y-77487342D02*
X156462857Y-77601628D01*
X156462857Y-77601628D02*
X156405714Y-77658771D01*
X156405714Y-77658771D02*
X156291429Y-77715914D01*
X156291429Y-77715914D02*
X155834286Y-77715914D01*
X156977143Y-77201628D02*
X157034286Y-77144485D01*
X157034286Y-77144485D02*
X157148572Y-77087342D01*
X157148572Y-77087342D02*
X157434286Y-77087342D01*
X157434286Y-77087342D02*
X157548572Y-77144485D01*
X157548572Y-77144485D02*
X157605714Y-77201628D01*
X157605714Y-77201628D02*
X157662857Y-77315914D01*
X157662857Y-77315914D02*
X157662857Y-77430200D01*
X157662857Y-77430200D02*
X157605714Y-77601628D01*
X157605714Y-77601628D02*
X156920000Y-78287342D01*
X156920000Y-78287342D02*
X157662857Y-78287342D01*
X124423333Y-70989866D02*
X124423333Y-72123200D01*
X124423333Y-72123200D02*
X124490000Y-72256533D01*
X124490000Y-72256533D02*
X124556666Y-72323200D01*
X124556666Y-72323200D02*
X124690000Y-72389866D01*
X124690000Y-72389866D02*
X124956666Y-72389866D01*
X124956666Y-72389866D02*
X125090000Y-72323200D01*
X125090000Y-72323200D02*
X125156666Y-72256533D01*
X125156666Y-72256533D02*
X125223333Y-72123200D01*
X125223333Y-72123200D02*
X125223333Y-70989866D01*
X125823333Y-71123200D02*
X125890000Y-71056533D01*
X125890000Y-71056533D02*
X126023333Y-70989866D01*
X126023333Y-70989866D02*
X126356667Y-70989866D01*
X126356667Y-70989866D02*
X126490000Y-71056533D01*
X126490000Y-71056533D02*
X126556667Y-71123200D01*
X126556667Y-71123200D02*
X126623333Y-71256533D01*
X126623333Y-71256533D02*
X126623333Y-71389866D01*
X126623333Y-71389866D02*
X126556667Y-71589866D01*
X126556667Y-71589866D02*
X125756667Y-72389866D01*
X125756667Y-72389866D02*
X126623333Y-72389866D01*
X94243333Y-79579866D02*
X94243333Y-80713200D01*
X94243333Y-80713200D02*
X94310000Y-80846533D01*
X94310000Y-80846533D02*
X94376666Y-80913200D01*
X94376666Y-80913200D02*
X94510000Y-80979866D01*
X94510000Y-80979866D02*
X94776666Y-80979866D01*
X94776666Y-80979866D02*
X94910000Y-80913200D01*
X94910000Y-80913200D02*
X94976666Y-80846533D01*
X94976666Y-80846533D02*
X95043333Y-80713200D01*
X95043333Y-80713200D02*
X95043333Y-79579866D01*
X96376667Y-79579866D02*
X95710000Y-79579866D01*
X95710000Y-79579866D02*
X95643333Y-80246533D01*
X95643333Y-80246533D02*
X95710000Y-80179866D01*
X95710000Y-80179866D02*
X95843333Y-80113200D01*
X95843333Y-80113200D02*
X96176667Y-80113200D01*
X96176667Y-80113200D02*
X96310000Y-80179866D01*
X96310000Y-80179866D02*
X96376667Y-80246533D01*
X96376667Y-80246533D02*
X96443333Y-80379866D01*
X96443333Y-80379866D02*
X96443333Y-80713200D01*
X96443333Y-80713200D02*
X96376667Y-80846533D01*
X96376667Y-80846533D02*
X96310000Y-80913200D01*
X96310000Y-80913200D02*
X96176667Y-80979866D01*
X96176667Y-80979866D02*
X95843333Y-80979866D01*
X95843333Y-80979866D02*
X95710000Y-80913200D01*
X95710000Y-80913200D02*
X95643333Y-80846533D01*
X118640000Y-67873057D02*
X118582857Y-67930200D01*
X118582857Y-67930200D02*
X118411429Y-67987342D01*
X118411429Y-67987342D02*
X118297143Y-67987342D01*
X118297143Y-67987342D02*
X118125714Y-67930200D01*
X118125714Y-67930200D02*
X118011429Y-67815914D01*
X118011429Y-67815914D02*
X117954286Y-67701628D01*
X117954286Y-67701628D02*
X117897143Y-67473057D01*
X117897143Y-67473057D02*
X117897143Y-67301628D01*
X117897143Y-67301628D02*
X117954286Y-67073057D01*
X117954286Y-67073057D02*
X118011429Y-66958771D01*
X118011429Y-66958771D02*
X118125714Y-66844485D01*
X118125714Y-66844485D02*
X118297143Y-66787342D01*
X118297143Y-66787342D02*
X118411429Y-66787342D01*
X118411429Y-66787342D02*
X118582857Y-66844485D01*
X118582857Y-66844485D02*
X118640000Y-66901628D01*
X119097143Y-66901628D02*
X119154286Y-66844485D01*
X119154286Y-66844485D02*
X119268572Y-66787342D01*
X119268572Y-66787342D02*
X119554286Y-66787342D01*
X119554286Y-66787342D02*
X119668572Y-66844485D01*
X119668572Y-66844485D02*
X119725714Y-66901628D01*
X119725714Y-66901628D02*
X119782857Y-67015914D01*
X119782857Y-67015914D02*
X119782857Y-67130200D01*
X119782857Y-67130200D02*
X119725714Y-67301628D01*
X119725714Y-67301628D02*
X119040000Y-67987342D01*
X119040000Y-67987342D02*
X119782857Y-67987342D01*
X156555000Y-80597342D02*
X156155000Y-80025914D01*
X155869286Y-80597342D02*
X155869286Y-79397342D01*
X155869286Y-79397342D02*
X156326429Y-79397342D01*
X156326429Y-79397342D02*
X156440714Y-79454485D01*
X156440714Y-79454485D02*
X156497857Y-79511628D01*
X156497857Y-79511628D02*
X156555000Y-79625914D01*
X156555000Y-79625914D02*
X156555000Y-79797342D01*
X156555000Y-79797342D02*
X156497857Y-79911628D01*
X156497857Y-79911628D02*
X156440714Y-79968771D01*
X156440714Y-79968771D02*
X156326429Y-80025914D01*
X156326429Y-80025914D02*
X155869286Y-80025914D01*
X156955000Y-79397342D02*
X157697857Y-79397342D01*
X157697857Y-79397342D02*
X157297857Y-79854485D01*
X157297857Y-79854485D02*
X157469286Y-79854485D01*
X157469286Y-79854485D02*
X157583572Y-79911628D01*
X157583572Y-79911628D02*
X157640714Y-79968771D01*
X157640714Y-79968771D02*
X157697857Y-80083057D01*
X157697857Y-80083057D02*
X157697857Y-80368771D01*
X157697857Y-80368771D02*
X157640714Y-80483057D01*
X157640714Y-80483057D02*
X157583572Y-80540200D01*
X157583572Y-80540200D02*
X157469286Y-80597342D01*
X157469286Y-80597342D02*
X157126429Y-80597342D01*
X157126429Y-80597342D02*
X157012143Y-80540200D01*
X157012143Y-80540200D02*
X156955000Y-80483057D01*
X77163333Y-79389866D02*
X77163333Y-80523200D01*
X77163333Y-80523200D02*
X77230000Y-80656533D01*
X77230000Y-80656533D02*
X77296666Y-80723200D01*
X77296666Y-80723200D02*
X77430000Y-80789866D01*
X77430000Y-80789866D02*
X77696666Y-80789866D01*
X77696666Y-80789866D02*
X77830000Y-80723200D01*
X77830000Y-80723200D02*
X77896666Y-80656533D01*
X77896666Y-80656533D02*
X77963333Y-80523200D01*
X77963333Y-80523200D02*
X77963333Y-79389866D01*
X79230000Y-79856533D02*
X79230000Y-80789866D01*
X78896667Y-79323200D02*
X78563333Y-80323200D01*
X78563333Y-80323200D02*
X79430000Y-80323200D01*
X108000000Y-77403057D02*
X107942857Y-77460200D01*
X107942857Y-77460200D02*
X107771429Y-77517342D01*
X107771429Y-77517342D02*
X107657143Y-77517342D01*
X107657143Y-77517342D02*
X107485714Y-77460200D01*
X107485714Y-77460200D02*
X107371429Y-77345914D01*
X107371429Y-77345914D02*
X107314286Y-77231628D01*
X107314286Y-77231628D02*
X107257143Y-77003057D01*
X107257143Y-77003057D02*
X107257143Y-76831628D01*
X107257143Y-76831628D02*
X107314286Y-76603057D01*
X107314286Y-76603057D02*
X107371429Y-76488771D01*
X107371429Y-76488771D02*
X107485714Y-76374485D01*
X107485714Y-76374485D02*
X107657143Y-76317342D01*
X107657143Y-76317342D02*
X107771429Y-76317342D01*
X107771429Y-76317342D02*
X107942857Y-76374485D01*
X107942857Y-76374485D02*
X108000000Y-76431628D01*
X109085714Y-76317342D02*
X108514286Y-76317342D01*
X108514286Y-76317342D02*
X108457143Y-76888771D01*
X108457143Y-76888771D02*
X108514286Y-76831628D01*
X108514286Y-76831628D02*
X108628572Y-76774485D01*
X108628572Y-76774485D02*
X108914286Y-76774485D01*
X108914286Y-76774485D02*
X109028572Y-76831628D01*
X109028572Y-76831628D02*
X109085714Y-76888771D01*
X109085714Y-76888771D02*
X109142857Y-77003057D01*
X109142857Y-77003057D02*
X109142857Y-77288771D01*
X109142857Y-77288771D02*
X109085714Y-77403057D01*
X109085714Y-77403057D02*
X109028572Y-77460200D01*
X109028572Y-77460200D02*
X108914286Y-77517342D01*
X108914286Y-77517342D02*
X108628572Y-77517342D01*
X108628572Y-77517342D02*
X108514286Y-77460200D01*
X108514286Y-77460200D02*
X108457143Y-77403057D01*
X102080000Y-52373057D02*
X102022857Y-52430200D01*
X102022857Y-52430200D02*
X101851429Y-52487342D01*
X101851429Y-52487342D02*
X101737143Y-52487342D01*
X101737143Y-52487342D02*
X101565714Y-52430200D01*
X101565714Y-52430200D02*
X101451429Y-52315914D01*
X101451429Y-52315914D02*
X101394286Y-52201628D01*
X101394286Y-52201628D02*
X101337143Y-51973057D01*
X101337143Y-51973057D02*
X101337143Y-51801628D01*
X101337143Y-51801628D02*
X101394286Y-51573057D01*
X101394286Y-51573057D02*
X101451429Y-51458771D01*
X101451429Y-51458771D02*
X101565714Y-51344485D01*
X101565714Y-51344485D02*
X101737143Y-51287342D01*
X101737143Y-51287342D02*
X101851429Y-51287342D01*
X101851429Y-51287342D02*
X102022857Y-51344485D01*
X102022857Y-51344485D02*
X102080000Y-51401628D01*
X103222857Y-52487342D02*
X102537143Y-52487342D01*
X102880000Y-52487342D02*
X102880000Y-51287342D01*
X102880000Y-51287342D02*
X102765714Y-51458771D01*
X102765714Y-51458771D02*
X102651429Y-51573057D01*
X102651429Y-51573057D02*
X102537143Y-51630200D01*
D14*
X146270000Y-68220000D02*
X149770000Y-68220000D01*
X149770000Y-66220000D02*
X146270000Y-66220000D01*
X146270000Y-68220000D02*
G75*
G02*
X146270000Y-66220000I0J1000000D01*
G01*
X149770000Y-66220000D02*
G75*
G02*
X149770000Y-68220000I0J-1000000D01*
G01*
X158140000Y-103360000D02*
X158140000Y-99860000D01*
X156140000Y-99860000D02*
X156140000Y-103360000D01*
X158140000Y-103360000D02*
G75*
G02*
X156140000Y-103360000I-1000000J0D01*
G01*
X156140000Y-99860000D02*
G75*
G02*
X158140000Y-99860000I1000000J0D01*
G01*
X142115113Y-53150000D02*
X138615113Y-53150000D01*
X138615113Y-55150000D02*
X142115113Y-55150000D01*
X142115113Y-53150000D02*
G75*
G02*
X142115113Y-55150000I0J-1000000D01*
G01*
X138615113Y-55150000D02*
G75*
G02*
X138615113Y-53150000I0J1000000D01*
G01*
X146500000Y-63160000D02*
X150000000Y-63160000D01*
X150000000Y-61160000D02*
X146500000Y-61160000D01*
X146500000Y-63160000D02*
G75*
G02*
X146500000Y-61160000I0J1000000D01*
G01*
X150000000Y-61160000D02*
G75*
G02*
X150000000Y-63160000I0J-1000000D01*
G01*
X145830000Y-131050000D02*
X147080000Y-131050000D01*
X146455000Y-130425000D02*
X146455000Y-131675000D01*
X148330000Y-130050000D02*
X155330000Y-130050000D01*
X155330000Y-132050000D01*
X148330000Y-132050000D01*
X148330000Y-130050000D01*
X130590000Y-131050000D02*
X131840000Y-131050000D01*
X131215000Y-130425000D02*
X131215000Y-131675000D01*
X133090000Y-130050000D02*
X140090000Y-130050000D01*
X140090000Y-132050000D01*
X133090000Y-132050000D01*
X133090000Y-130050000D01*
X137170000Y-125480000D02*
X137170000Y-93730000D01*
X137180000Y-125480000D02*
X148930000Y-125480000D01*
X142050000Y-93730000D02*
X137170000Y-93730000D01*
X148930000Y-93730000D02*
X144050000Y-93730000D01*
X148930000Y-125480000D02*
X148930000Y-93730000D01*
X144050000Y-93730000D02*
G75*
G02*
X142050000Y-93730000I-1000000J0D01*
G01*
X116780000Y-125480000D02*
X116780000Y-93730000D01*
X116790000Y-125480000D02*
X128540000Y-125480000D01*
X121660000Y-93730000D02*
X116780000Y-93730000D01*
X128540000Y-93730000D02*
X123660000Y-93730000D01*
X128540000Y-125480000D02*
X128540000Y-93730000D01*
X123660000Y-93730000D02*
G75*
G02*
X121660000Y-93730000I-1000000J0D01*
G01*
X167185000Y-104842500D02*
X160835000Y-104842500D01*
X160835000Y-120717500D01*
X167185000Y-120717500D01*
X167185000Y-104842500D01*
X83290000Y-104640000D02*
X88040000Y-104640000D01*
X88040000Y-123390000D01*
X83290000Y-123390000D01*
X83290000Y-104640000D01*
X84150000Y-75760000D02*
X87150000Y-75760000D01*
X87150000Y-77760000D02*
X84150000Y-77760000D01*
X84150000Y-77760000D02*
G75*
G02*
X84150000Y-75760000I0J1000000D01*
G01*
X87150000Y-75760000D02*
G75*
G02*
X87150000Y-77760000I0J-1000000D01*
G01*
X127480000Y-79890000D02*
X129590000Y-79890000D01*
X138100000Y-79890000D02*
X136190000Y-79890000D01*
X136190000Y-80990000D02*
X129590000Y-80990000D01*
X129590000Y-78790000D01*
X136190000Y-78790000D01*
X136190000Y-80990000D01*
X67680000Y-101100000D02*
X70680000Y-101100000D01*
X70680000Y-103100000D02*
X67680000Y-103100000D01*
X67680000Y-103100000D02*
G75*
G02*
X67680000Y-101100000I0J1000000D01*
G01*
X70680000Y-101100000D02*
G75*
G02*
X70680000Y-103100000I0J-1000000D01*
G01*
D16*
X135190000Y-60810000D02*
X135190000Y-71090000D01*
X135190000Y-71090000D02*
X140490000Y-71090000D01*
X136840000Y-60810000D02*
X135190000Y-60810000D01*
X140490000Y-60810000D02*
X138840000Y-60810000D01*
X140490000Y-71090000D02*
X140490000Y-60810000D01*
X138840000Y-60810000D02*
G75*
G02*
X136840000Y-60810000I-1000000J0D01*
G01*
D14*
X132450000Y-83910000D02*
X132450000Y-82410000D01*
X133200000Y-83160000D02*
X131700000Y-83160000D01*
X133950000Y-86160000D02*
X134700000Y-86160000D01*
X155450000Y-86160000D02*
X154700000Y-86160000D01*
X134700000Y-81160000D02*
X154700000Y-81160000D01*
X154700000Y-91160000D01*
X134700000Y-91160000D01*
X134700000Y-81160000D01*
D16*
X66540000Y-103810000D02*
X66540000Y-124250000D01*
X66540000Y-124250000D02*
X71840000Y-124250000D01*
X68190000Y-103810000D02*
X66540000Y-103810000D01*
X71840000Y-103810000D02*
X70190000Y-103810000D01*
X71840000Y-124250000D02*
X71840000Y-103810000D01*
X70190000Y-103810000D02*
G75*
G02*
X68190000Y-103810000I-1000000J0D01*
G01*
D14*
X144260000Y-72310000D02*
X151760000Y-72310000D01*
X151760000Y-74810000D02*
X144260000Y-74810000D01*
X144260000Y-74810000D02*
G75*
G02*
X144260000Y-72310000I0J1250000D01*
G01*
X151760000Y-72310000D02*
G75*
G02*
X151760000Y-74810000I0J-1250000D01*
G01*
D16*
X99640000Y-55735000D02*
X99640000Y-73635000D01*
X99640000Y-73635000D02*
X104940000Y-73635000D01*
X101290000Y-55735000D02*
X99640000Y-55735000D01*
X104940000Y-55735000D02*
X103290000Y-55735000D01*
X104940000Y-73635000D02*
X104940000Y-55735000D01*
X103290000Y-55735000D02*
G75*
G02*
X101290000Y-55735000I-1000000J0D01*
G01*
D14*
X126440000Y-76290000D02*
X133940000Y-76290000D01*
X133940000Y-78790000D02*
X126440000Y-78790000D01*
X126440000Y-78790000D02*
G75*
G02*
X126440000Y-76290000I0J1250000D01*
G01*
X133940000Y-76290000D02*
G75*
G02*
X133940000Y-78790000I0J-1250000D01*
G01*
X100780000Y-101030000D02*
X103780000Y-101030000D01*
X103780000Y-103030000D02*
X100780000Y-103030000D01*
X100780000Y-103030000D02*
G75*
G02*
X100780000Y-101030000I0J1000000D01*
G01*
X103780000Y-101030000D02*
G75*
G02*
X103780000Y-103030000I0J-1000000D01*
G01*
D16*
X99640000Y-103810000D02*
X99640000Y-124250000D01*
X99640000Y-124250000D02*
X104940000Y-124250000D01*
X101290000Y-103810000D02*
X99640000Y-103810000D01*
X104940000Y-103810000D02*
X103290000Y-103810000D01*
X104940000Y-124250000D02*
X104940000Y-103810000D01*
X103290000Y-103810000D02*
G75*
G02*
X101290000Y-103810000I-1000000J0D01*
G01*
X91830000Y-98620000D02*
X91830000Y-124360000D01*
X91830000Y-124360000D02*
X94630000Y-124360000D01*
X94630000Y-98620000D02*
X91830000Y-98620000D01*
X94630000Y-101330000D02*
X91830000Y-101330000D01*
X94630000Y-124360000D02*
X94630000Y-98620000D01*
D14*
X142770000Y-77190000D02*
X144880000Y-77190000D01*
X153390000Y-77190000D02*
X151480000Y-77190000D01*
X151480000Y-78290000D02*
X144880000Y-78290000D01*
X144880000Y-76090000D01*
X151480000Y-76090000D01*
X151480000Y-78290000D01*
D16*
X116200000Y-70960000D02*
X116200000Y-88860000D01*
X116200000Y-88860000D02*
X121500000Y-88860000D01*
X117850000Y-70960000D02*
X116200000Y-70960000D01*
X121500000Y-70960000D02*
X119850000Y-70960000D01*
X121500000Y-88860000D02*
X121500000Y-70960000D01*
X119850000Y-70960000D02*
G75*
G02*
X117850000Y-70960000I-1000000J0D01*
G01*
X99640000Y-78525000D02*
X99640000Y-96425000D01*
X99640000Y-96425000D02*
X104940000Y-96425000D01*
X101290000Y-78525000D02*
X99640000Y-78525000D01*
X104940000Y-78525000D02*
X103290000Y-78525000D01*
X104940000Y-96425000D02*
X104940000Y-78525000D01*
X103290000Y-78525000D02*
G75*
G02*
X101290000Y-78525000I-1000000J0D01*
G01*
D14*
X117340000Y-68300000D02*
X120340000Y-68300000D01*
X120340000Y-70300000D02*
X117340000Y-70300000D01*
X117340000Y-70300000D02*
G75*
G02*
X117340000Y-68300000I0J1000000D01*
G01*
X120340000Y-68300000D02*
G75*
G02*
X120340000Y-70300000I0J-1000000D01*
G01*
X142765000Y-79890000D02*
X144875000Y-79890000D01*
X153385000Y-79890000D02*
X151475000Y-79890000D01*
X151475000Y-80990000D02*
X144875000Y-80990000D01*
X144875000Y-78790000D01*
X151475000Y-78790000D01*
X151475000Y-80990000D01*
D16*
X83010000Y-78525000D02*
X83010000Y-96425000D01*
X83010000Y-96425000D02*
X88310000Y-96425000D01*
X84660000Y-78525000D02*
X83010000Y-78525000D01*
X88310000Y-78525000D02*
X86660000Y-78525000D01*
X88310000Y-96425000D02*
X88310000Y-78525000D01*
X86660000Y-78525000D02*
G75*
G02*
X84660000Y-78525000I-1000000J0D01*
G01*
D14*
X100780000Y-75760000D02*
X103780000Y-75760000D01*
X103780000Y-77760000D02*
X100780000Y-77760000D01*
X100780000Y-77760000D02*
G75*
G02*
X100780000Y-75760000I0J1000000D01*
G01*
X103780000Y-75760000D02*
G75*
G02*
X103780000Y-77760000I0J-1000000D01*
G01*
X100780000Y-52980000D02*
X103780000Y-52980000D01*
X103780000Y-54980000D02*
X100780000Y-54980000D01*
X100780000Y-54980000D02*
G75*
G02*
X100780000Y-52980000I0J1000000D01*
G01*
X103780000Y-52980000D02*
G75*
G02*
X103780000Y-54980000I0J-1000000D01*
G01*
%LPC*%
D17*
X146770000Y-67220000D03*
X149270000Y-67220000D03*
X157140000Y-102860000D03*
X157140000Y-100360000D03*
X141615113Y-54150000D03*
X139115113Y-54150000D03*
X147000000Y-62160000D03*
X149500000Y-62160000D03*
D18*
X149330000Y-131050000D03*
D17*
X154330000Y-131050000D03*
D18*
X134090000Y-131050000D03*
D17*
X139090000Y-131050000D03*
D19*
X166020000Y-64195000D03*
X166020000Y-85785000D03*
D20*
X160305000Y-69275000D03*
X159035000Y-74990000D03*
X160305000Y-80705000D03*
D18*
X135430000Y-94980000D03*
D21*
X135430000Y-97520000D03*
X135430000Y-100060000D03*
X135430000Y-102600000D03*
X135430000Y-105140000D03*
X135430000Y-107680000D03*
X135430000Y-110220000D03*
X135430000Y-112760000D03*
X135430000Y-115300000D03*
X135430000Y-117840000D03*
X135430000Y-120380000D03*
X135430000Y-122920000D03*
X150670000Y-122920000D03*
X150670000Y-120380000D03*
X150670000Y-117840000D03*
X150670000Y-115300000D03*
X150670000Y-112760000D03*
X150670000Y-110220000D03*
X150670000Y-107680000D03*
X150670000Y-105140000D03*
X150670000Y-102600000D03*
X150670000Y-100060000D03*
X150670000Y-97520000D03*
X150670000Y-94980000D03*
D18*
X115040000Y-94980000D03*
D21*
X115040000Y-97520000D03*
X115040000Y-100060000D03*
X115040000Y-102600000D03*
X115040000Y-105140000D03*
X115040000Y-107680000D03*
X115040000Y-110220000D03*
X115040000Y-112760000D03*
X115040000Y-115300000D03*
X115040000Y-117840000D03*
X115040000Y-120380000D03*
X115040000Y-122920000D03*
X130280000Y-122920000D03*
X130280000Y-120380000D03*
X130280000Y-117840000D03*
X130280000Y-115300000D03*
X130280000Y-112760000D03*
X130280000Y-110220000D03*
X130280000Y-107680000D03*
X130280000Y-105140000D03*
X130280000Y-102600000D03*
X130280000Y-100060000D03*
X130280000Y-97520000D03*
X130280000Y-94980000D03*
D22*
X154370000Y-136145000D03*
D23*
X154370000Y-139420000D03*
D22*
X151830000Y-136145000D03*
D23*
X151830000Y-139420000D03*
D22*
X149290000Y-136145000D03*
D23*
X149290000Y-139420000D03*
D22*
X146750000Y-136145000D03*
D23*
X146750000Y-139420000D03*
D22*
X144210000Y-136145000D03*
D23*
X144210000Y-139420000D03*
D22*
X141670000Y-136145000D03*
D23*
X141670000Y-139420000D03*
D22*
X139130000Y-136145000D03*
D23*
X139130000Y-139420000D03*
D22*
X136590000Y-136145000D03*
D23*
X136590000Y-139420000D03*
D22*
X134050000Y-136145000D03*
D23*
X134050000Y-139420000D03*
D22*
X131510000Y-136145000D03*
D23*
X131510000Y-139420000D03*
D22*
X128970000Y-136145000D03*
D23*
X128970000Y-139420000D03*
D22*
X126430000Y-136145000D03*
D23*
X126430000Y-139420000D03*
D22*
X123890000Y-136145000D03*
D23*
X123890000Y-139420000D03*
D22*
X121350000Y-136145000D03*
D23*
X121350000Y-139420000D03*
D22*
X118810000Y-136145000D03*
D23*
X118810000Y-139420000D03*
D22*
X116270000Y-136145000D03*
D23*
X116270000Y-139420000D03*
D22*
X113730000Y-136145000D03*
D23*
X113730000Y-139420000D03*
D22*
X111190000Y-136145000D03*
D23*
X111190000Y-139420000D03*
D22*
X108650000Y-136145000D03*
D23*
X108650000Y-139420000D03*
D22*
X106110000Y-136145000D03*
D23*
X106110000Y-139420000D03*
D22*
X103570000Y-136145000D03*
D23*
X103570000Y-139420000D03*
D22*
X101030000Y-136145000D03*
D23*
X101030000Y-139420000D03*
D22*
X98490000Y-136145000D03*
D23*
X98490000Y-139420000D03*
D22*
X95950000Y-136145000D03*
D23*
X95950000Y-139420000D03*
D22*
X93410000Y-136145000D03*
D23*
X93410000Y-139420000D03*
D22*
X90870000Y-136145000D03*
D23*
X90870000Y-139420000D03*
D22*
X88330000Y-136145000D03*
D23*
X88330000Y-139420000D03*
D22*
X85790000Y-136145000D03*
D23*
X85790000Y-139420000D03*
D22*
X83250000Y-136145000D03*
D23*
X83250000Y-139420000D03*
D22*
X80710000Y-136145000D03*
D23*
X80710000Y-139420000D03*
D22*
X78170000Y-136145000D03*
D23*
X78170000Y-139420000D03*
D24*
X164010000Y-117860000D03*
X164010000Y-107700000D03*
D18*
X81790000Y-105140000D03*
D21*
X81790000Y-107680000D03*
X81790000Y-110220000D03*
X81790000Y-112760000D03*
X81790000Y-115300000D03*
X81790000Y-117840000D03*
X81790000Y-120380000D03*
X81790000Y-122920000D03*
X89410000Y-122920000D03*
X89410000Y-120380000D03*
X89410000Y-117840000D03*
X89410000Y-115300000D03*
X89410000Y-112760000D03*
X89410000Y-110220000D03*
X89410000Y-107680000D03*
X89410000Y-105140000D03*
D25*
X89400000Y-76760000D03*
X81900000Y-76760000D03*
D17*
X139140000Y-79890000D03*
D21*
X126440000Y-79890000D03*
D25*
X72930000Y-102100000D03*
X65430000Y-102100000D03*
D18*
X134030000Y-62140000D03*
D21*
X134030000Y-64680000D03*
X134030000Y-67220000D03*
X134030000Y-69760000D03*
X141650000Y-69760000D03*
X141650000Y-67220000D03*
X141650000Y-64680000D03*
X141650000Y-62140000D03*
D26*
X132200000Y-86160000D03*
X157200000Y-86160000D03*
D18*
X65380000Y-105140000D03*
D21*
X65380000Y-107680000D03*
X65380000Y-110220000D03*
X65380000Y-112760000D03*
X65380000Y-115300000D03*
X65380000Y-117840000D03*
X65380000Y-120380000D03*
X65380000Y-122920000D03*
X73000000Y-122920000D03*
X73000000Y-120380000D03*
X73000000Y-117840000D03*
X73000000Y-115300000D03*
X73000000Y-112760000D03*
X73000000Y-110220000D03*
X73000000Y-107680000D03*
X73000000Y-105140000D03*
D25*
X151760000Y-73560000D03*
X144260000Y-73560000D03*
D18*
X98480000Y-57065000D03*
D21*
X98480000Y-59605000D03*
X98480000Y-62145000D03*
X98480000Y-64685000D03*
X98480000Y-67225000D03*
X98480000Y-69765000D03*
X98480000Y-72305000D03*
X106100000Y-72305000D03*
X106100000Y-69765000D03*
X106100000Y-67225000D03*
X106100000Y-64685000D03*
X106100000Y-62145000D03*
X106100000Y-59605000D03*
X106100000Y-57065000D03*
D25*
X126440000Y-77540000D03*
X133940000Y-77540000D03*
X106030000Y-102030000D03*
X98530000Y-102030000D03*
D18*
X98480000Y-105140000D03*
D21*
X98480000Y-107680000D03*
X98480000Y-110220000D03*
X98480000Y-112760000D03*
X98480000Y-115300000D03*
X98480000Y-117840000D03*
X98480000Y-120380000D03*
X98480000Y-122920000D03*
X106100000Y-122920000D03*
X106100000Y-120380000D03*
X106100000Y-117840000D03*
X106100000Y-115300000D03*
X106100000Y-112760000D03*
X106100000Y-110220000D03*
X106100000Y-107680000D03*
X106100000Y-105140000D03*
D18*
X93230000Y-100060000D03*
D21*
X93230000Y-102600000D03*
X93230000Y-105140000D03*
X93230000Y-107680000D03*
X93230000Y-110220000D03*
X93230000Y-112760000D03*
X93230000Y-115300000D03*
X93230000Y-117840000D03*
X93230000Y-120380000D03*
X93230000Y-122920000D03*
D17*
X154430000Y-77190000D03*
D21*
X141730000Y-77190000D03*
D18*
X115040000Y-72290000D03*
D21*
X115040000Y-74830000D03*
X115040000Y-77370000D03*
X115040000Y-79910000D03*
X115040000Y-82450000D03*
X115040000Y-84990000D03*
X115040000Y-87530000D03*
X122660000Y-87530000D03*
X122660000Y-84990000D03*
X122660000Y-82450000D03*
X122660000Y-79910000D03*
X122660000Y-77370000D03*
X122660000Y-74830000D03*
X122660000Y-72290000D03*
D18*
X98480000Y-79855000D03*
D21*
X98480000Y-82395000D03*
X98480000Y-84935000D03*
X98480000Y-87475000D03*
X98480000Y-90015000D03*
X98480000Y-92555000D03*
X98480000Y-95095000D03*
X106100000Y-95095000D03*
X106100000Y-92555000D03*
X106100000Y-90015000D03*
X106100000Y-87475000D03*
X106100000Y-84935000D03*
X106100000Y-82395000D03*
X106100000Y-79855000D03*
D25*
X122590000Y-69300000D03*
X115090000Y-69300000D03*
D17*
X154425000Y-79890000D03*
D21*
X141725000Y-79890000D03*
D18*
X81850000Y-79855000D03*
D21*
X81850000Y-82395000D03*
X81850000Y-84935000D03*
X81850000Y-87475000D03*
X81850000Y-90015000D03*
X81850000Y-92555000D03*
X81850000Y-95095000D03*
X89470000Y-95095000D03*
X89470000Y-92555000D03*
X89470000Y-90015000D03*
X89470000Y-87475000D03*
X89470000Y-84935000D03*
X89470000Y-82395000D03*
X89470000Y-79855000D03*
D25*
X106030000Y-76760000D03*
X98530000Y-76760000D03*
X106030000Y-53980000D03*
X98530000Y-53980000D03*
%LPD*%
M02*
