G04 #@! TF.GenerationSoftware,KiCad,Pcbnew,8.0.9*
G04 #@! TF.CreationDate,2025-03-24T20:53:25+01:00*
G04 #@! TF.ProjectId,Mindscape_Music_Board,4d696e64-7363-4617-9065-5f4d75736963,rev?*
G04 #@! TF.SameCoordinates,Original*
G04 #@! TF.FileFunction,Profile,NP*
%FSLAX46Y46*%
G04 Gerber Fmt 4.6, Leading zero omitted, Abs format (unit mm)*
G04 Created by KiCad (PCBNEW 8.0.9) date 2025-03-24 20:53:25*
%MOMM*%
%LPD*%
G01*
G04 APERTURE LIST*
G04 #@! TA.AperFunction,Profile*
%ADD10C,0.050000*%
G04 #@! TD*
G04 APERTURE END LIST*
D10*
X74995000Y-135510001D02*
X57480000Y-135510001D01*
X57180000Y-37520000D02*
G75*
G02*
X57480000Y-37220000I300000J0D01*
G01*
X57480000Y-135510000D02*
G75*
G02*
X57180000Y-135210000I0J300000D01*
G01*
X57480000Y-37220000D02*
X178860000Y-37220000D01*
X179160000Y-135210000D02*
G75*
G02*
X178860000Y-135510000I-300000J0D01*
G01*
X179160000Y-37520000D02*
X179160000Y-135210000D01*
X178860000Y-135510000D02*
X157545000Y-135510000D01*
X178860000Y-37220000D02*
G75*
G02*
X179160000Y-37520000I0J-300000D01*
G01*
X169840000Y-130650000D02*
G75*
G02*
X166640000Y-130650000I-1600000J0D01*
G01*
X166640000Y-130650000D02*
G75*
G02*
X169840000Y-130650000I1600000J0D01*
G01*
X65310000Y-43430000D02*
G75*
G02*
X62830000Y-43430000I-1240000J0D01*
G01*
X62830000Y-43430000D02*
G75*
G02*
X65310000Y-43430000I1240000J0D01*
G01*
X57180000Y-135210000D02*
X57180000Y-37520000D01*
X169840000Y-57280000D02*
G75*
G02*
X166640000Y-57280000I-1600000J0D01*
G01*
X166640000Y-57280000D02*
G75*
G02*
X169840000Y-57280000I1600000J0D01*
G01*
X65310000Y-129280000D02*
G75*
G02*
X62830000Y-129280000I-1240000J0D01*
G01*
X62830000Y-129280000D02*
G75*
G02*
X65310000Y-129280000I1240000J0D01*
G01*
X174670000Y-43370000D02*
G75*
G02*
X172190000Y-43370000I-1240000J0D01*
G01*
X172190000Y-43370000D02*
G75*
G02*
X174670000Y-43370000I1240000J0D01*
G01*
X173000000Y-74990000D02*
G75*
G02*
X169200000Y-74990000I-1900000J0D01*
G01*
X169200000Y-74990000D02*
G75*
G02*
X173000000Y-74990000I1900000J0D01*
G01*
X76265000Y-142495000D02*
X76265000Y-136780000D01*
X76900000Y-143130000D02*
X155640000Y-143130000D01*
X156275000Y-142495000D02*
X156275000Y-136780000D01*
X74995000Y-135510000D02*
G75*
G02*
X76265000Y-136780000I1J-1269999D01*
G01*
X76900000Y-143130000D02*
G75*
G02*
X76265000Y-142495000I-1J634999D01*
G01*
X156275000Y-136780000D02*
G75*
G02*
X157545000Y-135510000I1270000J0D01*
G01*
X156275000Y-142495000D02*
G75*
G02*
X155640000Y-143130000I-635000J0D01*
G01*
M02*
