G04 #@! TF.GenerationSoftware,KiCad,Pcbnew,8.0.9*
G04 #@! TF.CreationDate,2025-03-24T20:53:25+01:00*
G04 #@! TF.ProjectId,Mindscape_Music_Board,4d696e64-7363-4617-9065-5f4d75736963,rev?*
G04 #@! TF.SameCoordinates,Original*
G04 #@! TF.FileFunction,Soldermask,Bot*
G04 #@! TF.FilePolarity,Negative*
%FSLAX46Y46*%
G04 Gerber Fmt 4.6, Leading zero omitted, Abs format (unit mm)*
G04 Created by KiCad (PCBNEW 8.0.9) date 2025-03-24 20:53:25*
%MOMM*%
%LPD*%
G01*
G04 APERTURE LIST*
G04 Aperture macros list*
%AMRoundRect*
0 Rectangle with rounded corners*
0 $1 Rounding radius*
0 $2 $3 $4 $5 $6 $7 $8 $9 X,Y pos of 4 corners*
0 Add a 4 corners polygon primitive as box body*
4,1,4,$2,$3,$4,$5,$6,$7,$8,$9,$2,$3,0*
0 Add four circle primitives for the rounded corners*
1,1,$1+$1,$2,$3*
1,1,$1+$1,$4,$5*
1,1,$1+$1,$6,$7*
1,1,$1+$1,$8,$9*
0 Add four rect primitives between the rounded corners*
20,1,$1+$1,$2,$3,$4,$5,0*
20,1,$1+$1,$4,$5,$6,$7,0*
20,1,$1+$1,$6,$7,$8,$9,0*
20,1,$1+$1,$8,$9,$2,$3,0*%
G04 Aperture macros list end*
%ADD10C,1.600000*%
%ADD11R,1.600000X1.600000*%
%ADD12C,5.000000*%
%ADD13C,4.500000*%
%ADD14O,1.600000X1.600000*%
%ADD15C,1.300000*%
%ADD16RoundRect,0.065000X-0.585000X-3.235000X0.585000X-3.235000X0.585000X3.235000X-0.585000X3.235000X0*%
%ADD17C,3.200000*%
%ADD18C,1.700000*%
%ADD19C,3.000000*%
G04 APERTURE END LIST*
D10*
X146770000Y-67220000D03*
X149270000Y-67220000D03*
X157140000Y-102860000D03*
X157140000Y-100360000D03*
X141615113Y-54150000D03*
X139115113Y-54150000D03*
X147000000Y-62160000D03*
X149500000Y-62160000D03*
D11*
X149330000Y-131050000D03*
D10*
X154330000Y-131050000D03*
D11*
X134090000Y-131050000D03*
D10*
X139090000Y-131050000D03*
D12*
X166020000Y-64195000D03*
X166020000Y-85785000D03*
D13*
X160305000Y-69275000D03*
X159035000Y-74990000D03*
X160305000Y-80705000D03*
D11*
X135430000Y-94980000D03*
D14*
X135430000Y-97520000D03*
X135430000Y-100060000D03*
X135430000Y-102600000D03*
X135430000Y-105140000D03*
X135430000Y-107680000D03*
X135430000Y-110220000D03*
X135430000Y-112760000D03*
X135430000Y-115300000D03*
X135430000Y-117840000D03*
X135430000Y-120380000D03*
X135430000Y-122920000D03*
X150670000Y-122920000D03*
X150670000Y-120380000D03*
X150670000Y-117840000D03*
X150670000Y-115300000D03*
X150670000Y-112760000D03*
X150670000Y-110220000D03*
X150670000Y-107680000D03*
X150670000Y-105140000D03*
X150670000Y-102600000D03*
X150670000Y-100060000D03*
X150670000Y-97520000D03*
X150670000Y-94980000D03*
D11*
X115040000Y-94980000D03*
D14*
X115040000Y-97520000D03*
X115040000Y-100060000D03*
X115040000Y-102600000D03*
X115040000Y-105140000D03*
X115040000Y-107680000D03*
X115040000Y-110220000D03*
X115040000Y-112760000D03*
X115040000Y-115300000D03*
X115040000Y-117840000D03*
X115040000Y-120380000D03*
X115040000Y-122920000D03*
X130280000Y-122920000D03*
X130280000Y-120380000D03*
X130280000Y-117840000D03*
X130280000Y-115300000D03*
X130280000Y-112760000D03*
X130280000Y-110220000D03*
X130280000Y-107680000D03*
X130280000Y-105140000D03*
X130280000Y-102600000D03*
X130280000Y-100060000D03*
X130280000Y-97520000D03*
X130280000Y-94980000D03*
D15*
X154370000Y-136145000D03*
D16*
X154370000Y-139420000D03*
D15*
X151830000Y-136145000D03*
D16*
X151830000Y-139420000D03*
D15*
X149290000Y-136145000D03*
D16*
X149290000Y-139420000D03*
D15*
X146750000Y-136145000D03*
D16*
X146750000Y-139420000D03*
D15*
X144210000Y-136145000D03*
D16*
X144210000Y-139420000D03*
D15*
X141670000Y-136145000D03*
D16*
X141670000Y-139420000D03*
D15*
X139130000Y-136145000D03*
D16*
X139130000Y-139420000D03*
D15*
X136590000Y-136145000D03*
D16*
X136590000Y-139420000D03*
D15*
X134050000Y-136145000D03*
D16*
X134050000Y-139420000D03*
D15*
X131510000Y-136145000D03*
D16*
X131510000Y-139420000D03*
D15*
X128970000Y-136145000D03*
D16*
X128970000Y-139420000D03*
D15*
X126430000Y-136145000D03*
D16*
X126430000Y-139420000D03*
D15*
X123890000Y-136145000D03*
D16*
X123890000Y-139420000D03*
D15*
X121350000Y-136145000D03*
D16*
X121350000Y-139420000D03*
D15*
X118810000Y-136145000D03*
D16*
X118810000Y-139420000D03*
D15*
X116270000Y-136145000D03*
D16*
X116270000Y-139420000D03*
D15*
X113730000Y-136145000D03*
D16*
X113730000Y-139420000D03*
D15*
X111190000Y-136145000D03*
D16*
X111190000Y-139420000D03*
D15*
X108650000Y-136145000D03*
D16*
X108650000Y-139420000D03*
D15*
X106110000Y-136145000D03*
D16*
X106110000Y-139420000D03*
D15*
X103570000Y-136145000D03*
D16*
X103570000Y-139420000D03*
D15*
X101030000Y-136145000D03*
D16*
X101030000Y-139420000D03*
D15*
X98490000Y-136145000D03*
D16*
X98490000Y-139420000D03*
D15*
X95950000Y-136145000D03*
D16*
X95950000Y-139420000D03*
D15*
X93410000Y-136145000D03*
D16*
X93410000Y-139420000D03*
D15*
X90870000Y-136145000D03*
D16*
X90870000Y-139420000D03*
D15*
X88330000Y-136145000D03*
D16*
X88330000Y-139420000D03*
D15*
X85790000Y-136145000D03*
D16*
X85790000Y-139420000D03*
D15*
X83250000Y-136145000D03*
D16*
X83250000Y-139420000D03*
D15*
X80710000Y-136145000D03*
D16*
X80710000Y-139420000D03*
D15*
X78170000Y-136145000D03*
D16*
X78170000Y-139420000D03*
D17*
X164010000Y-117860000D03*
X164010000Y-107700000D03*
D11*
X81790000Y-105140000D03*
D14*
X81790000Y-107680000D03*
X81790000Y-110220000D03*
X81790000Y-112760000D03*
X81790000Y-115300000D03*
X81790000Y-117840000D03*
X81790000Y-120380000D03*
X81790000Y-122920000D03*
X89410000Y-122920000D03*
X89410000Y-120380000D03*
X89410000Y-117840000D03*
X89410000Y-115300000D03*
X89410000Y-112760000D03*
X89410000Y-110220000D03*
X89410000Y-107680000D03*
X89410000Y-105140000D03*
D18*
X89400000Y-76760000D03*
X81900000Y-76760000D03*
D10*
X139140000Y-79890000D03*
D14*
X126440000Y-79890000D03*
D18*
X72930000Y-102100000D03*
X65430000Y-102100000D03*
D11*
X134030000Y-62140000D03*
D14*
X134030000Y-64680000D03*
X134030000Y-67220000D03*
X134030000Y-69760000D03*
X141650000Y-69760000D03*
X141650000Y-67220000D03*
X141650000Y-64680000D03*
X141650000Y-62140000D03*
D19*
X132200000Y-86160000D03*
X157200000Y-86160000D03*
D11*
X65380000Y-105140000D03*
D14*
X65380000Y-107680000D03*
X65380000Y-110220000D03*
X65380000Y-112760000D03*
X65380000Y-115300000D03*
X65380000Y-117840000D03*
X65380000Y-120380000D03*
X65380000Y-122920000D03*
X73000000Y-122920000D03*
X73000000Y-120380000D03*
X73000000Y-117840000D03*
X73000000Y-115300000D03*
X73000000Y-112760000D03*
X73000000Y-110220000D03*
X73000000Y-107680000D03*
X73000000Y-105140000D03*
D18*
X151760000Y-73560000D03*
X144260000Y-73560000D03*
D11*
X98480000Y-57065000D03*
D14*
X98480000Y-59605000D03*
X98480000Y-62145000D03*
X98480000Y-64685000D03*
X98480000Y-67225000D03*
X98480000Y-69765000D03*
X98480000Y-72305000D03*
X106100000Y-72305000D03*
X106100000Y-69765000D03*
X106100000Y-67225000D03*
X106100000Y-64685000D03*
X106100000Y-62145000D03*
X106100000Y-59605000D03*
X106100000Y-57065000D03*
D18*
X126440000Y-77540000D03*
X133940000Y-77540000D03*
X106030000Y-102030000D03*
X98530000Y-102030000D03*
D11*
X98480000Y-105140000D03*
D14*
X98480000Y-107680000D03*
X98480000Y-110220000D03*
X98480000Y-112760000D03*
X98480000Y-115300000D03*
X98480000Y-117840000D03*
X98480000Y-120380000D03*
X98480000Y-122920000D03*
X106100000Y-122920000D03*
X106100000Y-120380000D03*
X106100000Y-117840000D03*
X106100000Y-115300000D03*
X106100000Y-112760000D03*
X106100000Y-110220000D03*
X106100000Y-107680000D03*
X106100000Y-105140000D03*
D11*
X93230000Y-100060000D03*
D14*
X93230000Y-102600000D03*
X93230000Y-105140000D03*
X93230000Y-107680000D03*
X93230000Y-110220000D03*
X93230000Y-112760000D03*
X93230000Y-115300000D03*
X93230000Y-117840000D03*
X93230000Y-120380000D03*
X93230000Y-122920000D03*
D10*
X154430000Y-77190000D03*
D14*
X141730000Y-77190000D03*
D11*
X115040000Y-72290000D03*
D14*
X115040000Y-74830000D03*
X115040000Y-77370000D03*
X115040000Y-79910000D03*
X115040000Y-82450000D03*
X115040000Y-84990000D03*
X115040000Y-87530000D03*
X122660000Y-87530000D03*
X122660000Y-84990000D03*
X122660000Y-82450000D03*
X122660000Y-79910000D03*
X122660000Y-77370000D03*
X122660000Y-74830000D03*
X122660000Y-72290000D03*
D11*
X98480000Y-79855000D03*
D14*
X98480000Y-82395000D03*
X98480000Y-84935000D03*
X98480000Y-87475000D03*
X98480000Y-90015000D03*
X98480000Y-92555000D03*
X98480000Y-95095000D03*
X106100000Y-95095000D03*
X106100000Y-92555000D03*
X106100000Y-90015000D03*
X106100000Y-87475000D03*
X106100000Y-84935000D03*
X106100000Y-82395000D03*
X106100000Y-79855000D03*
D18*
X122590000Y-69300000D03*
X115090000Y-69300000D03*
D10*
X154425000Y-79890000D03*
D14*
X141725000Y-79890000D03*
D11*
X81850000Y-79855000D03*
D14*
X81850000Y-82395000D03*
X81850000Y-84935000D03*
X81850000Y-87475000D03*
X81850000Y-90015000D03*
X81850000Y-92555000D03*
X81850000Y-95095000D03*
X89470000Y-95095000D03*
X89470000Y-92555000D03*
X89470000Y-90015000D03*
X89470000Y-87475000D03*
X89470000Y-84935000D03*
X89470000Y-82395000D03*
X89470000Y-79855000D03*
D18*
X106030000Y-76760000D03*
X98530000Y-76760000D03*
X106030000Y-53980000D03*
X98530000Y-53980000D03*
M02*
